SplineFontDB: 3.2
FontName: IthkuilFlow
FullName: Ithkuil Flow
FamilyName: IthkuilFlow
Weight: Regular
Copyright: Shankar Sivarajan\nBased on glyphs by Zachary Sakowitz.
UComments: "2023-2-19: Created with FontForge (http://fontforge.org)"
Version: 
ItalicAngle: 0
UnderlinePosition: -96
UnderlineWidth: 48
Ascent: 384
Descent: 128
InvalidEm: 0
LayerCount: 2
Layer: 0 0 "Back" 1
Layer: 1 0 "Fore" 0
XUID: [1021 73 1113128204 8431]
FSType: 0
OS2Version: 0
OS2_WeightWidthSlopeOnly: 0
OS2_UseTypoMetrics: 1
CreationTime: 1676795389
ModificationTime: 1693853046
PfmFamily: 17
TTFWeight: 400
TTFWidth: 5
LineGap: 48
VLineGap: 0
OS2TypoAscent: 0
OS2TypoAOffset: 1
OS2TypoDescent: 0
OS2TypoDOffset: 1
OS2TypoLinegap: 48
OS2WinAscent: 0
OS2WinAOffset: 1
OS2WinDescent: 0
OS2WinDOffset: 1
HheadAscent: 0
HheadAOffset: 1
HheadDescent: 0
HheadDOffset: 1
OS2Vendor: 'PfEd'
OS2CodePages: 00000000.00000000
OS2UnicodeRanges: 00000000.00000000.00000000.00000000
Lookup: 6 0 0 "OneQuote" { "OneQuote subtable"  } ['liga' ('grek' <'dflt' > 'latn' <'dflt' > 'DFLT' <'dflt' > ) ]
Lookup: 1 0 0 "Single Substitution lookup 1" { "Single Substitution lookup 1 subtable"  } []
Lookup: 4 0 1 "ExtraMoveDiacritic" { "ExtraMoveDiacritic subtable"  } ['liga' ('grek' <'dflt' > 'latn' <'dflt' > 'DFLT' <'dflt' > ) ]
Lookup: 4 0 1 "FlipCores" { "FlipCores subtable"  } ['liga' ('grek' <'dflt' > 'latn' <'dflt' > 'DFLT' <'dflt' > ) ]
Lookup: 4 0 1 "TertiaryLigature" { "TertiaryLigature subtable"  } ['liga' ('grek' <'dflt' > 'latn' <'dflt' > 'DFLT' <'dflt' > ) ]
Lookup: 4 0 1 "VowelLigature" { "VowelLigature subtable"  } ['liga' ('grek' <'dflt' > 'latn' <'dflt' > 'DFLT' <'dflt' > ) ]
Lookup: 4 0 1 "RegisterLigature" { "RegisterLigature subtable"  } ['liga' ('grek' <'dflt' > 'latn' <'dflt' > 'DFLT' <'dflt' > ) ]
Lookup: 6 0 0 "VowelAnchor" { "VowelAnchor contextual 0"  "VowelAnchor contextual 1"  } ['liga' ('grek' <'dflt' > 'latn' <'dflt' > 'DFLT' <'dflt' > ) ]

StartChar: RPV.VAR
Encoding: -1 -1 0
Width: 1024
VWidth: 1024
Flags: H
LayerCount: 2
Back
SplineSet
-202 543 m 4
 -202 596 -159 639 -106 639 c 4
 -53 639 -10 596 -10 543 c 4
 -10 490 -53 447 -106 447 c 4
 -159 447 -202 490 -202 543 c 4
-250 495 m 4
 -250 548 -207 591 -154 591 c 4
 -101 591 -58 548 -58 495 c 4
 -58 442 -101 399 -154 399 c 4
 -207 399 -250 442 -250 495 c 4
EndSplineSet
Fore
Validated: 1
EndChar

StartChar: two.hund
Encoding: 92 -1 1
Width: 320
GlyphClass: 4
Flags: HW
AnchorPoint: "Extension_mkmk" 0 384 mark 0
LayerCount: 2
Fore
SplineSet
0 384 m 0
 0 504 -200 504 -140 444 c 1024
EndSplineSet
EndChar

StartChar: one.ten
Encoding: 93 -1 2
Width: 320
GlyphClass: 4
Flags: HW
AnchorPoint: "Extension_mkmk" 0 384 mark 0
LayerCount: 2
Fore
SplineSet
0 384 m 0
 120 384 160 324 160 324 c 1024
EndSplineSet
Substitution2: "Single Substitution lookup 30 subtable" one.ten_coll
Substitution2: "Single Substitution lookup 29 subtable" one.ten_coll
EndChar

StartChar: two.ten
Encoding: 94 -1 3
Width: 320
Flags: HW
AnchorPoint: "Extension_mkmk" 0 384 mark 0
LayerCount: 2
Fore
SplineSet
0 384 m 0
 0 264 200 264 140 324 c 1024
EndSplineSet
Substitution2: "Single Substitution lookup 30 subtable" two.ten_coll
Substitution2: "Single Substitution lookup 29 subtable" two.ten_coll
EndChar

StartChar: three.ten
Encoding: 95 -1 4
Width: 320
Flags: HW
AnchorPoint: "Extension_mkmk" 0 384 mark 0
LayerCount: 2
Fore
SplineSet
0 384 m 0
 0 362 -18 344 -40 344 c 1
 20 324 20 284 20 284 c 1024
EndSplineSet
Substitution2: "Single Substitution lookup 30 subtable" three.ten_coll
Substitution2: "Single Substitution lookup 29 subtable" three.ten_coll
EndChar

StartChar: four.ten
Encoding: 96 -1 5
Width: 320
Flags: HW
AnchorPoint: "Extension_mkmk" 0 384 mark 0
LayerCount: 2
Fore
SplineSet
0 384 m 0
 0 362 18 344 40 344 c 1
 -20 324 -20 284 -20 284 c 1024
EndSplineSet
Substitution2: "Single Substitution lookup 30 subtable" four.ten_coll
Substitution2: "Single Substitution lookup 29 subtable" four.ten_coll
EndChar

StartChar: five.ten
Encoding: 97 -1 6
Width: 320
Flags: HW
AnchorPoint: "Extension_mkmk" 0 384 mark 0
LayerCount: 2
Fore
SplineSet
0 384 m 1
 -120 384 l 1
 -30 384 0 324 0 324 c 1024
EndSplineSet
Substitution2: "Single Substitution lookup 30 subtable" five.ten_coll
Substitution2: "Single Substitution lookup 29 subtable" five.ten_coll
EndChar

StartChar: six.ten
Encoding: 98 -1 7
Width: 320
Flags: HW
AnchorPoint: "Extension_mkmk" 0 384 mark 0
LayerCount: 2
Fore
SplineSet
0 384 m 1
 120 384 l 1
 30 384 0 324 0 324 c 1024
EndSplineSet
Substitution2: "Single Substitution lookup 30 subtable" six.ten_coll
Substitution2: "Single Substitution lookup 29 subtable" six.ten_coll
EndChar

StartChar: seven.ten
Encoding: 99 -1 8
Width: 320
Flags: HW
AnchorPoint: "Extension_mkmk" 0 384 mark 0
LayerCount: 2
Fore
SplineSet
0 384 m 0
 8 385 17 386 26 386 c 0
 70 386 106 368 106 346 c 0
 106 324 70 306 26 306 c 0
 -2 306 -26 313 -40 324 c 1024
EndSplineSet
Substitution2: "Single Substitution lookup 30 subtable" seven.ten_coll
Substitution2: "Single Substitution lookup 29 subtable" seven.ten_coll
EndChar

StartChar: eight.ten
Encoding: 100 -1 9
Width: 320
Flags: HW
AnchorPoint: "Extension_mkmk" 0 384 mark 0
LayerCount: 2
Fore
SplineSet
0 384 m 0
 -8 385 -17 386 -26 386 c 0
 -70 386 -106 368 -106 346 c 0
 -106 324 -70 306 -26 306 c 0
 2 306 26 313 40 324 c 1024
EndSplineSet
Substitution2: "Single Substitution lookup 30 subtable" eight.ten_coll
Substitution2: "Single Substitution lookup 29 subtable" eight.ten_coll
EndChar

StartChar: nine.ten
Encoding: 101 -1 10
Width: 320
Flags: HW
AnchorPoint: "Extension_mkmk" 0 384 mark 0
LayerCount: 2
Fore
SplineSet
0 384 m 0
 40 424 80 364 40 324 c 1024
EndSplineSet
Substitution2: "Single Substitution lookup 30 subtable" nine.ten_coll
Substitution2: "Single Substitution lookup 29 subtable" nine.ten_coll
EndChar

StartChar: one.hund
Encoding: 102 -1 11
Width: 320
Flags: HW
HStem: 135 84G<78 84> 186 37<70 91>
VStem: 78 37<165 186>
AnchorPoint: "Extension_mkmk" 0 384 mark 0
LayerCount: 2
Fore
SplineSet
0 384 m 0
 -120 384 -160 444 -160 444 c 1024
EndSplineSet
EndChar

StartChar: three.hund
Encoding: 103 -1 12
Width: 320
Flags: HW
AnchorPoint: "Extension_mkmk" 0 384 mark 0
LayerCount: 2
Fore
SplineSet
0 384 m 0
 0 406 18 424 40 424 c 1
 -20 444 -20 484 -20 484 c 1024
EndSplineSet
EndChar

StartChar: four.hund
Encoding: 104 -1 13
Width: 320
Flags: HW
AnchorPoint: "Extension_mkmk" 0 384 mark 0
LayerCount: 2
Fore
SplineSet
0 384 m 0
 0 406 -18 424 -40 424 c 1
 20 444 20 484 20 484 c 1024
EndSplineSet
EndChar

StartChar: five.hund
Encoding: 105 -1 14
Width: 320
Flags: HW
AnchorPoint: "Extension_mkmk" 0 384 mark 0
LayerCount: 2
Fore
SplineSet
0 384 m 1
 120 384 l 1
 30 384 0 444 0 444 c 1024
EndSplineSet
EndChar

StartChar: six.hund
Encoding: 106 -1 15
Width: 320
Flags: HW
AnchorPoint: "Extension_mkmk" 0 384 mark 0
LayerCount: 2
Fore
SplineSet
0 384 m 1
 -120 384 l 1
 -30 384 0 444 0 444 c 1024
EndSplineSet
EndChar

StartChar: seven.hund
Encoding: 107 -1 16
Width: 320
Flags: HW
AnchorPoint: "Extension_mkmk" 0 384 mark 0
LayerCount: 2
Fore
SplineSet
0 384 m 0
 -8 383 -17 382 -26 382 c 0
 -70 382 -106 400 -106 422 c 0
 -106 444 -70 462 -26 462 c 0
 2 462 26 455 40 444 c 1024
EndSplineSet
EndChar

StartChar: eight.hund
Encoding: 108 -1 17
Width: 320
Flags: HW
AnchorPoint: "Extension_mkmk" 0 384 mark 0
LayerCount: 2
Fore
SplineSet
0 384 m 0
 8 383 17 382 26 382 c 0
 70 382 106 400 106 422 c 0
 106 444 70 462 26 462 c 0
 -2 462 -26 455 -40 444 c 1024
EndSplineSet
EndChar

StartChar: nine.hund
Encoding: 109 -1 18
Width: 320
Flags: HW
AnchorPoint: "Extension_mkmk" 0 384 mark 0
LayerCount: 2
Fore
SplineSet
0 384 m 0
 -40 344 -80 404 -40 444 c 1024
EndSplineSet
EndChar

StartChar: b
Encoding: 28 98 19
Width: 320
Flags: HW
AnchorPoint: "Diacritic_down" 160 -60 basechar 0
AnchorPoint: "Diacritic_up" 160 360 basechar 0
AnchorPoint: "Extension_up" 260 280 basechar 0
AnchorPoint: "Extension_down" 160 0 basechar 0
AnchorPoint: "Diacritic_left" 60 140 basechar 0
AnchorPoint: "Diacritic_right" 260 140 basechar 0
LayerCount: 2
Fore
SplineSet
260 280 m 1
 60 280 l 1
 60 200 120 120 200 160 c 1
 160 200 l 1
 160 0 l 1025
EndSplineSet
Substitution2: "Single Substitution lookup 19 subtable" b.ext.up
Substitution2: "Single Substitution lookup 18 subtable" b.ext.down
EndChar

StartChar: c
Encoding: 29 99 20
Width: 320
Flags: HW
AnchorPoint: "Diacritic_right" 200 140 basechar 0
AnchorPoint: "Diacritic_left" 0 140 basechar 0
AnchorPoint: "Diacritic_down" 160 -60 basechar 0
AnchorPoint: "Diacritic_up" 160 360 basechar 0
AnchorPoint: "Extension_up" 60 280 basechar 0
AnchorPoint: "Extension_down" 260 0 basechar 0
LayerCount: 2
Fore
SplineSet
60 280 m 1
 60 0 l 1
 260 0 l 1025
EndSplineSet
Substitution2: "Single Substitution lookup 19 subtable" c.ext.up
Substitution2: "Single Substitution lookup 18 subtable" c.ext.down
EndChar

StartChar: d
Encoding: 30 100 21
Width: 320
Flags: HW
AnchorPoint: "Diacritic_left" 0 140 basechar 0
AnchorPoint: "Diacritic_right" 200 140 basechar 0
AnchorPoint: "Diacritic_down" 160 -60 basechar 0
AnchorPoint: "Diacritic_up" 160 360 basechar 0
AnchorPoint: "Extension_up" 260 280 basechar 0
AnchorPoint: "Extension_down" 100 0 basechar 0
LayerCount: 2
Fore
SplineSet
260 280 m 1
 60 280 l 1
 60 140 l 1
 100 180 l 1
 100 0 l 1025
EndSplineSet
Substitution2: "Single Substitution lookup 19 subtable" d.ext.up
Substitution2: "Single Substitution lookup 18 subtable" d.ext.down
EndChar

StartChar: f
Encoding: 32 102 22
Width: 320
Flags: HW
AnchorPoint: "Diacritic_left" 60 140 basechar 0
AnchorPoint: "Diacritic_right" 260 140 basechar 0
AnchorPoint: "Diacritic_down" 160 -60 basechar 0
AnchorPoint: "Diacritic_up" 160 360 basechar 0
AnchorPoint: "Extension_down" 180 0 basechar 0
AnchorPoint: "Extension_up" 260 280 basechar 0
LayerCount: 2
Fore
SplineSet
260 280 m 0
 100 280 60 260 60 220 c 0
 60 140 180 160 180 160 c 1
 180 0 l 1025
EndSplineSet
Substitution2: "Single Substitution lookup 19 subtable" f.ext.up
Substitution2: "Single Substitution lookup 18 subtable" f.ext.down
EndChar

StartChar: g
Encoding: 33 103 23
Width: 320
Flags: HW
HStem: -244 84G<351 446> -4 40<223 431>
AnchorPoint: "Diacritic_right" 260 140 basechar 0
AnchorPoint: "Diacritic_left" 60 140 basechar 0
AnchorPoint: "Diacritic_down" 160 -60 basechar 0
AnchorPoint: "Diacritic_up" 160 360 basechar 0
AnchorPoint: "Extension_down" 240 0 basechar 0
AnchorPoint: "Extension_up" 280 280 basechar 0
LayerCount: 2
Fore
SplineSet
280 280 m 1
 40 280 l 1
 40 140 140 140 140 140 c 1
 140 157 153 170 170 170 c 0
 250 170 240 0 240 0 c 1024
EndSplineSet
Substitution2: "Single Substitution lookup 19 subtable" g.ext.up
Substitution2: "Single Substitution lookup 18 subtable" g.ext.down
EndChar

StartChar: h
Encoding: 34 104 24
Width: 320
Flags: HW
AnchorPoint: "Diacritic_right" 290 140 basechar 0
AnchorPoint: "Diacritic_left" 30 140 basechar 0
AnchorPoint: "Diacritic_down" 160 -60 basechar 0
AnchorPoint: "Diacritic_up" 160 360 basechar 0
AnchorPoint: "Extension_down" 200 0 basechar 0
AnchorPoint: "Extension_up" 80 280 basechar 0
LayerCount: 2
Fore
SplineSet
80 280 m 1
 80 120 l 1
 240 120 l 1
 200 160 l 1
 200 0 l 1025
EndSplineSet
Substitution2: "Single Substitution lookup 19 subtable" h.ext.up
Substitution2: "Single Substitution lookup 18 subtable" h.ext.down
EndChar

StartChar: j
Encoding: 36 106 25
Width: 320
Flags: HW
AnchorPoint: "Diacritic_left" 10 140 basechar 0
AnchorPoint: "Diacritic_right" 240 140 basechar 0
AnchorPoint: "Diacritic_down" 160 -60 basechar 0
AnchorPoint: "Diacritic_up" 160 360 basechar 0
AnchorPoint: "Extension_down" 260 0 basechar 0
AnchorPoint: "Extension_up" 260 280 basechar 0
LayerCount: 2
Fore
SplineSet
260 280 m 0
 -140 280 260 0 60 0 c 1
 260 0 l 1025
EndSplineSet
Substitution2: "Single Substitution lookup 19 subtable" j.ext.up
Substitution2: "Single Substitution lookup 18 subtable" j.ext.down
EndChar

StartChar: k
Encoding: 37 107 26
Width: 320
Flags: HW
AnchorPoint: "Diacritic_right" 200 140 basechar 0
AnchorPoint: "Diacritic_left" 0 140 basechar 0
AnchorPoint: "Diacritic_down" 160 -60 basechar 0
AnchorPoint: "Diacritic_up" 160 360 basechar 0
AnchorPoint: "Extension_down" 200 0 basechar 0
AnchorPoint: "Extension_up" 280 280 basechar 0
LayerCount: 2
Fore
SplineSet
280 280 m 1
 40 280 l 1
 0 80 120 0 200 0 c 1024
EndSplineSet
Substitution2: "Single Substitution lookup 19 subtable" k.ext.up
Substitution2: "Single Substitution lookup 18 subtable" k.ext.down
EndChar

StartChar: l
Encoding: 38 108 27
Width: 320
Flags: HW
AnchorPoint: "Diacritic_left" 20 140 basechar 0
AnchorPoint: "Diacritic_right" 220 140 basechar 0
AnchorPoint: "Diacritic_down" 160 -60 basechar 0
AnchorPoint: "Diacritic_up" 160 360 basechar 0
AnchorPoint: "Extension_up" 60 280 basechar 0
AnchorPoint: "Extension_down" 260 0 basechar 0
LayerCount: 2
Fore
SplineSet
60 280 m 1
 60 140 l 1
 300 140 60 0 60 0 c 1
 260 0 l 1025
EndSplineSet
Substitution2: "Single Substitution lookup 19 subtable" l.ext.up
Substitution2: "Single Substitution lookup 18 subtable" l.ext.down
EndChar

StartChar: m
Encoding: 39 109 28
Width: 320
Flags: HW
AnchorPoint: "Diacritic_right" 230 140 basechar 0
AnchorPoint: "Diacritic_left" 30 140 basechar 0
AnchorPoint: "Diacritic_down" 160 -60 basechar 0
AnchorPoint: "Diacritic_up" 160 360 basechar 0
AnchorPoint: "Extension_up" 90 280 basechar 0
AnchorPoint: "Extension_down" 230 0 basechar 0
LayerCount: 2
Fore
SplineSet
90 280 m 1
 90 140 l 1
 230 140 230 40 230 0 c 1024
EndSplineSet
Substitution2: "Single Substitution lookup 19 subtable" m.ext.up
Substitution2: "Single Substitution lookup 18 subtable" m.ext.down
EndChar

StartChar: n
Encoding: 40 110 29
Width: 320
Flags: HW
AnchorPoint: "Diacritic_right" 240 140 basechar 0
AnchorPoint: "Diacritic_left" 40 140 basechar 0
AnchorPoint: "Diacritic_down" 160 -60 basechar 0
AnchorPoint: "Diacritic_up" 160 360 basechar 0
AnchorPoint: "Extension_up" 90 280 basechar 0
AnchorPoint: "Extension_down" 230 0 basechar 0
LayerCount: 2
Fore
SplineSet
90 280 m 1
 90 160 l 2
 90 138 108 120 130 120 c 1
 130 142 143 160 160 160 c 0
 220 160 230 80 230 0 c 1024
EndSplineSet
Substitution2: "Single Substitution lookup 19 subtable" n.ext.up
Substitution2: "Single Substitution lookup 18 subtable" n.ext.down
EndChar

StartChar: p
Encoding: 42 112 30
Width: 320
Flags: HW
AnchorPoint: "Diacritic_left" 40 140 basechar 0
AnchorPoint: "Diacritic_right" 240 140 basechar 0
AnchorPoint: "Diacritic_down" 160 -60 basechar 0
AnchorPoint: "Diacritic_up" 160 360 basechar 0
AnchorPoint: "Extension_down" 180 0 basechar 0
AnchorPoint: "Extension_up" 260 280 basechar 0
LayerCount: 2
Fore
SplineSet
260 280 m 1
 60 280 l 1
 60 200 100 160 180 160 c 1
 180 0 l 1025
EndSplineSet
Substitution2: "Single Substitution lookup 19 subtable" p.ext.up
Substitution2: "Single Substitution lookup 18 subtable" p.ext.down
EndChar

StartChar: r
Encoding: 43 114 31
Width: 320
Flags: HW
AnchorPoint: "Diacritic_right" 260 140 basechar 0
AnchorPoint: "Diacritic_left" 60 140 basechar 0
AnchorPoint: "Diacritic_down" 160 -60 basechar 0
AnchorPoint: "Diacritic_up" 160 360 basechar 0
AnchorPoint: "Extension_up" 60 280 basechar 0
AnchorPoint: "Extension_down" 260 0 basechar 0
LayerCount: 2
Fore
SplineSet
60 280 m 0
 220 280 220 80 60 0 c 1
 260 0 l 1025
EndSplineSet
Substitution2: "Single Substitution lookup 19 subtable" r.ext.up
Substitution2: "Single Substitution lookup 18 subtable" r.ext.down
EndChar

StartChar: s
Encoding: 44 115 32
Width: 320
Flags: HW
AnchorPoint: "Diacritic_left" 0 140 basechar 0
AnchorPoint: "Diacritic_right" 240 140 basechar 0
AnchorPoint: "Diacritic_down" 160 -60 basechar 0
AnchorPoint: "Diacritic_up" 160 360 basechar 0
AnchorPoint: "Extension_up" 260 280 basechar 0
AnchorPoint: "Extension_down" 220 0 basechar 0
LayerCount: 2
Fore
SplineSet
260 280 m 0
 220 60 60 200 60 200 c 1
 60 20 180 0 220 0 c 1024
EndSplineSet
Substitution2: "Single Substitution lookup 19 subtable" s.ext.up
Substitution2: "Single Substitution lookup 18 subtable" s.ext.down
EndChar

StartChar: t
Encoding: 45 116 33
Width: 320
Flags: HW
AnchorPoint: "Diacritic_left" 0 140 basechar 0
AnchorPoint: "Diacritic_right" 200 140 basechar 0
AnchorPoint: "Diacritic_down" 160 -60 basechar 0
AnchorPoint: "Diacritic_up" 160 360 basechar 0
AnchorPoint: "Extension_up" 260 280 basechar 0
AnchorPoint: "Extension_down" 60 0 basechar 0
LayerCount: 2
Fore
SplineSet
260 280 m 1
 60 280 l 1
 60 0 l 1025
EndSplineSet
Substitution2: "Single Substitution lookup 19 subtable" t.ext.up
Substitution2: "Single Substitution lookup 18 subtable" t.ext.down
EndChar

StartChar: v
Encoding: 47 118 34
Width: 320
Flags: HW
HStem: -244 84G<300 340> -104 40<271 300> -4 40<240 400>
VStem: 200 40<-94 -4> 300 40<-204 -104>
AnchorPoint: "Diacritic_left" 60 140 basechar 0
AnchorPoint: "Diacritic_right" 260 140 basechar 0
AnchorPoint: "Diacritic_down" 160 -60 basechar 0
AnchorPoint: "Diacritic_up" 160 360 basechar 0
AnchorPoint: "Extension_up" 260 280 basechar 0
AnchorPoint: "Extension_down" 60 0 basechar 0
LayerCount: 2
Fore
SplineSet
260 280 m 0
 140 280 130 220 130 120 c 1
 90 168 l 1
 330 168 172 0 60 0 c 1024
EndSplineSet
Substitution2: "Single Substitution lookup 19 subtable" v.ext.up
Substitution2: "Single Substitution lookup 18 subtable" v.ext.down
EndChar

StartChar: x
Encoding: 49 120 35
Width: 320
Flags: HW
HStem: -244 84G<269 379> -4 40<229 431>
AnchorPoint: "Diacritic_left" 40 140 basechar 0
AnchorPoint: "Diacritic_right" 240 140 basechar 0
AnchorPoint: "Diacritic_up" 160 360 basechar 0
AnchorPoint: "Diacritic_down" 160 -60 basechar 0
AnchorPoint: "Extension_up" 280 280 basechar 0
AnchorPoint: "Extension_down" 280 0 basechar 0
LayerCount: 2
Fore
SplineSet
280 280 m 1
 40 280 l 1
 40 140 100 140 160 140 c 1
 160 0 220 0 280 0 c 1024
EndSplineSet
Substitution2: "Single Substitution lookup 19 subtable" x.ext.up
Substitution2: "Single Substitution lookup 18 subtable" x.ext.down
EndChar

StartChar: z
Encoding: 51 122 36
Width: 320
Flags: HW
AnchorPoint: "Diacritic_left" 0 140 basechar 0
AnchorPoint: "Diacritic_right" 300 140 basechar 0
AnchorPoint: "Diacritic_up" 160 360 basechar 0
AnchorPoint: "Diacritic_down" 160 -60 basechar 0
AnchorPoint: "Extension_up" 80 280 basechar 0
AnchorPoint: "Extension_down" 240 0 basechar 0
LayerCount: 2
Fore
SplineSet
80 280 m 0
 240 280 240 140 240 140 c 1
 40 140 l 1
 80 180 l 1
 80 20 180 0 240 0 c 1024
EndSplineSet
Substitution2: "Single Substitution lookup 19 subtable" z.ext.up
Substitution2: "Single Substitution lookup 18 subtable" z.ext.down
EndChar

StartChar: zcaron
Encoding: 72 382 37
Width: 320
Flags: HW
AnchorPoint: "Diacritic_right" 280 140 basechar 0
AnchorPoint: "Diacritic_left" 40 140 basechar 0
AnchorPoint: "Diacritic_up" 160 360 basechar 0
AnchorPoint: "Diacritic_down" 160 -60 basechar 0
AnchorPoint: "Extension_up" 100 280 basechar 0
AnchorPoint: "Extension_down" 220 0 basechar 0
LayerCount: 2
Fore
SplineSet
100 280 m 0
 100 200 140 140 220 140 c 1
 60 140 60 0 220 0 c 1024
EndSplineSet
Substitution2: "Single Substitution lookup 19 subtable" zcaron.ext.up
Substitution2: "Single Substitution lookup 18 subtable" zcaron.ext.down
EndChar

StartChar: zdotaccent
Encoding: 71 380 38
Width: 320
Flags: HW
AnchorPoint: "Diacritic_right" 260 140 basechar 0
AnchorPoint: "Diacritic_left" 20 140 basechar 0
AnchorPoint: "Diacritic_up" 160 360 basechar 0
AnchorPoint: "Diacritic_down" 160 -60 basechar 0
AnchorPoint: "Extension_up" 120 280 basechar 0
AnchorPoint: "Extension_down" 260 0 basechar 0
LayerCount: 2
Fore
SplineSet
120 280 m 1
 120 48 l 2
 120 22 93 0 60 0 c 1
 260 0 l 1025
EndSplineSet
Substitution2: "Single Substitution lookup 19 subtable" zdotaccent.ext.up
Substitution2: "Single Substitution lookup 18 subtable" zdotaccent.ext.down
EndChar

StartChar: tcedilla
Encoding: 70 355 39
Width: 320
Flags: HW
AnchorPoint: "Diacritic_right" 260 140 basechar 0
AnchorPoint: "Diacritic_left" 20 140 basechar 0
AnchorPoint: "Diacritic_up" 160 360 basechar 0
AnchorPoint: "Diacritic_down" 160 -60 basechar 0
AnchorPoint: "Extension_up" 260 280 basechar 0
AnchorPoint: "Extension_down" 200 0 basechar 0
LayerCount: 2
Fore
SplineSet
260 280 m 0
 60 280 60 180 60 140 c 1
 200 140 200 40 200 0 c 1024
EndSplineSet
Substitution2: "Single Substitution lookup 19 subtable" tcedilla.ext.up
Substitution2: "Single Substitution lookup 18 subtable" tcedilla.ext.down
EndChar

StartChar: scaron
Encoding: 69 353 40
Width: 320
Flags: HW
AnchorPoint: "Diacritic_right" 260 140 basechar 0
AnchorPoint: "Diacritic_left" 20 140 basechar 0
AnchorPoint: "Diacritic_up" 160 360 basechar 0
AnchorPoint: "Diacritic_down" 160 -60 basechar 0
AnchorPoint: "Extension_up" 180 280 basechar 0
AnchorPoint: "Extension_down" 260 0 basechar 0
LayerCount: 2
Fore
SplineSet
260 0 m 0
 100 0 60 20 60 60 c 0
 60 140 180 120 180 120 c 1
 180 280 l 1025
EndSplineSet
Substitution2: "Single Substitution lookup 19 subtable" scaron.ext.up
Substitution2: "Single Substitution lookup 18 subtable" scaron.ext.down
EndChar

StartChar: rcaron
Encoding: 68 345 41
Width: 320
Flags: HW
AnchorPoint: "Diacritic_right" 260 140 basechar 0
AnchorPoint: "Diacritic_left" 20 140 basechar 0
AnchorPoint: "Diacritic_up" 160 360 basechar 0
AnchorPoint: "Diacritic_down" 160 -60 basechar 0
AnchorPoint: "Extension_up" 60 280 basechar 0
AnchorPoint: "Extension_down" 260 0 basechar 0
LayerCount: 2
Fore
SplineSet
60 280 m 0
 180 280 190 220 190 120 c 1
 230 168 l 1
 -10 168 148 0 260 0 c 1024
EndSplineSet
Substitution2: "Single Substitution lookup 19 subtable" rcaron.ext.up
Substitution2: "Single Substitution lookup 18 subtable" rcaron.ext.down
EndChar

StartChar: ncaron
Encoding: 66 328 42
Width: 320
Flags: HW
AnchorPoint: "Diacritic_right" 260 140 basechar 0
AnchorPoint: "Diacritic_left" 20 140 basechar 0
AnchorPoint: "Diacritic_up" 160 360 basechar 0
AnchorPoint: "Diacritic_down" 160 -60 basechar 0
AnchorPoint: "Extension_up" 120 280 basechar 0
AnchorPoint: "Extension_down" 240 0 basechar 0
LayerCount: 2
Fore
SplineSet
120 280 m 1
 120 100 l 1
 80 140 l 1
 240 156 240 0 240 0 c 1024
EndSplineSet
Substitution2: "Single Substitution lookup 19 subtable" ncaron.ext.up
Substitution2: "Single Substitution lookup 18 subtable" ncaron.ext.down
EndChar

StartChar: lcedilla
Encoding: 65 316 43
Width: 320
Flags: HW
HStem: -244 84G<295 405> -124 40<275 306> -44 80G<235 275> -44 80G<235 275>
VStem: 235 40<-84 -4>
AnchorPoint: "Diacritic_left" 20 140 basechar 0
AnchorPoint: "Diacritic_right" 260 140 basechar 0
AnchorPoint: "Diacritic_up" 160 360 basechar 0
AnchorPoint: "Diacritic_down" 160 -60 basechar 0
AnchorPoint: "Extension_up" 60 280 basechar 0
AnchorPoint: "Extension_down" 260 0 basechar 0
LayerCount: 2
Fore
SplineSet
60 280 m 0
 60 120 100 116 180 120 c 1
 140 160 l 1
 132 0 180 0 260 0 c 1024
EndSplineSet
Substitution2: "Single Substitution lookup 19 subtable" lcedilla.ext.up
Substitution2: "Single Substitution lookup 18 subtable" lcedilla.ext.down
EndChar

StartChar: ccedilla
Encoding: 57 231 44
Width: 320
Flags: HW
AnchorPoint: "Diacritic_left" 20 140 basechar 0
AnchorPoint: "Diacritic_right" 270 140 basechar 0
AnchorPoint: "Diacritic_up" 160 360 basechar 0
AnchorPoint: "Diacritic_down" 160 -60 basechar 0
AnchorPoint: "Extension_up" 260 280 basechar 0
AnchorPoint: "Extension_down" 180 0 basechar 0
LayerCount: 2
Fore
SplineSet
260 280 m 1
 90 280 l 1
 90 140 210 140 210 140 c 1
 60 140 l 1
 60 0 180 0 180 0 c 1024
EndSplineSet
Substitution2: "Single Substitution lookup 19 subtable" ccedilla.ext.up
Substitution2: "Single Substitution lookup 18 subtable" ccedilla.ext.down
EndChar

StartChar: ccaron
Encoding: 64 269 45
Width: 320
Flags: HW
AnchorPoint: "Diacritic_right" 230 140 basechar 0
AnchorPoint: "Diacritic_left" 20 140 basechar 0
AnchorPoint: "Diacritic_up" 160 360 basechar 0
AnchorPoint: "Diacritic_down" 160 -60 basechar 0
AnchorPoint: "Extension_up" 242 280 basechar 0
AnchorPoint: "Extension_down" 242 0 basechar 0
LayerCount: 2
Fore
SplineSet
242 280 m 0
 22 280 22 0 242 0 c 1024
EndSplineSet
Substitution2: "Single Substitution lookup 19 subtable" ccaron.ext.up
Substitution2: "Single Substitution lookup 18 subtable" ccaron.ext.down
EndChar

StartChar: Z
Encoding: 23 90 46
Width: 320
Flags: HW
AnchorPoint: "Diacritic_down" 160 -60 basechar 0
AnchorPoint: "Diacritic_up" 160 360 basechar 0
AnchorPoint: "Extension_down" 240 0 basechar 0
AnchorPoint: "Extension_up" 80 280 basechar 0
AnchorPoint: "Diacritic_right" 320 140 basechar 0
AnchorPoint: "Diacritic_left" 100 140 basechar 0
LayerCount: 2
Fore
SplineSet
80 280 m 1
 300 280 l 1
 300 160 100 20 20 0 c 1
 240 0 l 1025
EndSplineSet
LCarets2: 1 0
EndChar

StartChar: bar
Encoding: 53 124 47
Width: 320
Flags: HW
AnchorPoint: "Extension_down" 160 0 basechar 0
AnchorPoint: "Extension_up" 160 280 basechar 0
AnchorPoint: "Diacritic_down" 160 -60 basechar 0
AnchorPoint: "Diacritic_up" 160 360 basechar 0
AnchorPoint: "Diacritic_right" 260 140 basechar 0
AnchorPoint: "Diacritic_left" 60 140 basechar 0
LayerCount: 2
Fore
SplineSet
160 280 m 1
 160 0 l 1025
EndSplineSet
Ligature2: "FlipCores subtable" bar quotesingle
LCarets2: 1 160
EndChar

StartChar: braceleft
Encoding: 52 123 48
Width: 320
Flags: HW
AnchorPoint: "Diacritic_left" 60 140 basechar 0
AnchorPoint: "Diacritic_right" 260 140 basechar 0
AnchorPoint: "Diacritic_up" 160 360 basechar 0
AnchorPoint: "Diacritic_down" 160 -60 basechar 0
AnchorPoint: "Extension_up" 180 280 basechar 0
AnchorPoint: "Extension_down" 140 0 basechar 0
LayerCount: 2
Fore
SplineSet
140 0 m 1
 140 100 l 2
 140 140 180 140 180 180 c 2
 180 280 l 1025
EndSplineSet
Ligature2: "FlipCores subtable" braceright quotesingle
LCarets2: 1 160
EndChar

StartChar: braceright
Encoding: 54 125 49
Width: 320
Flags: HW
AnchorPoint: "Diacritic_left" 60 140 basechar 0
AnchorPoint: "Diacritic_right" 260 140 basechar 0
AnchorPoint: "Diacritic_up" 160 360 basechar 0
AnchorPoint: "Diacritic_down" 160 -60 basechar 0
AnchorPoint: "Extension_up" 140 280 basechar 0
AnchorPoint: "Extension_down" 180 0 basechar 0
LayerCount: 2
Fore
SplineSet
140 280 m 1
 140 110 l 1
 180 170 l 1
 180 0 l 1025
EndSplineSet
Ligature2: "FlipCores subtable" braceleft quotesingle
LCarets2: 1 160
EndChar

StartChar: Sigma
Encoding: 77 931 50
Width: 320
Flags: HW
AnchorPoint: "Diacritic_up" 160 360 basechar 0
AnchorPoint: "Diacritic_down" 160 -60 basechar 0
AnchorPoint: "Extension_down" 270 0 basechar 0
AnchorPoint: "Extension_up" 248 280 basechar 0
AnchorPoint: "Diacritic_left" 60 100 basechar 0
AnchorPoint: "Diacritic_right" 180 220 basechar 0
LayerCount: 2
Fore
SplineSet
270 0 m 1
 50 0 l 1
 170 140 l 1
 103 148 53 176 53 210 c 0
 53 250 123 282 210 282 c 0
 224 282 237 282 250 280 c 1024
EndSplineSet
EndChar

StartChar: zero
Encoding: 5 48 52
Width: 320
Flags: HW
HStem: -222 84G<240 249> -12 80G<372 409>
VStem: 240 37<-185 -142> 372 37<-12 31>
AnchorPoint: "Extension_down" 80 0 basechar 0
AnchorPoint: "Extension_up" 240 280 basechar 0
AnchorPoint: "Diacritic_left" 80 280 basechar 0
LayerCount: 2
Fore
SplineSet
80 0 m 0
 80 160 240 120 240 280 c 1024
EndSplineSet
Substitution2: "Single Substitution lookup 16 subtable" zero.thou
Substitution2: "Single Substitution lookup 15 subtable" zero.hund
Substitution2: "Single Substitution lookup 14 subtable" zero.ten
EndChar

StartChar: one
Encoding: 6 49 53
Width: 320
Flags: HW
HStem: -222 84G<240 277> -12 80G<370 407>
VStem: 370 37<-174 31>
AnchorPoint: "Diacritic_left" 80 280 basechar 0
AnchorPoint: "Extension_down" 80 0 basechar 0
AnchorPoint: "Extension_up" 240 280 basechar 0
LayerCount: 2
Fore
SplineSet
80 0 m 0
 80 60 160 60 240 0 c 1
 240 280 l 1025
EndSplineSet
Substitution2: "Single Substitution lookup 16 subtable" one.thou
Substitution2: "Single Substitution lookup 15 subtable" one.hund
Substitution2: "Single Substitution lookup 14 subtable" one.ten
EndChar

StartChar: two
Encoding: 7 50 54
Width: 320
Flags: HW
AnchorPoint: "Diacritic_left" 80 280 basechar 0
AnchorPoint: "Extension_down" 80 0 basechar 0
AnchorPoint: "Extension_up" 240 280 basechar 0
LayerCount: 2
Fore
SplineSet
80 0 m 0
 80 80 240 0 240 0 c 1
 -40 120 240 200 240 280 c 1024
EndSplineSet
Substitution2: "Single Substitution lookup 16 subtable" two.thou
Substitution2: "Single Substitution lookup 15 subtable" two.hund
Substitution2: "Single Substitution lookup 14 subtable" two.ten
EndChar

StartChar: three
Encoding: 8 51 55
Width: 320
Flags: HW
HStem: -222 84G<240 277> -131 80G<257 330> -12 80G<363 400>
VStem: 240 37<-185 -171> 363 37<7 31>
AnchorPoint: "Diacritic_left" 80 280 basechar 0
AnchorPoint: "Extension_up" 240 280 basechar 0
AnchorPoint: "Extension_down" 80 0 basechar 0
LayerCount: 2
Fore
SplineSet
80 0 m 0
 80 60 160 60 240 0 c 1
 240 120 160 140 80 140 c 1
 200 140 240 200 240 280 c 1024
EndSplineSet
Substitution2: "Single Substitution lookup 16 subtable" three.thou
Substitution2: "Single Substitution lookup 15 subtable" three.hund
Substitution2: "Single Substitution lookup 14 subtable" three.ten
EndChar

StartChar: four
Encoding: 9 52 56
Width: 320
Flags: HW
AnchorPoint: "Diacritic_left" 80 280 basechar 0
AnchorPoint: "Extension_up" 240 280 basechar 0
AnchorPoint: "Extension_down" 80 0 basechar 0
LayerCount: 2
Fore
SplineSet
80 0 m 1
 80 140 l 1
 200 100 240 200 240 280 c 1024
EndSplineSet
Substitution2: "Single Substitution lookup 16 subtable" four.thou
Substitution2: "Single Substitution lookup 15 subtable" four.hund
Substitution2: "Single Substitution lookup 14 subtable" four.ten
EndChar

StartChar: five
Encoding: 10 53 57
Width: 320
Flags: HW
AnchorPoint: "Diacritic_left" 80 280 basechar 0
AnchorPoint: "Extension_up" 240 280 basechar 0
AnchorPoint: "Extension_down" 80 0 basechar 0
LayerCount: 2
Fore
SplineSet
80 0 m 1
 80 140 l 1
 80 60 140 0 240 0 c 1
 240 280 l 1025
EndSplineSet
Substitution2: "Single Substitution lookup 16 subtable" five.thou
Substitution2: "Single Substitution lookup 15 subtable" five.hund
Substitution2: "Single Substitution lookup 14 subtable" five.ten
EndChar

StartChar: six
Encoding: 11 54 58
Width: 320
Flags: HW
HStem: -222 84G<240 277> -129 80G<317 414> -70 84G<332 339> -12 80G<372 409>
VStem: 372 37<7 31>
AnchorPoint: "Diacritic_left" 80 280 basechar 0
AnchorPoint: "Extension_up" 240 280 basechar 0
AnchorPoint: "Extension_down" 80 0 basechar 0
LayerCount: 2
Fore
SplineSet
80 0 m 1
 80 110 l 1
 80 50 110 0 160 0 c 0
 210 0 240 50 240 110 c 0
 240 149 209 180 170 180 c 1
 209 180 240 211 240 250 c 2
 240 280 l 1025
EndSplineSet
Substitution2: "Single Substitution lookup 16 subtable" six.thou
Substitution2: "Single Substitution lookup 15 subtable" six.hund
Substitution2: "Single Substitution lookup 14 subtable" six.ten
EndChar

StartChar: seven
Encoding: 12 55 59
Width: 320
Flags: HW
AnchorPoint: "Diacritic_left" 80 280 basechar 0
AnchorPoint: "Extension_up" 240 280 basechar 0
AnchorPoint: "Extension_down" 80 0 basechar 0
LayerCount: 2
Fore
SplineSet
80 0 m 0
 80 80 120 180 240 140 c 1
 240 280 l 1025
EndSplineSet
Substitution2: "Single Substitution lookup 16 subtable" seven.thou
Substitution2: "Single Substitution lookup 15 subtable" seven.hund
Substitution2: "Single Substitution lookup 14 subtable" seven.ten
EndChar

StartChar: eight
Encoding: 13 56 60
Width: 320
Flags: HW
AnchorPoint: "Diacritic_left" 80 280 basechar 0
AnchorPoint: "Extension_up" 240 280 basechar 0
AnchorPoint: "Extension_down" 80 0 basechar 0
LayerCount: 2
Fore
SplineSet
80 0 m 0
 80 80 160 140 240 140 c 1
 80 140 l 1
 160 140 240 200 240 280 c 1024
EndSplineSet
Substitution2: "Single Substitution lookup 16 subtable" eight.thou
Substitution2: "Single Substitution lookup 15 subtable" eight.hund
Substitution2: "Single Substitution lookup 14 subtable" eight.ten
EndChar

StartChar: nine
Encoding: 14 57 61
Width: 320
Flags: HW
HStem: -222 84G<240 277> -12 80G<375 411>
VStem: 240 37<-185 -148> 375 37<-49 31>
AnchorPoint: "Diacritic_left" 80 280 basechar 0
AnchorPoint: "Extension_up" 240 280 basechar 0
AnchorPoint: "Extension_down" 80 0 basechar 0
LayerCount: 2
Fore
SplineSet
80 0 m 0
 80 120 160 140 180 120 c 1
 120 120 120 0 180 0 c 0
 240 0 240 60 240 140 c 2
 240 280 l 1025
EndSplineSet
Substitution2: "Single Substitution lookup 16 subtable" nine.thou
Substitution2: "Single Substitution lookup 15 subtable" nine.hund
Substitution2: "Single Substitution lookup 14 subtable" nine.ten
EndChar

StartChar: b.flip
Encoding: 110 -1 62
Width: 320
Flags: HW
AnchorPoint: "Diacritic_left" 40 140 basechar 0
AnchorPoint: "Diacritic_right" 280 140 basechar 0
AnchorPoint: "Diacritic_up" 160 360 basechar 0
AnchorPoint: "Diacritic_down" 160 -60 basechar 0
AnchorPoint: "Extension_up" 160 280 basechar 0
AnchorPoint: "Extension_down" 60 0 basechar 0
LayerCount: 2
Fore
SplineSet
60 0 m 1
 260 0 l 1
 260 80 200 160 120 120 c 1
 160 80 l 1
 160 280 l 1025
EndSplineSet
Ligature2: "FlipCores subtable" b quotesingle
LCarets2: 1 320
EndChar

StartChar: c.flip
Encoding: 111 -1 63
Width: 320
Flags: HW
AnchorPoint: "Diacritic_left" 120 140 basechar 0
AnchorPoint: "Diacritic_right" 320 140 basechar 0
AnchorPoint: "Diacritic_up" 160 360 basechar 0
AnchorPoint: "Diacritic_down" 160 -60 basechar 0
AnchorPoint: "Extension_down" 260 0 basechar 0
AnchorPoint: "Extension_up" 60 280 basechar 0
LayerCount: 2
Fore
SplineSet
260 0 m 5
 260 280 l 5
 60 280 l 1029
EndSplineSet
Ligature2: "FlipCores subtable" c quotesingle
LCarets2: 1 320
EndChar

StartChar: d.flip
Encoding: 112 -1 64
Width: 320
Flags: HW
AnchorPoint: "Diacritic_right" 320 140 basechar 0
AnchorPoint: "Diacritic_left" 120 140 basechar 0
AnchorPoint: "Diacritic_up" 160 360 basechar 0
AnchorPoint: "Diacritic_down" 160 -60 basechar 0
AnchorPoint: "Extension_down" 60 0 basechar 0
AnchorPoint: "Extension_up" 220 280 basechar 0
LayerCount: 2
Fore
SplineSet
60 0 m 1
 260 0 l 1
 260 140 l 1
 220 100 l 1
 220 280 l 1025
EndSplineSet
Ligature2: "FlipCores subtable" d quotesingle
LCarets2: 1 320
EndChar

StartChar: f.flip
Encoding: 113 -1 65
Width: 320
Flags: HW
AnchorPoint: "Diacritic_right" 300 140 basechar 0
AnchorPoint: "Diacritic_left" 70 140 basechar 0
AnchorPoint: "Diacritic_up" 160 360 basechar 0
AnchorPoint: "Diacritic_down" 160 -60 basechar 0
AnchorPoint: "Extension_down" 60 0 basechar 0
AnchorPoint: "Extension_up" 140 280 basechar 0
LayerCount: 2
Fore
SplineSet
60 0 m 0
 220 0 260 20 260 60 c 0
 260 140 140 120 140 120 c 1
 140 280 l 1025
EndSplineSet
Ligature2: "FlipCores subtable" f quotesingle
LCarets2: 1 320
EndChar

StartChar: g.flip
Encoding: 114 -1 66
Width: 320
Flags: HW
HStem: 440 84G<-126 -31> 244 40<-111 97>
AnchorPoint: "Diacritic_right" 320 140 basechar 0
AnchorPoint: "Diacritic_left" 40 140 basechar 0
AnchorPoint: "Diacritic_up" 160 360 basechar 0
AnchorPoint: "Diacritic_down" 160 -60 basechar 0
AnchorPoint: "Extension_down" 40 0 basechar 0
AnchorPoint: "Extension_up" 80 280 basechar 0
LayerCount: 2
Fore
SplineSet
40 0 m 1
 280 0 l 1
 280 140 180 140 180 140 c 1
 180 123 167 110 150 110 c 0
 70 110 80 280 80 280 c 1024
EndSplineSet
Ligature2: "FlipCores subtable" g quotesingle
LCarets2: 1 320
EndChar

StartChar: h.flip
Encoding: 115 -1 67
Width: 320
Flags: HW
AnchorPoint: "Diacritic_right" 300 140 basechar 0
AnchorPoint: "Diacritic_left" 40 140 basechar 0
AnchorPoint: "Diacritic_up" 160 360 basechar 0
AnchorPoint: "Diacritic_down" 160 -60 basechar 0
AnchorPoint: "Extension_down" 240 0 basechar 0
AnchorPoint: "Extension_up" 120 280 basechar 0
LayerCount: 2
Fore
SplineSet
240 0 m 1
 240 160 l 1
 80 160 l 1
 120 120 l 1
 120 280 l 1025
EndSplineSet
Ligature2: "FlipCores subtable" h quotesingle
LCarets2: 1 320
EndChar

StartChar: j.flip
Encoding: 116 -1 68
Width: 320
Flags: HW
AnchorPoint: "Diacritic_right" 320 140 basechar 0
AnchorPoint: "Diacritic_left" 120 140 basechar 0
AnchorPoint: "Diacritic_up" 160 360 basechar 0
AnchorPoint: "Diacritic_down" 160 -60 basechar 0
AnchorPoint: "Extension_down" 60 0 basechar 0
AnchorPoint: "Extension_up" 260 280 basechar 0
LayerCount: 2
Fore
SplineSet
60 0 m 0
 460 0 60 280 260 280 c 1
 60 280 l 1025
EndSplineSet
Ligature2: "FlipCores subtable" j quotesingle
LCarets2: 1 320
EndChar

StartChar: k.flip
Encoding: 117 -1 69
Width: 320
Flags: HW
AnchorPoint: "Diacritic_right" 320 140 basechar 0
AnchorPoint: "Diacritic_left" 120 140 basechar 0
AnchorPoint: "Diacritic_up" 160 360 basechar 0
AnchorPoint: "Diacritic_down" 160 -60 basechar 0
AnchorPoint: "Extension_down" 40 0 basechar 0
AnchorPoint: "Extension_up" 120 280 basechar 0
LayerCount: 2
Fore
SplineSet
40 0 m 1
 280 0 l 1
 320 200 200 280 120 280 c 1024
EndSplineSet
Ligature2: "FlipCores subtable" k quotesingle
LCarets2: 1 320
EndChar

StartChar: l.flip
Encoding: 118 -1 70
Width: 320
Flags: HW
AnchorPoint: "Diacritic_right" 320 140 basechar 0
AnchorPoint: "Diacritic_left" 120 140 basechar 0
AnchorPoint: "Diacritic_up" 160 360 basechar 0
AnchorPoint: "Diacritic_down" 160 -60 basechar 0
AnchorPoint: "Extension_down" 260 0 basechar 0
AnchorPoint: "Extension_up" 60 280 basechar 0
LayerCount: 2
Fore
SplineSet
260 0 m 1
 260 140 l 1
 20 140 260 280 260 280 c 1
 60 280 l 1025
EndSplineSet
Ligature2: "FlipCores subtable" l quotesingle
LCarets2: 1 320
EndChar

StartChar: m.flip
Encoding: 119 -1 71
Width: 320
Flags: HW
AnchorPoint: "Diacritic_right" 280 140 basechar 0
AnchorPoint: "Diacritic_left" 80 140 basechar 0
AnchorPoint: "Diacritic_up" 160 360 basechar 0
AnchorPoint: "Diacritic_down" 160 -60 basechar 0
AnchorPoint: "Extension_down" 230 0 basechar 0
AnchorPoint: "Extension_up" 90 280 basechar 0
LayerCount: 2
Fore
SplineSet
230 0 m 1
 230 140 l 1
 90 140 90 240 90 280 c 1024
EndSplineSet
Ligature2: "FlipCores subtable" m quotesingle
LCarets2: 1 320
EndChar

StartChar: n.flip
Encoding: 120 -1 72
Width: 320
Flags: HW
AnchorPoint: "Diacritic_right" 290 140 basechar 0
AnchorPoint: "Diacritic_left" 70 140 basechar 0
AnchorPoint: "Diacritic_down" 160 -60 basechar 0
AnchorPoint: "Diacritic_up" 160 360 basechar 0
AnchorPoint: "Extension_down" 230 0 basechar 0
AnchorPoint: "Extension_up" 90 280 basechar 0
LayerCount: 2
Fore
SplineSet
230 0 m 1
 230 120 l 2
 230 142 212 160 190 160 c 1
 190 138 177 120 160 120 c 0
 100 120 90 200 90 280 c 1024
EndSplineSet
Ligature2: "FlipCores subtable" n quotesingle
LCarets2: 1 320
EndChar

StartChar: p.flip
Encoding: 121 -1 73
Width: 320
Flags: HW
AnchorPoint: "Diacritic_right" 270 140 basechar 0
AnchorPoint: "Diacritic_left" 70 140 basechar 0
AnchorPoint: "Diacritic_down" 160 -60 basechar 0
AnchorPoint: "Diacritic_up" 160 360 basechar 0
AnchorPoint: "Extension_down" 60 0 basechar 0
AnchorPoint: "Extension_up" 140 280 basechar 0
LayerCount: 2
Fore
SplineSet
60 0 m 1
 260 0 l 1
 260 80 220 120 140 120 c 1
 140 280 l 1025
EndSplineSet
Ligature2: "FlipCores subtable" p quotesingle
LCarets2: 1 320
EndChar

StartChar: r.flip
Encoding: 122 -1 74
Width: 320
Flags: HW
AnchorPoint: "Diacritic_right" 260 140 basechar 0
AnchorPoint: "Diacritic_left" 60 140 basechar 0
AnchorPoint: "Diacritic_down" 160 -60 basechar 0
AnchorPoint: "Diacritic_up" 160 360 basechar 0
AnchorPoint: "Extension_down" 260 0 basechar 0
AnchorPoint: "Extension_up" 60 280 basechar 0
LayerCount: 2
Fore
SplineSet
260 0 m 0
 100 0 100 200 260 280 c 1
 60 280 l 1025
EndSplineSet
Ligature2: "FlipCores subtable" r quotesingle
LCarets2: 1 320
EndChar

StartChar: s.flip
Encoding: 123 -1 75
Width: 320
Flags: HW
AnchorPoint: "Diacritic_right" 320 140 basechar 0
AnchorPoint: "Diacritic_left" 70 140 basechar 0
AnchorPoint: "Diacritic_down" 160 -60 basechar 0
AnchorPoint: "Diacritic_up" 160 360 basechar 0
AnchorPoint: "Extension_down" 60 0 basechar 0
AnchorPoint: "Extension_up" 100 280 basechar 0
LayerCount: 2
Fore
SplineSet
60 0 m 0
 100 220 260 80 260 80 c 1
 260 260 140 280 100 280 c 1024
EndSplineSet
Ligature2: "FlipCores subtable" s quotesingle
LCarets2: 1 320
EndChar

StartChar: t.flip
Encoding: 124 -1 76
Width: 320
Flags: HW
AnchorPoint: "Diacritic_right" 320 140 basechar 0
AnchorPoint: "Diacritic_left" 120 140 basechar 0
AnchorPoint: "Diacritic_down" 160 -60 basechar 0
AnchorPoint: "Diacritic_up" 160 360 basechar 0
AnchorPoint: "Extension_down" 60 0 basechar 0
AnchorPoint: "Extension_up" 260 280 basechar 0
LayerCount: 2
Fore
SplineSet
60 0 m 1
 260 0 l 1
 260 280 l 1025
EndSplineSet
Ligature2: "FlipCores subtable" t quotesingle
LCarets2: 1 320
EndChar

StartChar: v.flip
Encoding: 125 -1 77
Width: 320
Flags: HW
HStem: 440 84G<-20 20> 344 40<20 49> 244 40<-80 80>
VStem: 80 40<284 374> -20 40<384 484>
AnchorPoint: "Diacritic_right" 280 140 basechar 0
AnchorPoint: "Diacritic_left" 60 140 basechar 0
AnchorPoint: "Diacritic_down" 160 -60 basechar 0
AnchorPoint: "Diacritic_up" 160 360 basechar 0
AnchorPoint: "Extension_down" 60 0 basechar 0
AnchorPoint: "Extension_up" 260 280 basechar 0
LayerCount: 2
Fore
SplineSet
60 0 m 0
 180 0 190 60 190 160 c 1
 230 112 l 1
 -10 112 148 280 260 280 c 1024
EndSplineSet
Ligature2: "FlipCores subtable" v quotesingle
LCarets2: 1 320
EndChar

StartChar: x.flip
Encoding: 126 -1 78
Width: 320
Flags: HW
HStem: 440 84G<-59 51> 244 40<-111 91>
AnchorPoint: "Diacritic_right" 310 140 basechar 0
AnchorPoint: "Diacritic_left" 70 140 basechar 0
AnchorPoint: "Diacritic_down" 160 -60 basechar 0
AnchorPoint: "Diacritic_up" 160 360 basechar 0
AnchorPoint: "Extension_down" 40 0 basechar 0
AnchorPoint: "Extension_up" 40 280 basechar 0
LayerCount: 2
Fore
SplineSet
40 0 m 1
 280 0 l 1
 280 140 220 140 160 140 c 1
 160 280 100 280 40 280 c 1024
EndSplineSet
Ligature2: "FlipCores subtable" x quotesingle
LCarets2: 1 320
EndChar

StartChar: z.flip
Encoding: 127 -1 79
Width: 320
Flags: HW
AnchorPoint: "Diacritic_right" 320 140 basechar 0
AnchorPoint: "Diacritic_left" 30 140 basechar 0
AnchorPoint: "Diacritic_down" 160 -60 basechar 0
AnchorPoint: "Diacritic_up" 160 360 basechar 0
AnchorPoint: "Extension_down" 240 0 basechar 0
AnchorPoint: "Extension_up" 80 280 basechar 0
LayerCount: 2
Fore
SplineSet
240 0 m 0
 80 0 80 140 80 140 c 1
 280 140 l 1
 240 100 l 1
 240 260 140 280 80 280 c 1024
EndSplineSet
Ligature2: "FlipCores subtable" z quotesingle
LCarets2: 1 320
EndChar

StartChar: ccedilla.flip
Encoding: 128 -1 80
Width: 320
Flags: HW
AnchorPoint: "Diacritic_right" 310 140 basechar 0
AnchorPoint: "Diacritic_left" 70 140 basechar 0
AnchorPoint: "Diacritic_down" 160 -60 basechar 0
AnchorPoint: "Diacritic_up" 160 360 basechar 0
AnchorPoint: "Extension_down" 60 0 basechar 0
AnchorPoint: "Extension_up" 140 280 basechar 0
LayerCount: 2
Fore
SplineSet
60 0 m 1
 230 0 l 1
 230 140 110 140 110 140 c 1
 260 140 l 1
 260 280 140 280 140 280 c 1024
EndSplineSet
Ligature2: "FlipCores subtable" ccedilla quotesingle
LCarets2: 1 320
EndChar

StartChar: ccaron.flip
Encoding: 129 -1 81
Width: 320
Flags: HW
AnchorPoint: "Diacritic_right" 300 140 basechar 0
AnchorPoint: "Diacritic_left" 100 140 basechar 0
AnchorPoint: "Diacritic_down" 160 -60 basechar 0
AnchorPoint: "Diacritic_up" 160 360 basechar 0
AnchorPoint: "Extension_down" 78 0 basechar 0
AnchorPoint: "Extension_up" 78 280 basechar 0
LayerCount: 2
Fore
SplineSet
78 0 m 0
 298 0 298 280 78 280 c 1024
EndSplineSet
Ligature2: "FlipCores subtable" ccaron quotesingle
LCarets2: 1 320
EndChar

StartChar: lcedilla.flip
Encoding: 130 -1 82
Width: 320
Flags: HW
HStem: 440 84G<-85 25> 364 40<14 45> 244 80G<45 85> 244 80G<45 85>
VStem: 45 40<284 364>
AnchorPoint: "Diacritic_right" 310 140 basechar 0
AnchorPoint: "Diacritic_left" 60 140 basechar 0
AnchorPoint: "Diacritic_down" 160 -60 basechar 0
AnchorPoint: "Diacritic_up" 160 360 basechar 0
AnchorPoint: "Extension_down" 260 0 basechar 0
AnchorPoint: "Extension_up" 60 280 basechar 0
LayerCount: 2
Fore
SplineSet
260 0 m 0
 260 160 220 164 140 160 c 1
 180 120 l 1
 188 280 140 280 60 280 c 1024
EndSplineSet
Ligature2: "FlipCores subtable" lcedilla quotesingle
LCarets2: 1 320
EndChar

StartChar: ncaron.flip
Encoding: 131 -1 83
Width: 320
Flags: HW
AnchorPoint: "Diacritic_right" 280 140 basechar 0
AnchorPoint: "Diacritic_left" 80 140 basechar 0
AnchorPoint: "Diacritic_down" 160 -60 basechar 0
AnchorPoint: "Diacritic_up" 160 360 basechar 0
AnchorPoint: "Extension_down" 200 0 basechar 0
AnchorPoint: "Extension_up" 80 280 basechar 0
LayerCount: 2
Fore
SplineSet
200 0 m 1
 200 180 l 1
 240 140 l 1
 80 124 80 280 80 280 c 1024
EndSplineSet
Ligature2: "FlipCores subtable" ncaron quotesingle
LCarets2: 1 320
EndChar

StartChar: rcaron.flip
Encoding: 132 -1 84
Width: 320
Flags: HW
AnchorPoint: "Diacritic_right" 280 140 basechar 0
AnchorPoint: "Diacritic_left" 50 140 basechar 0
AnchorPoint: "Diacritic_down" 160 -60 basechar 0
AnchorPoint: "Diacritic_up" 160 360 basechar 0
AnchorPoint: "Extension_down" 260 0 basechar 0
AnchorPoint: "Extension_up" 60 280 basechar 0
LayerCount: 2
Fore
SplineSet
260 0 m 0
 140 0 130 60 130 160 c 1
 90 112 l 1
 330 112 172 280 60 280 c 1024
EndSplineSet
Ligature2: "FlipCores subtable" rcaron quotesingle
LCarets2: 1 320
EndChar

StartChar: scaron.flip
Encoding: 133 -1 85
Width: 320
Flags: HW
AnchorPoint: "Diacritic_right" 260 140 basechar 0
AnchorPoint: "Diacritic_left" 60 140 basechar 0
AnchorPoint: "Diacritic_down" 160 -60 basechar 0
AnchorPoint: "Diacritic_up" 160 360 basechar 0
AnchorPoint: "Extension_down" 140 0 basechar 0
AnchorPoint: "Extension_up" 60 280 basechar 0
LayerCount: 2
Fore
SplineSet
60 280 m 0
 220 280 260 260 260 220 c 0
 260 140 140 160 140 160 c 1
 140 0 l 1025
EndSplineSet
Ligature2: "FlipCores subtable" scaron quotesingle
LCarets2: 1 320
EndChar

StartChar: tcedilla.flip
Encoding: 134 -1 86
Width: 320
Flags: HW
AnchorPoint: "Diacritic_right" 320 140 basechar 0
AnchorPoint: "Diacritic_left" 100 140 basechar 0
AnchorPoint: "Diacritic_down" 160 -60 basechar 0
AnchorPoint: "Diacritic_up" 160 360 basechar 0
AnchorPoint: "Extension_down" 60 0 basechar 0
AnchorPoint: "Extension_up" 120 280 basechar 0
LayerCount: 2
Fore
SplineSet
60 0 m 0
 260 0 260 100 260 140 c 1
 120 140 120 240 120 280 c 1024
EndSplineSet
Ligature2: "FlipCores subtable" tcedilla quotesingle
LCarets2: 1 320
EndChar

StartChar: zdotaccent.flip
Encoding: 135 -1 87
Width: 320
Flags: HW
AnchorPoint: "Diacritic_right" 290 140 basechar 0
AnchorPoint: "Diacritic_left" 90 140 basechar 0
AnchorPoint: "Diacritic_down" 160 -60 basechar 0
AnchorPoint: "Diacritic_up" 160 360 basechar 0
AnchorPoint: "Extension_down" 200 0 basechar 0
AnchorPoint: "Extension_up" 60 280 basechar 0
LayerCount: 2
Fore
SplineSet
200 0 m 1
 200 232 l 2
 200 258 227 280 260 280 c 1
 60 280 l 1025
EndSplineSet
Ligature2: "FlipCores subtable" zdotaccent quotesingle
LCarets2: 1 320
EndChar

StartChar: zcaron.flip
Encoding: 136 -1 88
Width: 320
Flags: HW
AnchorPoint: "Diacritic_right" 280 140 basechar 0
AnchorPoint: "Diacritic_left" 50 140 basechar 0
AnchorPoint: "Diacritic_down" 160 -60 basechar 0
AnchorPoint: "Diacritic_up" 160 360 basechar 0
AnchorPoint: "Extension_down" 220 0 basechar 0
AnchorPoint: "Extension_up" 100 280 basechar 0
LayerCount: 2
Fore
SplineSet
220 0 m 0
 220 80 180 140 100 140 c 1
 260 140 260 280 100 280 c 1024
EndSplineSet
Ligature2: "FlipCores subtable" zcaron quotesingle
LCarets2: 1 320
EndChar

StartChar: Sigma.flip
Encoding: 137 -1 89
Width: 320
Flags: HW
AnchorPoint: "Diacritic_down" 160 -60 basechar 0
AnchorPoint: "Diacritic_up" 160 360 basechar 0
AnchorPoint: "Extension_down" 70 0 basechar 0
AnchorPoint: "Extension_up" 50 280 basechar 0
AnchorPoint: "Diacritic_right" 260 140 basechar 0
AnchorPoint: "Diacritic_left" 100 220 basechar 0
LayerCount: 2
Fore
SplineSet
50 280 m 1
 270 280 l 1
 150 140 l 1
 217 132 267 104 267 70 c 0
 267 30 197 -2 110 -2 c 0
 96 -2 83 -2 70 0 c 1024
EndSplineSet
Ligature2: "FlipCores subtable" Sigma quotesingle
LCarets2: 1 320
EndChar

StartChar: ddotbelow.flip
Encoding: 138 -1 90
Width: 320
Flags: HW
AnchorPoint: "Diacritic_right" 320 140 basechar 0
AnchorPoint: "Diacritic_left" 90 140 basechar 0
AnchorPoint: "Diacritic_down" 160 -60 basechar 0
AnchorPoint: "Diacritic_up" 160 360 basechar 0
AnchorPoint: "Extension_down" 40 0 basechar 0
AnchorPoint: "Extension_up" 120 280 basechar 0
LayerCount: 2
Fore
SplineSet
40 0 m 0
 240 0 240 80 240 160 c 1
 280 120 l 1
 120 80 120 280 120 280 c 1024
EndSplineSet
Ligature2: "FlipCores subtable" ddotbelow quotesingle
LCarets2: 1 320
EndChar

StartChar: a
Encoding: 27 97 91
Width: 320
Flags: HW
AnchorPoint: "Diacritic_mkmk" 157 140 mark 0
LayerCount: 2
Fore
SplineSet
160 140 m 0
 160 142 159 143 157 143 c 0
 155 143 154 142 154 140 c 0
 154 138 155 137 157 137 c 0
 159 137 160 138 160 140 c 1024
EndSplineSet
EndChar

StartChar: e
Encoding: 31 101 92
Width: 320
Flags: HW
AnchorPoint: "Diacritic_mkmk" 190 140 mark 0
LayerCount: 2
Fore
SplineSet
160 140 m 1
 220 140 l 2
 226 140 230 136 230 130 c 0
 230 124 226 120 220 120 c 1024
EndSplineSet
EndChar

StartChar: i
Encoding: 35 105 93
Width: 320
Flags: HW
AnchorPoint: "Diacritic_mkmk" 200 100 mark 0
LayerCount: 2
Fore
SplineSet
160 140 m 1
 240 60 l 1025
EndSplineSet
EndChar

StartChar: o
Encoding: 41 111 94
Width: 320
Flags: HW
HStem: -88 30<247 268>
VStem: 217 103
AnchorPoint: "Diacritic_mkmk" 140 170 mark 0
LayerCount: 2
Fore
SplineSet
160 140 m 0
 190 170 175 209 115 200 c 1024
EndSplineSet
EndChar

StartChar: u
Encoding: 46 117 95
Width: 320
Flags: HW
AnchorPoint: "Diacritic_mkmk" 160 110 mark 0
LayerCount: 2
Fore
SplineSet
160 140 m 1
 160 80 l 2
 160 74 164 70 170 70 c 0
 176 70 180 74 180 80 c 1024
EndSplineSet
EndChar

StartChar: adieresis
Encoding: 56 228 96
Width: 320
Flags: HW
AnchorPoint: "Diacritic_mkmk" 200 140 mark 0
LayerCount: 2
Fore
SplineSet
160 140 m 1
 240 140 l 1025
EndSplineSet
EndChar

StartChar: edieresis
Encoding: 58 235 97
Width: 320
Flags: HW
AnchorPoint: "Diacritic_mkmk" 130 140 mark 0
LayerCount: 2
Fore
SplineSet
160 140 m 1
 100 140 l 2
 94 140 90 144 90 150 c 0
 90 156 94 160 100 160 c 1024
EndSplineSet
EndChar

StartChar: idieresis
Encoding: 59 239 98
Width: 320
Flags: HW
AnchorPoint: "Diacritic_mkmk" 160 100 mark 0
LayerCount: 2
Fore
SplineSet
160 140 m 1
 160 60 l 1025
EndSplineSet
EndChar

StartChar: odieresis
Encoding: 62 246 99
Width: 320
Flags: HW
AnchorPoint: "Diacritic_mkmk" 180 110 mark 0
LayerCount: 2
Fore
SplineSet
160 140 m 0
 130 110 145 71 205 80 c 1024
EndSplineSet
EndChar

StartChar: udieresis
Encoding: 63 252 100
Width: 320
Flags: HW
AnchorPoint: "Diacritic_mkmk" 160 170 mark 0
LayerCount: 2
Fore
SplineSet
160 140 m 1
 160 200 l 2
 160 206 156 210 150 210 c 0
 144 210 140 206 140 200 c 1024
EndSplineSet
EndChar

StartChar: ohungarumlaut
Encoding: 67 337 101
Width: 320
Flags: HW
AnchorPoint: "Diacritic_mkmk" 180 110 mark 0
LayerCount: 2
Fore
SplineSet
160 140 m 0
 130 110 145 71 205 80 c 1
 165 20 l 1025
EndSplineSet
EndChar

StartChar: ograve
Encoding: 60 242 103
Width: 320
Flags: HW
AnchorPoint: "Diacritic_mkmk" 120 130 mark 0
LayerCount: 2
Fore
SplineSet
160 140 m 0
 151 128 136 120 120 120 c 0
 104 120 89 128 80 140 c 1024
EndSplineSet
EndChar

StartChar: oacute
Encoding: 61 243 104
Width: 320
Flags: HW
AnchorPoint: "Diacritic_mkmk" 120 150 mark 0
LayerCount: 2
Fore
SplineSet
160 140 m 0
 151 152 136 160 120 160 c 0
 104 160 89 152 80 140 c 1024
EndSplineSet
EndChar

StartChar: a_ograve
Encoding: 139 -1 105
Width: 320
Flags: HW
AnchorPoint: "Diacritic_mkmk" 120 130 mark 0
LayerCount: 2
Fore
SplineSet
160 140 m 0
 151 128 136 120 120 120 c 0
 104 120 89 128 80 140 c 1024
117 157 m 0
 117 155 118 154 120 154 c 0
 122 154 123 155 123 157 c 0
 123 159 122 160 120 160 c 0
 118 160 117 159 117 157 c 1024
EndSplineSet
Ligature2: "VowelLigature subtable" ograve a
Ligature2: "VowelLigature subtable" a ograve
LCarets2: 1 160
EndChar

StartChar: a_oacute
Encoding: 140 -1 106
Width: 320
Flags: HW
AnchorPoint: "Diacritic_mkmk" 200 150 mark 0
LayerCount: 2
Fore
SplineSet
160 140 m 0
 169 152 184 160 200 160 c 0
 216 160 231 152 240 140 c 1024
203 123 m 0
 203 125 202 126 200 126 c 0
 198 126 197 125 197 123 c 0
 197 121 198 120 200 120 c 0
 202 120 203 121 203 123 c 1024
EndSplineSet
Ligature2: "VowelLigature subtable" oacute a
Ligature2: "VowelLigature subtable" a oacute
LCarets2: 1 160
EndChar

StartChar: one.thou
Encoding: 141 -1 107
Width: 320
Flags: HW
AnchorPoint: "Diacritic_mkmk" 0 384 mark 0
LayerCount: 2
Fore
SplineSet
0 384 m 1
 80 384 l 1025
EndSplineSet
EndChar

StartChar: two.thou
Encoding: 142 -1 108
Width: 320
Flags: HW
AnchorPoint: "Diacritic_mkmk" 0 384 mark 0
LayerCount: 2
Fore
SplineSet
0 384 m 0
 0 336 60 336 60 384 c 1024
EndSplineSet
EndChar

StartChar: three.thou
Encoding: 143 -1 109
Width: 320
Flags: HW
AnchorPoint: "Diacritic_mkmk" 0 384 mark 0
LayerCount: 2
Fore
SplineSet
0 384 m 1
 60 324 l 1025
EndSplineSet
EndChar

StartChar: four.thou
Encoding: 144 -1 110
Width: 320
Flags: HW
AnchorPoint: "Diacritic_mkmk" 0 384 mark 0
LayerCount: 2
Fore
SplineSet
0 384 m 1
 -60 324 l 1025
EndSplineSet
EndChar

StartChar: five.thou
Encoding: 145 -1 111
Width: 320
Flags: HW
AnchorPoint: "Diacritic_mkmk" 0 384 mark 0
LayerCount: 2
Fore
SplineSet
0 384 m 1
 -60 384 l 1
 -20 344 l 1025
EndSplineSet
EndChar

StartChar: six.thou
Encoding: 146 -1 112
Width: 320
Flags: HW
AnchorPoint: "Diacritic_mkmk" 0 384 mark 0
LayerCount: 2
Fore
SplineSet
0 384 m 1
 60 384 l 1
 20 344 l 1025
EndSplineSet
EndChar

StartChar: seven.thou
Encoding: 147 -1 113
Width: 320
Flags: HW
AnchorPoint: "Diacritic_mkmk" 0 384 mark 0
LayerCount: 2
Fore
SplineSet
0 384 m 0
 48 384 48 324 0 324 c 1024
EndSplineSet
EndChar

StartChar: eight.thou
Encoding: 148 -1 114
Width: 320
Flags: HW
AnchorPoint: "Diacritic_mkmk" 0 384 mark 0
LayerCount: 2
Fore
SplineSet
0 384 m 0
 -48 384 -48 324 0 324 c 1024
EndSplineSet
EndChar

StartChar: nine.thou
Encoding: 149 -1 115
Width: 320
Flags: HW
AnchorPoint: "Diacritic_mkmk" 0 384 mark 0
LayerCount: 2
Fore
SplineSet
0 384 m 0
 0 432 60 432 60 384 c 1024
EndSplineSet
EndChar

StartChar: backslash.flip
Encoding: 152 -1 123
Width: 320
Flags: HW
AnchorPoint: "Diacritic_right" 260 240 basechar 0
AnchorPoint: "Diacritic_left" 60 80 basechar 0
AnchorPoint: "Extension_down" 300 0 basechar 0
AnchorPoint: "Extension_up" 20 280 basechar 0
AnchorPoint: "Diacritic_up" 160 360 basechar 0
AnchorPoint: "Diacritic_down" 160 -60 basechar 0
LayerCount: 2
Fore
SplineSet
20 280 m 0
 180 280 300 160 300 0 c 1024
EndSplineSet
Ligature2: "FlipCores subtable" backslash quotesingle
LCarets2: 1 0
EndChar

StartChar: backslash
Encoding: 24 92 129
Width: 320
Flags: HW
AnchorPoint: "Diacritic_up" 160 360 basechar 0
AnchorPoint: "Diacritic_down" 160 -60 basechar 0
AnchorPoint: "Extension_down" 300 0 basechar 0
AnchorPoint: "Extension_up" 20 280 basechar 0
AnchorPoint: "Diacritic_left" 0 80 basechar 0
AnchorPoint: "Diacritic_right" 260 240 basechar 0
LayerCount: 2
Fore
SplineSet
20 280 m 0
 20 120 140 0 300 0 c 1024
EndSplineSet
EndChar

StartChar: colon
Encoding: 15 58 131
Width: 320
Flags: HW
AnchorPoint: "Diacritic_right" 260 240 basechar 0
AnchorPoint: "Diacritic_left" 60 80 basechar 0
AnchorPoint: "Extension_down" 260 0 basechar 0
AnchorPoint: "Extension_up" 60 280 basechar 0
AnchorPoint: "Diacritic_up" 160 360 basechar 0
AnchorPoint: "Diacritic_down" 160 -60 basechar 0
LayerCount: 2
Fore
SplineSet
60 280 m 0
 129 280 180 211 180 120 c 1024
260 0 m 0
 191 0 140 69 140 160 c 1024
EndSplineSet
EndChar

StartChar: parenleft
Encoding: 3 40 136
Width: 320
Flags: HW
AnchorPoint: "Diacritic_right" 260 240 basechar 0
AnchorPoint: "Diacritic_left" 60 80 basechar 0
AnchorPoint: "Extension_down" 280 0 basechar 0
AnchorPoint: "Extension_up" 40 280 basechar 0
AnchorPoint: "Diacritic_up" 160 360 basechar 0
AnchorPoint: "Diacritic_down" 160 -60 basechar 0
LayerCount: 2
Fore
SplineSet
40 280 m 0
 160 280 160 200 160 140 c 1
 280 140 280 60 280 0 c 1024
EndSplineSet
Ligature2: "FlipCores subtable" parenright quotesingle
LCarets2: 1 160
EndChar

StartChar: parenright
Encoding: 4 41 137
Width: 320
Flags: HW
AnchorPoint: "Diacritic_right" 260 240 basechar 0
AnchorPoint: "Diacritic_left" 60 80 basechar 0
AnchorPoint: "Extension_down" 280 0 basechar 0
AnchorPoint: "Extension_up" 40 280 basechar 0
AnchorPoint: "Diacritic_up" 160 360 basechar 0
AnchorPoint: "Diacritic_down" 160 -60 basechar 0
LayerCount: 2
Fore
SplineSet
40 280 m 0
 40 140 100 140 160 140 c 1
 160 0 220 0 280 0 c 1024
EndSplineSet
Ligature2: "FlipCores subtable" parenleft quotesingle
LCarets2: 1 160
EndChar

StartChar: adieresis_i
Encoding: 156 -1 138
Width: 320
Flags: HW
AnchorPoint: "Diacritic_mkmk" 190 170 mark 0
LayerCount: 2
Fore
SplineSet
160 140 m 1
 240 140 l 1
 190 200 l 1025
EndSplineSet
Ligature2: "VowelLigature subtable" i adieresis
Ligature2: "VowelLigature subtable" adieresis i
LCarets2: 1 160
EndChar

StartChar: ellipses.vert
Encoding: 85 8942 140
Width: 320
Flags: HW
AnchorPoint: "Tertiary_mkmk" 160 220 mark 0
LayerCount: 2
Fore
SplineSet
160 140 m 1
 160 300 l 1025
EndSplineSet
Ligature2: "TertiaryLigature subtable" ellipses.vert a idieresis a
LCarets2: 3 160 160 160
EndChar

StartChar: equivalence
Encoding: 84 8801 147
Width: 320
Flags: HW
AnchorPoint: "Tertiary_down" 160 40 basechar 0
AnchorPoint: "Tertiary_up" 160 240 basechar 0
AnchorPoint: "Diacritic_up" 160 360 basechar 0
AnchorPoint: "Diacritic_down" 160 -60 basechar 0
LayerCount: 2
Fore
SplineSet
60 140 m 1
 260 140 l 1025
EndSplineSet
Ligature2: "TertiaryLigature subtable" equivalence a a
LCarets2: 2 160 160
EndChar

StartChar: ithk_valence.CNG
Encoding: 159 -1 148
Width: 320
Flags: HW
AnchorPoint: "Tertiary_up" 160 240 basechar 0
AnchorPoint: "Tertiary_down" 160 40 basechar 0
AnchorPoint: "Diacritic_up" 160 360 basechar 0
AnchorPoint: "Diacritic_down" 160 -60 basechar 0
LayerCount: 2
Fore
SplineSet
60 140 m 1
 214 140 l 1
 214 157 227 170 244 170 c 1
 224 130 260 110 260 110 c 1024
EndSplineSet
Ligature2: "TertiaryLigature subtable" equivalence a v
LCarets2: 2 160 160
EndChar

StartChar: ithk_valence.CPL
Encoding: 160 -1 149
Width: 320
Flags: HW
AnchorPoint: "Tertiary_down" 160 40 basechar 0
AnchorPoint: "Tertiary_up" 160 240 basechar 0
AnchorPoint: "Diacritic_up" 160 360 basechar 0
AnchorPoint: "Diacritic_down" 160 -60 basechar 0
LayerCount: 2
Fore
SplineSet
60 110 m 0
 60 127 73 140 90 140 c 2
 260 140 l 1025
EndSplineSet
Ligature2: "TertiaryLigature subtable" equivalence s a
LCarets2: 2 160 160
EndChar

StartChar: ithk_valence.CRO
Encoding: 161 -1 150
Width: 320
Flags: HW
AnchorPoint: "Tertiary_down" 160 40 basechar 0
AnchorPoint: "Tertiary_up" 160 240 basechar 0
AnchorPoint: "Diacritic_up" 160 360 basechar 0
AnchorPoint: "Diacritic_down" 160 -60 basechar 0
LayerCount: 2
Fore
SplineSet
60 170 m 0
 60 153 73 140 90 140 c 2
 260 140 l 1025
EndSplineSet
Ligature2: "TertiaryLigature subtable" equivalence z a
LCarets2: 2 160 160
EndChar

StartChar: ithk_valence.DEM
Encoding: 162 -1 151
Width: 320
Flags: HW
AnchorPoint: "Tertiary_down" 160 40 basechar 0
AnchorPoint: "Tertiary_up" 160 240 basechar 0
AnchorPoint: "Diacritic_up" 160 360 basechar 0
AnchorPoint: "Diacritic_down" 160 -60 basechar 0
LayerCount: 2
Fore
SplineSet
60 140 m 1
 220 140 l 1
 220 162 229 180 240 180 c 0
 251 180 260 162 260 140 c 0
 260 120 250 100 250 100 c 1024
EndSplineSet
Ligature2: "TertiaryLigature subtable" equivalence a f
LCarets2: 2 160 160
EndChar

StartChar: ithk_valence.DUP
Encoding: 163 -1 152
Width: 320
Flags: HW
AnchorPoint: "Tertiary_down" 160 40 basechar 0
AnchorPoint: "Tertiary_up" 160 240 basechar 0
AnchorPoint: "Diacritic_up" 160 360 basechar 0
AnchorPoint: "Diacritic_down" 160 -60 basechar 0
LayerCount: 2
Fore
SplineSet
60 140 m 1
 230 140 l 2
 247 140 260 153 260 170 c 1024
EndSplineSet
Ligature2: "TertiaryLigature subtable" equivalence a s
LCarets2: 2 160 160
EndChar

StartChar: ithk_valence.PRL
Encoding: 164 -1 153
Width: 320
Flags: HW
AnchorPoint: "Tertiary_down" 160 40 basechar 0
AnchorPoint: "Tertiary_up" 160 240 basechar 0
AnchorPoint: "Diacritic_up" 160 360 basechar 0
AnchorPoint: "Diacritic_down" 160 -60 basechar 0
LayerCount: 2
Fore
SplineSet
60 140 m 1
 230 140 l 2
 247 140 260 127 260 110 c 1024
EndSplineSet
Ligature2: "TertiaryLigature subtable" equivalence a z
LCarets2: 2 160 160
EndChar

StartChar: ithk_valence.PTI
Encoding: 165 -1 154
Width: 320
Flags: HW
AnchorPoint: "Tertiary_down" 160 40 basechar 0
AnchorPoint: "Tertiary_up" 160 240 basechar 0
AnchorPoint: "Diacritic_up" 160 360 basechar 0
AnchorPoint: "Diacritic_down" 160 -60 basechar 0
LayerCount: 2
Fore
SplineSet
60 110 m 1
 100 140 l 1
 220 140 l 1
 220 162 229 180 240 180 c 0
 251 180 260 162 260 140 c 0
 260 120 250 100 250 100 c 1024
EndSplineSet
Ligature2: "TertiaryLigature subtable" equivalence s f
LCarets2: 2 160 160
EndChar

StartChar: ithk_valence.RCP
Encoding: 166 -1 155
Width: 320
Flags: HW
AnchorPoint: "Tertiary_down" 160 40 basechar 0
AnchorPoint: "Tertiary_up" 160 240 basechar 0
AnchorPoint: "Diacritic_up" 160 360 basechar 0
AnchorPoint: "Diacritic_down" 160 -60 basechar 0
LayerCount: 2
Fore
SplineSet
60 170 m 0
 60 153 73 140 90 140 c 2
 230 140 l 2
 247 140 260 127 260 110 c 1024
EndSplineSet
Ligature2: "TertiaryLigature subtable" equivalence z z
LCarets2: 2 160 160
EndChar

StartChar: ithk_phase.FLC
Encoding: 167 -1 156
Width: 320
Flags: HW
AnchorPoint: "Tertiary_mkmk" 160 220 mark 0
LayerCount: 2
Fore
SplineSet
160 140 m 1
 100 200 l 1
 140 270 l 1025
EndSplineSet
Ligature2: "TertiaryLigature subtable" ellipses.vert a idieresis p
LCarets2: 3 160 160 160
EndChar

StartChar: ithk_phase.FRE
Encoding: 168 -1 157
Width: 320
Flags: HW
AnchorPoint: "Tertiary_mkmk" 160 220 mark 0
LayerCount: 2
Fore
SplineSet
160 140 m 1
 230 180 l 1025
160 140 m 1
 200 210 l 1
 150 260 l 1025
EndSplineSet
Ligature2: "TertiaryLigature subtable" ellipses.vert p idieresis s
LCarets2: 3 160 160 160
EndChar

StartChar: ithk_phase.FRG
Encoding: 169 -1 158
Width: 320
Flags: HW
AnchorPoint: "Tertiary_mkmk" 160 220 mark 0
LayerCount: 2
Fore
SplineSet
160 260 m 1
 90 220 l 1025
160 260 m 1
 120 190 l 1
 170 140 l 1025
EndSplineSet
Ligature2: "TertiaryLigature subtable" ellipses.vert s idieresis p
LCarets2: 3 160 160 160
EndChar

StartChar: ithk_phase.ITM
Encoding: 170 -1 159
Width: 320
Flags: HW
AnchorPoint: "Tertiary_mkmk" 120 220 mark 0
LayerCount: 2
Fore
SplineSet
160 140 m 0
 138 140 120 158 120 180 c 2
 120 260 l 2
 120 282 102 300 80 300 c 1024
EndSplineSet
Ligature2: "TertiaryLigature subtable" ellipses.vert s idieresis s
LCarets2: 3 160 160 160
EndChar

StartChar: ithk_phase.ITR
Encoding: 171 -1 160
Width: 320
Flags: HW
AnchorPoint: "Tertiary_mkmk" 160 220 mark 0
LayerCount: 2
Fore
SplineSet
160 140 m 1
 160 260 l 2
 160 282 142 300 120 300 c 1024
EndSplineSet
Ligature2: "TertiaryLigature subtable" ellipses.vert s idieresis a
LCarets2: 3 160 160 160
EndChar

StartChar: ithk_phase.RCT
Encoding: 172 -1 161
Width: 320
Flags: HW
AnchorPoint: "Tertiary_mkmk" 200 220 mark 0
LayerCount: 2
Fore
SplineSet
160 140 m 0
 182 140 200 158 200 180 c 2
 200 300 l 1025
EndSplineSet
Ligature2: "TertiaryLigature subtable" ellipses.vert a idieresis z
LCarets2: 3 160 160 160
EndChar

StartChar: ithk_phase.REP
Encoding: 173 -1 162
Width: 320
Flags: HW
AnchorPoint: "Tertiary_mkmk" 120 220 mark 0
LayerCount: 2
Fore
SplineSet
160 140 m 0
 138 140 120 158 120 180 c 2
 120 300 l 1025
EndSplineSet
Ligature2: "TertiaryLigature subtable" ellipses.vert a idieresis s
LCarets2: 3 160 160 160
EndChar

StartChar: ithk_phase.VAC
Encoding: 174 -1 163
Width: 320
Flags: HW
AnchorPoint: "Tertiary_mkmk" 160 220 mark 0
LayerCount: 2
Fore
SplineSet
160 140 m 1
 200 210 l 1
 140 270 l 1025
EndSplineSet
Ligature2: "TertiaryLigature subtable" ellipses.vert p idieresis a
LCarets2: 3 160 160 160
EndChar

StartChar: ithk_effect.oneben
Encoding: 175 -1 164
Width: 320
Flags: HW
AnchorPoint: "Tertiary_mkmk" 120 200 mark 0
LayerCount: 2
Fore
SplineSet
160 140 m 1
 80 260 l 1025
EndSplineSet
Ligature2: "TertiaryLigature subtable" ellipses.vert a i a
LCarets2: 3 160 160 160
EndChar

StartChar: ithk_effect.onedet
Encoding: 176 -1 165
Width: 320
Flags: HW
AnchorPoint: "Tertiary_mkmk" 90 200 mark 0
LayerCount: 2
Fore
SplineSet
160 140 m 1
 130 140 l 1
 50 260 l 1025
EndSplineSet
Ligature2: "TertiaryLigature subtable" ellipses.vert a i m
LCarets2: 3 160 160 160
EndChar

StartChar: ithk_effect.twoben
Encoding: 177 -1 166
Width: 320
Flags: HW
AnchorPoint: "Tertiary_mkmk" 120 200 mark 0
LayerCount: 2
Fore
SplineSet
160 140 m 1
 100 230 l 2
 76 266 60 238 60 238 c 1024
EndSplineSet
Ligature2: "TertiaryLigature subtable" ellipses.vert s i a
LCarets2: 3 160 160 160
EndChar

StartChar: ithk_effect.twodet
Encoding: 178 -1 167
Width: 320
Flags: HW
AnchorPoint: "Tertiary_mkmk" 120 200 mark 0
LayerCount: 2
Fore
SplineSet
160 140 m 1
 80 260 l 1
 50 260 l 1025
EndSplineSet
Ligature2: "TertiaryLigature subtable" ellipses.vert m i a
LCarets2: 3 160 160 160
EndChar

StartChar: ithk_effect.threeben
Encoding: 179 -1 168
Width: 320
Flags: HW
AnchorPoint: "Tertiary_mkmk" 200 188 mark 0
LayerCount: 2
Fore
SplineSet
160 248 m 1
 220 158 l 2
 244 122 260 150 260 150 c 1024
EndSplineSet
Ligature2: "TertiaryLigature subtable" ellipses.vert a i s
LCarets2: 3 160 160 160
EndChar

StartChar: ithk_effect.threedet
Encoding: 180 -1 169
Width: 320
Flags: HW
AnchorPoint: "Tertiary_mkmk" 90 200 mark 0
LayerCount: 2
Fore
SplineSet
160 140 m 1
 130 140 l 1
 50 260 l 1
 26 224 l 1025
EndSplineSet
Ligature2: "TertiaryLigature subtable" ellipses.vert s i m
LCarets2: 3 160 160 160
EndChar

StartChar: ithk_effect.slfben
Encoding: 181 -1 170
Width: 320
Flags: HW
AnchorPoint: "Tertiary_mkmk" 180 188 mark 0
LayerCount: 2
Fore
SplineSet
160 218 m 1
 200 158 l 2
 224 122 240 150 240 150 c 1024
160 218 m 0
 136 254 120 226 120 226 c 1024
EndSplineSet
Ligature2: "TertiaryLigature subtable" ellipses.vert s i s
LCarets2: 3 160 160 160
EndChar

StartChar: ithk_effect.slfdet
Encoding: 182 -1 171
Width: 320
Flags: HW
AnchorPoint: "Tertiary_mkmk" 200 210 mark 0
LayerCount: 2
Fore
SplineSet
160 270 m 1
 220 180 l 2
 240 152 212 140 212 140 c 1024
EndSplineSet
Ligature2: "TertiaryLigature subtable" ellipses.vert a i z
LCarets2: 3 160 160 160
EndChar

StartChar: ithk_effect.unk
Encoding: 183 -1 172
Width: 320
Flags: HW
AnchorPoint: "Tertiary_mkmk" 120 200 mark 0
LayerCount: 2
Fore
SplineSet
160 140 m 1
 100 230 l 2
 80 258 108 270 108 270 c 1024
EndSplineSet
Ligature2: "TertiaryLigature subtable" ellipses.vert z i a
LCarets2: 3 160 160 160
EndChar

StartChar: ddotbelow
Encoding: 78 7693 177
Width: 320
Flags: HW
AnchorPoint: "Diacritic_left" 10 140 basechar 0
AnchorPoint: "Diacritic_right" 250 140 basechar 0
AnchorPoint: "Diacritic_up" 160 360 basechar 0
AnchorPoint: "Diacritic_down" 160 -60 basechar 0
AnchorPoint: "Extension_up" 280 280 basechar 0
AnchorPoint: "Extension_down" 200 0 basechar 0
LayerCount: 2
Fore
SplineSet
280 280 m 0
 80 280 80 200 80 120 c 1
 40 160 l 1
 200 200 200 0 200 0 c 1024
EndSplineSet
Substitution2: "Single Substitution lookup 19 subtable" ddotbelow.ext.up
Substitution2: "Single Substitution lookup 18 subtable" ddotbelow.ext.down
EndChar

StartChar: ithk_aspect.ATP
Encoding: 184 -1 178
Width: 320
Flags: HW
AnchorPoint: "Tertiary_mkmk" 120 140 mark 0
LayerCount: 2
Fore
SplineSet
160 110 m 1
 180 140 l 1
 60 140 l 1
 60 220 140 220 140 220 c 1024
EndSplineSet
Ligature2: "TertiaryLigature subtable" ellipses.vert f adieresis z
LCarets2: 3 160 160 160
EndChar

StartChar: ithk_aspect.CCL
Encoding: 185 -1 179
Width: 320
Flags: HW
AnchorPoint: "Tertiary_mkmk" 220 140 mark 0
LayerCount: 2
Fore
SplineSet
160 180 m 0
 171 180 180 171 180 160 c 0
 180 149 171 140 160 140 c 1
 280 140 l 1025
EndSplineSet
Ligature2: "TertiaryLigature subtable" ellipses.vert g adieresis a
LCarets2: 3 160 160 160
EndChar

StartChar: ithk_aspect.CLM
Encoding: 186 -1 180
Width: 320
Flags: HW
AnchorPoint: "Tertiary_mkmk" 100 160 mark 0
LayerCount: 2
Fore
SplineSet
160 120 m 0
 149 120 140 129 140 140 c 0
 140 151 149 160 160 160 c 1
 40 160 l 1025
EndSplineSet
Ligature2: "TertiaryLigature subtable" ellipses.vert a adieresis g
LCarets2: 3 160 160 160
EndChar

StartChar: ithk_aspect.CNT
Encoding: 187 -1 181
Width: 320
Flags: HW
AnchorPoint: "Tertiary_mkmk" 90 220 mark 0
LayerCount: 2
Fore
SplineSet
160 250 m 1
 130 220 l 1
 30 220 l 1
 90 200 110 180 110 140 c 1024
EndSplineSet
Ligature2: "TertiaryLigature subtable" ellipses.vert ddotbelow adieresis s
LCarets2: 3 160 160 160
EndChar

StartChar: ithk_aspect.CSS
Encoding: 188 -1 182
Width: 320
Flags: HW
AnchorPoint: "Tertiary_mkmk" 100 220 mark 0
LayerCount: 2
Fore
SplineSet
160 220 m 1
 40 220 l 1
 40 140 120 140 120 140 c 1024
EndSplineSet
Ligature2: "TertiaryLigature subtable" ellipses.vert tcedilla adieresis a
LCarets2: 3 160 160 160
EndChar

StartChar: ithk_aspect.CUL
Encoding: 189 -1 183
Width: 320
Flags: HW
AnchorPoint: "Tertiary_mkmk" 180 140 mark 0
LayerCount: 2
Fore
SplineSet
160 200 m 0
 160 160 120 140 120 140 c 1
 240 140 l 1025
EndSplineSet
Ligature2: "TertiaryLigature subtable" ellipses.vert approxequal adieresis a
LCarets2: 3 160 160 160
EndChar

StartChar: ithk_aspect.DCL
Encoding: 190 -1 184
Width: 320
Flags: HW
AnchorPoint: "Tertiary_mkmk" 220 140 mark 0
LayerCount: 2
Fore
SplineSet
160 180 m 1
 200 180 l 1
 189 180 180 171 180 160 c 0
 180 149 189 140 200 140 c 2
 280 140 l 1025
EndSplineSet
Ligature2: "TertiaryLigature subtable" ellipses.vert k adieresis a
LCarets2: 3 160 160 160
EndChar

StartChar: ithk_aspect.DLT
Encoding: 191 -1 185
Width: 320
Flags: HW
AnchorPoint: "Tertiary_mkmk" 140 180 mark 0
LayerCount: 2
Fore
SplineSet
160 120 m 0
 160 160 200 180 200 180 c 1
 80 180 l 1025
EndSplineSet
Ligature2: "TertiaryLigature subtable" ellipses.vert a adieresis approxequal
LCarets2: 3 160 160 160
EndChar

StartChar: ithk_aspect.EPD
Encoding: 192 -1 186
Width: 320
Flags: HW
AnchorPoint: "Tertiary_mkmk" 220 170 mark 0
LayerCount: 2
Fore
SplineSet
160 170 m 1
 270 170 l 1
 240 140 l 1
 280 160 300 140 280 120 c 1024
EndSplineSet
Ligature2: "TertiaryLigature subtable" ellipses.vert a adieresis rcaron
LCarets2: 3 160 160 160
EndChar

StartChar: ithk_aspect.EXP
Encoding: 193 -1 187
Width: 320
Flags: HW
AnchorPoint: "Tertiary_mkmk" 200 220 mark 0
LayerCount: 2
Fore
SplineSet
160 190 m 1
 140 220 l 1
 260 220 l 1
 260 140 180 140 180 140 c 1024
EndSplineSet
Ligature2: "TertiaryLigature subtable" ellipses.vert i adieresis f
LCarets2: 3 160 160 160
EndChar

StartChar: ithk_aspect.HAB
Encoding: 194 -1 188
Width: 320
Flags: HW
AnchorPoint: "Tertiary_mkmk" 220 140 mark 0
LayerCount: 2
Fore
SplineSet
160 140 m 1
 280 140 l 1
 220 160 200 180 200 220 c 1024
EndSplineSet
Ligature2: "TertiaryLigature subtable" ellipses.vert a adieresis ddotbelow
LCarets2: 3 160 160 160
EndChar

StartChar: ithk_aspect.ICS
Encoding: 195 -1 189
Width: 320
Flags: HW
AnchorPoint: "Tertiary_mkmk" 220 220 mark 0
LayerCount: 2
Fore
SplineSet
160 220 m 1
 280 220 l 1
 280 140 200 140 200 140 c 1024
EndSplineSet
Ligature2: "TertiaryLigature subtable" ellipses.vert a adieresis f
LCarets2: 3 160 160 160
EndChar

StartChar: ithk_aspect.IMD
Encoding: 196 -1 190
Width: 320
Flags: HW
AnchorPoint: "Tertiary_mkmk" 220 150 mark 0
LayerCount: 2
Fore
SplineSet
160 180 m 1
 160 120 l 1
 160 137 173 150 190 150 c 2
 280 150 l 1025
EndSplineSet
Ligature2: "TertiaryLigature subtable" ellipses.vert scaron adieresis a
LCarets2: 3 160 160 160
EndChar

StartChar: ithk_aspect.IMM
Encoding: 197 -1 191
Width: 320
Flags: HW
AnchorPoint: "Tertiary_mkmk" 230 140 mark 0
LayerCount: 2
Fore
SplineSet
160 110 m 1
 190 140 l 1
 290 140 l 1
 290 220 210 220 210 220 c 1024
EndSplineSet
Ligature2: "TertiaryLigature subtable" ellipses.vert s adieresis tcedilla
LCarets2: 3 160 160 160
EndChar

StartChar: ithk_aspect.IRP
Encoding: 198 -1 192
Width: 320
Flags: HW
AnchorPoint: "Tertiary_mkmk" 200 220 mark 0
LayerCount: 2
Fore
SplineSet
160 250 m 1
 140 220 l 1
 260 220 l 1
 260 140 180 140 180 140 c 1024
EndSplineSet
Ligature2: "TertiaryLigature subtable" ellipses.vert z adieresis ddotbelow
LCarets2: 3 160 160 160
EndChar

StartChar: ithk_aspect.ITC
Encoding: 199 -1 193
Width: 320
Flags: HW
AnchorPoint: "Tertiary_mkmk" 100 140 mark 0
LayerCount: 2
Fore
SplineSet
160 140 m 1
 50 140 l 1
 80 170 l 1
 40 150 20 170 40 190 c 1024
EndSplineSet
Ligature2: "TertiaryLigature subtable" ellipses.vert rcaron adieresis a
LCarets2: 3 160 160 160
EndChar

StartChar: ithk_aspect.LIM
Encoding: 200 -1 194
Width: 320
Flags: HW
AnchorPoint: "Tertiary_mkmk" 220 140 mark 0
LayerCount: 2
Fore
SplineSet
160 140 m 1
 280 140 l 1
 263 140 250 158 250 180 c 1024
EndSplineSet
Ligature2: "TertiaryLigature subtable" ellipses.vert a adieresis t
LCarets2: 3 160 160 160
EndChar

StartChar: ithk_aspect.MTV
Encoding: 201 -1 195
Width: 320
Flags: HW
AnchorPoint: "Tertiary_mkmk" 220 140 mark 0
LayerCount: 2
Fore
SplineSet
160 140 m 0
 180 180 216 180 208 140 c 1
 280 140 l 1025
EndSplineSet
Ligature2: "TertiaryLigature subtable" ellipses.vert x adieresis a
LCarets2: 3 160 160 160
EndChar

StartChar: ithk_aspect.PAU
Encoding: 202 -1 196
Width: 320
Flags: HW
AnchorPoint: "Tertiary_mkmk" 100 220 mark 0
LayerCount: 2
Fore
SplineSet
160 220 m 1
 40 220 l 1
 100 200 120 180 120 140 c 1024
EndSplineSet
Ligature2: "TertiaryLigature subtable" ellipses.vert ddotbelow adieresis a
LCarets2: 3 160 160 160
EndChar

StartChar: ithk_aspect.PCL
Encoding: 203 -1 197
Width: 320
Flags: HW
AnchorPoint: "Tertiary_mkmk" 90 220 mark 0
LayerCount: 2
Fore
SplineSet
160 250 m 1
 130 220 l 1
 30 220 l 1
 30 140 110 140 110 140 c 1024
EndSplineSet
Ligature2: "TertiaryLigature subtable" ellipses.vert tcedilla adieresis s
LCarets2: 3 160 160 160
EndChar

StartChar: ithk_aspect.PCS
Encoding: 204 -1 198
Width: 320
Flags: HW
AnchorPoint: "Tertiary_mkmk" 230 140 mark 0
LayerCount: 2
Fore
SplineSet
160 110 m 1
 190 140 l 1
 290 140 l 1
 230 160 210 180 210 220 c 1024
EndSplineSet
Ligature2: "TertiaryLigature subtable" ellipses.vert s adieresis ddotbelow
LCarets2: 3 160 160 160
EndChar

StartChar: ithk_aspect.PMP
Encoding: 205 -1 199
Width: 320
Flags: HW
AnchorPoint: "Tertiary_mkmk" 100 180 mark 0
LayerCount: 2
Fore
SplineSet
160 140 m 1
 120 140 l 1
 131 140 140 149 140 160 c 0
 140 171 131 180 120 180 c 2
 40 180 l 1025
EndSplineSet
Ligature2: "TertiaryLigature subtable" ellipses.vert a adieresis k
LCarets2: 3 160 160 160
EndChar

StartChar: ithk_aspect.PPR
Encoding: 206 -1 200
Width: 320
Flags: HW
AnchorPoint: "Tertiary_mkmk" 100 160 mark 0
LayerCount: 2
Fore
SplineSet
160 120 m 1
 160 160 l 1
 40 160 l 1025
EndSplineSet
Ligature2: "TertiaryLigature subtable" ellipses.vert a adieresis equal
LCarets2: 3 160 160 160
EndChar

StartChar: ithk_aspect.PRG
Encoding: 207 -1 201
Width: 320
Flags: HW
AnchorPoint: "Tertiary_mkmk" 230 140 mark 0
LayerCount: 2
Fore
SplineSet
160 110 m 1
 190 140 l 1
 290 140 l 1
 210 220 l 1025
EndSplineSet
Ligature2: "TertiaryLigature subtable" ellipses.vert s adieresis i
LCarets2: 3 160 160 160
EndChar

StartChar: ithk_aspect.PRS
Encoding: 208 -1 202
Width: 320
Flags: HW
AnchorPoint: "Tertiary_mkmk" 220 140 mark 0
LayerCount: 2
Fore
SplineSet
160 140 m 1
 280 140 l 1
 280 220 200 220 200 220 c 1024
EndSplineSet
Ligature2: "TertiaryLigature subtable" ellipses.vert a adieresis tcedilla
LCarets2: 3 160 160 160
EndChar

StartChar: ithk_aspect.PTC
Encoding: 209 -1 203
Width: 320
Flags: HW
AnchorPoint: "Tertiary_mkmk" 100 140 mark 0
LayerCount: 2
Fore
SplineSet
160 140 m 0
 140 100 104 100 112 140 c 1
 40 140 l 1025
EndSplineSet
Ligature2: "TertiaryLigature subtable" ellipses.vert a adieresis x
LCarets2: 3 160 160 160
EndChar

StartChar: ithk_aspect.REG
Encoding: 210 -1 204
Width: 320
Flags: HW
AnchorPoint: "Tertiary_mkmk" 100 140 mark 0
LayerCount: 2
Fore
SplineSet
160 140 m 1
 40 140 l 1
 40 220 120 220 120 220 c 1024
EndSplineSet
Ligature2: "TertiaryLigature subtable" ellipses.vert f adieresis a
LCarets2: 3 160 160 160
EndChar

StartChar: ithk_aspect.RGR
Encoding: 211 -1 205
Width: 320
Flags: HW
AnchorPoint: "Tertiary_mkmk" 90 220 mark 0
LayerCount: 2
Fore
SplineSet
160 250 m 1
 130 220 l 1
 30 220 l 1
 110 140 l 1025
EndSplineSet
Ligature2: "TertiaryLigature subtable" ellipses.vert i adieresis s
LCarets2: 3 160 160 160
EndChar

StartChar: ithk_aspect.RSM
Encoding: 212 -1 206
Width: 320
Flags: HW
AnchorPoint: "Tertiary_mkmk" 100 220 mark 0
LayerCount: 2
Fore
SplineSet
160 220 m 1
 40 220 l 1
 120 140 l 1025
EndSplineSet
Ligature2: "TertiaryLigature subtable" ellipses.vert i adieresis a
LCarets2: 3 160 160 160
EndChar

StartChar: ithk_aspect.RTR
Encoding: 213 -1 207
Width: 320
Flags: HW
AnchorPoint: "Tertiary_mkmk" 220 140 mark 0
LayerCount: 2
Fore
SplineSet
160 140 m 1
 280 140 l 1
 200 220 l 1025
EndSplineSet
Ligature2: "TertiaryLigature subtable" ellipses.vert a adieresis i
LCarets2: 3 160 160 160
EndChar

StartChar: ithk_aspect.SMM
Encoding: 214 -1 208
Width: 320
Flags: HW
AnchorPoint: "Tertiary_mkmk" 120 140 mark 0
LayerCount: 2
Fore
SplineSet
160 170 m 1
 180 140 l 1
 60 140 l 1
 60 220 140 220 140 220 c 1024
EndSplineSet
Ligature2: "TertiaryLigature subtable" ellipses.vert f adieresis i
LCarets2: 3 160 160 160
EndChar

StartChar: ithk_aspect.SQN
Encoding: 215 -1 209
Width: 320
Flags: HW
AnchorPoint: "Tertiary_mkmk" 220 140 mark 0
LayerCount: 2
Fore
SplineSet
160 180 m 1
 160 140 l 1
 280 140 l 1025
EndSplineSet
Ligature2: "TertiaryLigature subtable" ellipses.vert equal adieresis a
LCarets2: 3 160 160 160
EndChar

StartChar: ithk_aspect.TMP
Encoding: 216 -1 210
Width: 320
Flags: HW
AnchorPoint: "Tertiary_mkmk" 100 170 mark 0
LayerCount: 2
Fore
SplineSet
160 140 m 1
 160 200 l 1
 160 183 147 170 130 170 c 2
 40 170 l 1025
EndSplineSet
Ligature2: "TertiaryLigature subtable" ellipses.vert a adieresis scaron
LCarets2: 3 160 160 160
EndChar

StartChar: ithk_aspect.TNS
Encoding: 217 -1 211
Width: 320
Flags: HW
AnchorPoint: "Tertiary_mkmk" 100 160 mark 0
LayerCount: 2
Fore
SplineSet
160 160 m 1
 40 160 l 1
 57 160 70 142 70 120 c 1024
EndSplineSet
Ligature2: "TertiaryLigature subtable" ellipses.vert t adieresis a
LCarets2: 3 160 160 160
EndChar

StartChar: ithk_aspect.TRD
Encoding: 218 -1 212
Width: 320
Flags: HW
AnchorPoint: "Tertiary_mkmk" 220 150 mark 0
LayerCount: 2
Fore
SplineSet
160 150 m 0
 180 110 216 110 208 150 c 1
 280 150 l 1025
EndSplineSet
Ligature2: "TertiaryLigature subtable" ellipses.vert p adieresis a
LCarets2: 3 160 160 160
EndChar

StartChar: ithk_aspect.XPD
Encoding: 219 -1 213
Width: 320
Flags: HW
AnchorPoint: "Tertiary_mkmk" 100 140 mark 0
LayerCount: 2
Fore
SplineSet
160 140 m 0
 140 180 104 180 112 140 c 1
 40 140 l 1025
EndSplineSet
Ligature2: "TertiaryLigature subtable" ellipses.vert a adieresis p
LCarets2: 3 160 160 160
EndChar

StartChar: .notdef
Encoding: 220 -1 214
Width: 320
Flags: HW
AnchorPoint: "Diacritic_right" 320 140 basechar 0
AnchorPoint: "Diacritic_left" 0 140 basechar 0
AnchorPoint: "Diacritic_down" 160 -60 basechar 0
AnchorPoint: "Diacritic_up" 160 360 basechar 0
AnchorPoint: "Extension_up" 60 280 basechar 0
AnchorPoint: "Extension_down" 260 0 basechar 0
LayerCount: 2
Fore
SplineSet
60 280 m 1
 60 0 l 1
 260 0 l 1025
260 0 m 1
 260 280 l 1
 60 280 l 1025
EndSplineSet
EndChar

StartChar: glottal.ext.up
Encoding: 222 -1 216
Width: 320
VWidth: 408
Flags: HW
AnchorPoint: "Extension_mkmk" 0 384 mark 0
LayerCount: 2
Fore
SplineSet
0 384 m 0
 0 384 l 0
 0 401 -13 414 -30 414 c 0
 -47 414 -60 401 -60 384 c 0
 -60 376 -56 368 -51 363 c 0
 -30 342 -26 404 -30 444 c 1024
EndSplineSet
Substitution2: "Single Substitution lookup 26 subtable" glottal.ext.left
Substitution2: "Single Substitution lookup 25 subtable" glottal.ext.right
Substitution2: "Single Substitution lookup 22 subtable" glottal.ext.left
Substitution2: "Single Substitution lookup 21 subtable" glottal.ext.right
EndChar

StartChar: ncaron.ext.up
Encoding: 223 -1 217
Width: 320
VWidth: 408
Flags: HW
AnchorPoint: "Extension_mkmk" 0 384 mark 0
LayerCount: 2
Fore
SplineSet
0 384 m 0
 0 399 -9 412 -20 412 c 0
 -31 412 -40 399 -40 384 c 1
 -68 384 l 1025
EndSplineSet
Substitution2: "Single Substitution lookup 26 subtable" ncaron.ext.left
Substitution2: "Single Substitution lookup 25 subtable" ncaron.ext.right
Substitution2: "Single Substitution lookup 22 subtable" ncaron.ext.left
Substitution2: "Single Substitution lookup 21 subtable" ncaron.ext.right
EndChar

StartChar: scaron.ext.up
Encoding: 224 -1 218
Width: 320
VWidth: 408
Flags: HW
AnchorPoint: "Extension_mkmk" 0 384 mark 0
LayerCount: 2
Fore
SplineSet
0 384 m 0
 0 404 10 416 20 424 c 1
 -28 376 l 1
 -28 444 l 1025
EndSplineSet
Substitution2: "Single Substitution lookup 26 subtable" scaron.ext.left
Substitution2: "Single Substitution lookup 25 subtable" scaron.ext.right
Substitution2: "Single Substitution lookup 22 subtable" scaron.ext.left
Substitution2: "Single Substitution lookup 21 subtable" scaron.ext.right
EndChar

StartChar: ddotbelow.ext.up
Encoding: 225 -1 219
Width: 320
VWidth: 408
Flags: HW
AnchorPoint: "Extension_mkmk" 0 384 mark 0
LayerCount: 2
Fore
SplineSet
0 384 m 0
 0 355 18 332 40 332 c 0
 62 332 80 355 80 384 c 1024
EndSplineSet
Substitution2: "Single Substitution lookup 26 subtable" ddotbelow.ext.left
Substitution2: "Single Substitution lookup 25 subtable" ddotbelow.ext.right
Substitution2: "Single Substitution lookup 22 subtable" ddotbelow.ext.left
Substitution2: "Single Substitution lookup 21 subtable" ddotbelow.ext.right
EndChar

StartChar: tcedilla.ext.up
Encoding: 226 -1 220
Width: 320
VWidth: 408
Flags: HW
AnchorPoint: "Extension_mkmk" 0 384 mark 0
LayerCount: 2
Fore
SplineSet
0 384 m 0
 60 424 60 364 24 354 c 1024
EndSplineSet
Substitution2: "Single Substitution lookup 26 subtable" tcedilla.ext.left
Substitution2: "Single Substitution lookup 25 subtable" tcedilla.ext.right
Substitution2: "Single Substitution lookup 22 subtable" tcedilla.ext.left
Substitution2: "Single Substitution lookup 21 subtable" tcedilla.ext.right
EndChar

StartChar: ccedilla.ext.up
Encoding: 227 -1 221
Width: 320
VWidth: 408
Flags: HW
AnchorPoint: "Extension_mkmk" 0 384 mark 0
LayerCount: 2
Fore
SplineSet
0 384 m 1
 50 344 l 1
 70 372 l 1025
EndSplineSet
Substitution2: "Single Substitution lookup 26 subtable" ccedilla.ext.left
Substitution2: "Single Substitution lookup 25 subtable" ccedilla.ext.right
Substitution2: "Single Substitution lookup 22 subtable" ccedilla.ext.left
Substitution2: "Single Substitution lookup 21 subtable" ccedilla.ext.right
EndChar

StartChar: ccaron.ext.up
Encoding: 228 -1 222
Width: 320
VWidth: 408
Flags: HW
AnchorPoint: "Extension_mkmk" 0 384 mark 0
LayerCount: 2
Fore
SplineSet
0 384 m 0
 0 401 13 414 30 414 c 1
 10 414 -50 406 -6 434 c 1024
EndSplineSet
Substitution2: "Single Substitution lookup 26 subtable" ccaron.ext.left
Substitution2: "Single Substitution lookup 25 subtable" ccaron.ext.right
Substitution2: "Single Substitution lookup 22 subtable" ccaron.ext.left
Substitution2: "Single Substitution lookup 21 subtable" ccaron.ext.right
EndChar

StartChar: lcedilla.ext.up
Encoding: 229 -1 223
Width: 320
VWidth: 408
Flags: HW
AnchorPoint: "Extension_mkmk" 0 384 mark 0
LayerCount: 2
Fore
SplineSet
0 384 m 1
 40 384 l 1025
EndSplineSet
Substitution2: "Single Substitution lookup 26 subtable" lcedilla.ext.left
Substitution2: "Single Substitution lookup 25 subtable" lcedilla.ext.right
Substitution2: "Single Substitution lookup 22 subtable" lcedilla.ext.left
Substitution2: "Single Substitution lookup 21 subtable" lcedilla.ext.right
EndChar

StartChar: zdotaccent.ext.up
Encoding: 230 -1 224
Width: 320
VWidth: 408
Flags: HW
AnchorPoint: "Extension_mkmk" 0 384 mark 0
LayerCount: 2
Fore
SplineSet
0 384 m 0
 0 344 -28 324 -40 364 c 0
 -52 404 -80 384 -80 344 c 1024
EndSplineSet
Substitution2: "Single Substitution lookup 26 subtable" zdotaccent.ext.left
Substitution2: "Single Substitution lookup 25 subtable" zdotaccent.ext.right
Substitution2: "Single Substitution lookup 22 subtable" zdotaccent.ext.left
Substitution2: "Single Substitution lookup 21 subtable" zdotaccent.ext.right
EndChar

StartChar: zcaron.ext.up
Encoding: 231 -1 225
Width: 320
VWidth: 408
Flags: HW
AnchorPoint: "Extension_mkmk" 0 384 mark 0
LayerCount: 2
Fore
SplineSet
0 384 m 0
 0 424 -30 424 -30 384 c 1
 -30 424 -60 424 -60 384 c 1024
EndSplineSet
Substitution2: "Single Substitution lookup 26 subtable" zcaron.ext.left
Substitution2: "Single Substitution lookup 25 subtable" zcaron.ext.right
Substitution2: "Single Substitution lookup 22 subtable" zcaron.ext.left
Substitution2: "Single Substitution lookup 21 subtable" zcaron.ext.right
EndChar

StartChar: rcaron.ext.up
Encoding: 232 -1 226
Width: 320
VWidth: 408
Flags: HW
AnchorPoint: "Extension_mkmk" 0 384 mark 0
LayerCount: 2
Fore
SplineSet
0 384 m 0
 17 384 30 397 30 414 c 1
 0 404 -10 406 -30 429 c 1024
EndSplineSet
Substitution2: "Single Substitution lookup 26 subtable" rcaron.ext.left
Substitution2: "Single Substitution lookup 25 subtable" rcaron.ext.right
Substitution2: "Single Substitution lookup 22 subtable" rcaron.ext.left
Substitution2: "Single Substitution lookup 21 subtable" rcaron.ext.right
EndChar

StartChar: b.ext.up
Encoding: 233 -1 227
Width: 320
VWidth: 408
Flags: HW
AnchorPoint: "Extension_mkmk" 0 384 mark 0
LayerCount: 2
Fore
SplineSet
0 384 m 0
 0 401 -13 414 -30 414 c 0
 -47 414 -60 401 -60 384 c 1
 -60 444 l 1025
EndSplineSet
Substitution2: "Single Substitution lookup 26 subtable" b.ext.left
Substitution2: "Single Substitution lookup 25 subtable" b.ext.right
Substitution2: "Single Substitution lookup 22 subtable" b.ext.left
Substitution2: "Single Substitution lookup 21 subtable" b.ext.right
EndChar

StartChar: c.ext.up
Encoding: 234 -1 228
Width: 320
VWidth: 408
Flags: HW
AnchorPoint: "Extension_mkmk" 0 384 mark 0
LayerCount: 2
Fore
SplineSet
0 384 m 0
 0 344 -30 344 -30 384 c 1
 -30 344 -60 344 -60 374 c 0
 -60 375 l 0
 -60 379 -58 382 -54 384 c 1024
EndSplineSet
Substitution2: "Single Substitution lookup 26 subtable" c.ext.left
Substitution2: "Single Substitution lookup 25 subtable" c.ext.right
Substitution2: "Single Substitution lookup 22 subtable" c.ext.left
Substitution2: "Single Substitution lookup 21 subtable" c.ext.right
EndChar

StartChar: equal.ext.up
Encoding: 235 -1 229
Width: 320
VWidth: 408
Flags: HW
AnchorPoint: "Extension_mkmk" 0 384 mark 0
LayerCount: 2
Fore
SplineSet
0 384 m 1
 -40 384 l 1
 -40 414 l 1025
EndSplineSet
Substitution2: "Single Substitution lookup 26 subtable" equal.ext.left
Substitution2: "Single Substitution lookup 25 subtable" equal.ext.right
Substitution2: "Single Substitution lookup 22 subtable" equal.ext.left
Substitution2: "Single Substitution lookup 21 subtable" equal.ext.right
EndChar

StartChar: d.ext.up
Encoding: 236 -1 230
Width: 320
VWidth: 408
Flags: HW
AnchorPoint: "Extension_mkmk" 0 384 mark 0
LayerCount: 2
Fore
SplineSet
0 384 m 0
 0 406 -18 424 -40 424 c 1
 20 424 l 1025
EndSplineSet
Substitution2: "Single Substitution lookup 26 subtable" d.ext.left
Substitution2: "Single Substitution lookup 25 subtable" d.ext.right
Substitution2: "Single Substitution lookup 22 subtable" d.ext.left
Substitution2: "Single Substitution lookup 21 subtable" d.ext.right
EndChar

StartChar: D.ext.up
Encoding: 237 -1 231
Width: 320
VWidth: 408
Flags: HW
AnchorPoint: "Extension_mkmk" 0 384 mark 0
LayerCount: 2
Fore
SplineSet
0 384 m 0
 7 376 18 370 30 370 c 0
 42 370 53 376 60 384 c 1
 70 364 48 344 40 344 c 1024
EndSplineSet
Substitution2: "Single Substitution lookup 26 subtable" D.ext.left
Substitution2: "Single Substitution lookup 25 subtable" D.ext.right
Substitution2: "Single Substitution lookup 22 subtable" D.ext.left
Substitution2: "Single Substitution lookup 21 subtable" D.ext.right
EndChar

StartChar: glottal.flip.ext.up
Encoding: 238 -1 232
Width: 320
VWidth: 408
Flags: HW
AnchorPoint: "Extension_mkmk" 0 384 mark 0
LayerCount: 2
Fore
SplineSet
0 384 m 0
 -80 344 16 320 40 384 c 1024
EndSplineSet
Substitution2: "Single Substitution lookup 26 subtable" glottal.flip.ext.left
Substitution2: "Single Substitution lookup 25 subtable" glottal.flip.ext.right
Substitution2: "Single Substitution lookup 22 subtable" glottal.flip.ext.left
Substitution2: "Single Substitution lookup 21 subtable" glottal.flip.ext.right
EndChar

StartChar: approxequal.ext.up
Encoding: 239 -1 233
Width: 320
VWidth: 408
Flags: HW
AnchorPoint: "Extension_mkmk" 0 384 mark 0
LayerCount: 2
Fore
SplineSet
0 384 m 0
 0 401 9 414 20 414 c 0
 31 414 40 401 40 384 c 1
 40 444 l 1025
EndSplineSet
Substitution2: "Single Substitution lookup 26 subtable" approxequal.ext.left
Substitution2: "Single Substitution lookup 25 subtable" approxequal.ext.right
Substitution2: "Single Substitution lookup 22 subtable" approxequal.ext.left
Substitution2: "Single Substitution lookup 21 subtable" approxequal.ext.right
EndChar

StartChar: f.ext.up
Encoding: 240 -1 234
Width: 320
VWidth: 408
Flags: HW
AnchorPoint: "Extension_mkmk" 0 384 mark 0
LayerCount: 2
Fore
SplineSet
0 384 m 0
 -40 364 -40 424 0 432 c 1024
EndSplineSet
Substitution2: "Single Substitution lookup 26 subtable" f.ext.left
Substitution2: "Single Substitution lookup 25 subtable" f.ext.right
Substitution2: "Single Substitution lookup 22 subtable" f.ext.left
Substitution2: "Single Substitution lookup 21 subtable" f.ext.right
EndChar

StartChar: g.ext.up
Encoding: 241 -1 235
Width: 320
VWidth: 408
Flags: HW
AnchorPoint: "Extension_mkmk" 0 384 mark 0
LayerCount: 2
Fore
SplineSet
0 384 m 0
 0 408 16 424 40 424 c 1
 -12 460 l 1025
EndSplineSet
Substitution2: "Single Substitution lookup 26 subtable" g.ext.left
Substitution2: "Single Substitution lookup 25 subtable" g.ext.right
Substitution2: "Single Substitution lookup 22 subtable" g.ext.left
Substitution2: "Single Substitution lookup 21 subtable" g.ext.right
EndChar

StartChar: G.ext.up
Encoding: 242 -1 236
Width: 320
VWidth: 408
Flags: HW
AnchorPoint: "Extension_mkmk" 0 384 mark 0
LayerCount: 2
Fore
SplineSet
0 384 m 1
 40 384 l 1
 0 384 0 414 40 414 c 1
 0 414 0 444 40 444 c 1024
EndSplineSet
Substitution2: "Single Substitution lookup 26 subtable" G.ext.left
Substitution2: "Single Substitution lookup 25 subtable" G.ext.right
Substitution2: "Single Substitution lookup 22 subtable" G.ext.left
Substitution2: "Single Substitution lookup 21 subtable" G.ext.right
EndChar

StartChar: h.ext.up
Encoding: 243 -1 237
Width: 320
VWidth: 408
Flags: HW
AnchorPoint: "Extension_mkmk" 0 384 mark 0
LayerCount: 2
Fore
SplineSet
0 384 m 0
 0 424 28 444 40 404 c 0
 52 364 80 384 80 424 c 1024
EndSplineSet
Substitution2: "Single Substitution lookup 26 subtable" h.ext.left
Substitution2: "Single Substitution lookup 25 subtable" h.ext.right
Substitution2: "Single Substitution lookup 22 subtable" h.ext.left
Substitution2: "Single Substitution lookup 21 subtable" h.ext.right
EndChar

StartChar: j.ext.up
Encoding: 244 -1 238
Width: 320
VWidth: 408
Flags: HW
AnchorPoint: "Extension_mkmk" 0 384 mark 0
LayerCount: 2
Fore
SplineSet
0 384 m 0
 0 404 13 420 30 420 c 1
 -10 440 -38 410 -34 398 c 1024
EndSplineSet
Substitution2: "Single Substitution lookup 26 subtable" j.ext.left
Substitution2: "Single Substitution lookup 25 subtable" j.ext.right
Substitution2: "Single Substitution lookup 22 subtable" j.ext.left
Substitution2: "Single Substitution lookup 21 subtable" j.ext.right
EndChar

StartChar: k.ext.up
Encoding: 245 -1 239
Width: 320
VWidth: 408
Flags: HW
AnchorPoint: "Extension_mkmk" 0 384 mark 0
LayerCount: 2
Fore
SplineSet
0 384 m 0
 0 406 18 424 40 424 c 1
 -20 424 l 1025
EndSplineSet
Substitution2: "Single Substitution lookup 26 subtable" k.ext.left
Substitution2: "Single Substitution lookup 25 subtable" k.ext.right
Substitution2: "Single Substitution lookup 22 subtable" k.ext.left
Substitution2: "Single Substitution lookup 21 subtable" k.ext.right
EndChar

StartChar: l.ext.up
Encoding: 246 -1 240
Width: 320
VWidth: 408
Flags: HW
AnchorPoint: "Extension_mkmk" 0 384 mark 0
LayerCount: 2
Fore
SplineSet
0 384 m 0
 0 404 0 412 -12 424 c 1
 0 384 -24 376 -20 376 c 1024
EndSplineSet
Substitution2: "Single Substitution lookup 26 subtable" l.ext.left
Substitution2: "Single Substitution lookup 25 subtable" l.ext.right
Substitution2: "Single Substitution lookup 22 subtable" l.ext.left
Substitution2: "Single Substitution lookup 21 subtable" l.ext.right
EndChar

StartChar: m.ext.up
Encoding: 247 -1 241
Width: 320
VWidth: 408
Flags: HW
AnchorPoint: "Extension_mkmk" 0 384 mark 0
LayerCount: 2
Fore
SplineSet
0 384 m 1
 -40 384 l 1025
EndSplineSet
Substitution2: "Single Substitution lookup 26 subtable" m.ext.left
Substitution2: "Single Substitution lookup 25 subtable" m.ext.right
Substitution2: "Single Substitution lookup 22 subtable" m.ext.left
Substitution2: "Single Substitution lookup 21 subtable" m.ext.right
EndChar

StartChar: n.ext.up
Encoding: 248 -1 242
Width: 320
VWidth: 408
Flags: HW
AnchorPoint: "Extension_mkmk" 0 384 mark 0
LayerCount: 2
Fore
SplineSet
0 384 m 1
 -40 384 l 1
 -16 420 l 1025
EndSplineSet
Substitution2: "Single Substitution lookup 26 subtable" n.ext.left
Substitution2: "Single Substitution lookup 25 subtable" n.ext.right
Substitution2: "Single Substitution lookup 22 subtable" n.ext.left
Substitution2: "Single Substitution lookup 21 subtable" n.ext.right
EndChar

StartChar: p.ext.up
Encoding: 249 -1 243
Width: 320
VWidth: 408
Flags: HW
AnchorPoint: "Extension_mkmk" 0 384 mark 0
LayerCount: 2
Fore
SplineSet
0 384 m 0
 0 355 -18 332 -40 332 c 0
 -62 332 -80 355 -80 384 c 1024
EndSplineSet
Substitution2: "Single Substitution lookup 26 subtable" p.ext.left
Substitution2: "Single Substitution lookup 25 subtable" p.ext.right
Substitution2: "Single Substitution lookup 22 subtable" p.ext.left
Substitution2: "Single Substitution lookup 21 subtable" p.ext.right
EndChar

StartChar: P.ext.up
Encoding: 250 -1 244
Width: 320
VWidth: 408
Flags: HW
AnchorPoint: "Extension_mkmk" 0 384 mark 0
LayerCount: 2
Fore
SplineSet
0 384 m 0
 -40 384 -40 414 0 414 c 1
 -40 414 -40 444 0 444 c 1024
EndSplineSet
Substitution2: "Single Substitution lookup 26 subtable" P.ext.left
Substitution2: "Single Substitution lookup 25 subtable" P.ext.right
Substitution2: "Single Substitution lookup 22 subtable" P.ext.left
Substitution2: "Single Substitution lookup 21 subtable" P.ext.right
EndChar

StartChar: r.upsidedown.ext.up
Encoding: 251 -1 245
Width: 320
VWidth: 408
Flags: HW
AnchorPoint: "Extension_mkmk" 0 384 mark 0
LayerCount: 2
Fore
SplineSet
0 384 m 0
 0 404 -40 414 -40 414 c 1
 0 414 20 434 30 454 c 1024
EndSplineSet
Substitution2: "Single Substitution lookup 26 subtable" r.upsidedown.ext.left
Substitution2: "Single Substitution lookup 25 subtable" r.upsidedown.ext.right
Substitution2: "Single Substitution lookup 22 subtable" r.upsidedown.ext.left
Substitution2: "Single Substitution lookup 21 subtable" r.upsidedown.ext.right
EndChar

StartChar: r.ext.up
Encoding: 252 -1 246
Width: 320
VWidth: 408
Flags: HW
AnchorPoint: "Extension_mkmk" 0 384 mark 0
LayerCount: 2
Fore
SplineSet
0 384 m 0
 0 404 10 416 20 424 c 1
 -28 376 l 1025
EndSplineSet
Substitution2: "Single Substitution lookup 26 subtable" r.ext.left
Substitution2: "Single Substitution lookup 25 subtable" r.ext.right
Substitution2: "Single Substitution lookup 22 subtable" r.ext.left
Substitution2: "Single Substitution lookup 21 subtable" r.ext.right
EndChar

StartChar: s.ext.up
Encoding: 253 -1 247
Width: 320
VWidth: 408
Flags: HW
AnchorPoint: "Extension_mkmk" 0 384 mark 0
LayerCount: 2
Fore
SplineSet
0 384 m 0
 0 424 -28 432 -40 404 c 1024
EndSplineSet
Substitution2: "Single Substitution lookup 26 subtable" s.ext.left
Substitution2: "Single Substitution lookup 25 subtable" s.ext.right
Substitution2: "Single Substitution lookup 22 subtable" s.ext.left
Substitution2: "Single Substitution lookup 21 subtable" s.ext.right
EndChar

StartChar: t.ext.up
Encoding: 254 -1 248
Width: 320
VWidth: 408
Flags: HW
AnchorPoint: "Extension_mkmk" 0 384 mark 0
LayerCount: 2
Fore
SplineSet
0 384 m 0
 0 354 15 344 60 344 c 1024
EndSplineSet
Substitution2: "Single Substitution lookup 26 subtable" t.ext.left
Substitution2: "Single Substitution lookup 25 subtable" t.ext.right
Substitution2: "Single Substitution lookup 22 subtable" t.ext.left
Substitution2: "Single Substitution lookup 21 subtable" t.ext.right
EndChar

StartChar: v.ext.up
Encoding: 255 -1 249
Width: 320
VWidth: 408
Flags: HW
AnchorPoint: "Extension_mkmk" 0 384 mark 0
LayerCount: 2
Fore
SplineSet
0 384 m 1
 -30 354 l 1
 -10 394 -30 414 -50 394 c 1024
EndSplineSet
Substitution2: "Single Substitution lookup 26 subtable" v.ext.left
Substitution2: "Single Substitution lookup 25 subtable" v.ext.right
Substitution2: "Single Substitution lookup 22 subtable" v.ext.left
Substitution2: "Single Substitution lookup 21 subtable" v.ext.right
EndChar

StartChar: velar.ext.up
Encoding: 256 -1 250
Width: 320
VWidth: 408
Flags: HW
AnchorPoint: "Extension_mkmk" 0 384 mark 0
LayerCount: 2
Fore
SplineSet
0 384 m 0
 80 344 -16 320 -40 384 c 1024
EndSplineSet
Substitution2: "Single Substitution lookup 26 subtable" velar.ext.left
Substitution2: "Single Substitution lookup 25 subtable" velar.ext.right
Substitution2: "Single Substitution lookup 22 subtable" velar.ext.left
Substitution2: "Single Substitution lookup 21 subtable" velar.ext.right
EndChar

StartChar: w.ext.up
Encoding: 257 -1 251
Width: 320
VWidth: 408
Flags: HW
AnchorPoint: "Extension_mkmk" 0 384 mark 0
LayerCount: 2
Fore
SplineSet
0 384 m 0
 0 397 -9 408 -20 408 c 0
 -31 408 -40 397 -40 384 c 1
 -40 408 l 2
 -40 430 -22 448 0 448 c 1024
EndSplineSet
Substitution2: "Single Substitution lookup 26 subtable" w.ext.left
Substitution2: "Single Substitution lookup 25 subtable" w.ext.right
Substitution2: "Single Substitution lookup 22 subtable" w.ext.left
Substitution2: "Single Substitution lookup 21 subtable" w.ext.right
EndChar

StartChar: x.ext.up
Encoding: 258 -1 252
Width: 320
VWidth: 408
Flags: HW
AnchorPoint: "Extension_mkmk" 0 384 mark 0
LayerCount: 2
Fore
SplineSet
0 384 m 0
 80 394 0 444 -36 404 c 1024
EndSplineSet
Substitution2: "Single Substitution lookup 26 subtable" x.ext.left
Substitution2: "Single Substitution lookup 25 subtable" x.ext.right
Substitution2: "Single Substitution lookup 22 subtable" x.ext.left
Substitution2: "Single Substitution lookup 21 subtable" x.ext.right
EndChar

StartChar: y.ext.up
Encoding: 259 -1 253
Width: 320
VWidth: 408
Flags: HW
AnchorPoint: "Extension_mkmk" 0 384 mark 0
LayerCount: 2
Fore
SplineSet
0 384 m 0
 0 395 -9 404 -20 404 c 1
 0 414 -20 432 -36 428 c 1024
EndSplineSet
Substitution2: "Single Substitution lookup 26 subtable" y.ext.left
Substitution2: "Single Substitution lookup 25 subtable" y.ext.right
Substitution2: "Single Substitution lookup 22 subtable" y.ext.left
Substitution2: "Single Substitution lookup 21 subtable" y.ext.right
EndChar

StartChar: z.ext.up
Encoding: 260 -1 254
Width: 320
VWidth: 408
Flags: HW
AnchorPoint: "Extension_mkmk" 0 384 mark 0
LayerCount: 2
Fore
SplineSet
0 384 m 0
 0 406 13 424 30 424 c 1024
EndSplineSet
Substitution2: "Single Substitution lookup 26 subtable" z.ext.left
Substitution2: "Single Substitution lookup 25 subtable" z.ext.right
Substitution2: "Single Substitution lookup 22 subtable" z.ext.left
Substitution2: "Single Substitution lookup 21 subtable" z.ext.right
EndChar

StartChar: glottal.ext.right
Encoding: 301 -1 255
Width: 320
VWidth: 408
Flags: HW
AnchorPoint: "Extension_mkmk" 0 384 mark 0
LayerCount: 2
Fore
SplineSet
0 384 m 0
 0 384 l 0
 17 384 30 397 30 414 c 0
 30 431 17 444 0 444 c 0
 -8 444 -16 440 -21 435 c 0
 -42 414 20 410 60 414 c 1024
EndSplineSet
EndChar

StartChar: ncaron.ext.right
Encoding: 302 -1 256
Width: 320
VWidth: 408
Flags: HW
AnchorPoint: "Extension_mkmk" 0 384 mark 0
LayerCount: 2
Fore
SplineSet
0 384 m 1
 0 344 l 1
 36 368 l 1025
EndSplineSet
EndChar

StartChar: scaron.ext.right
Encoding: 303 -1 257
Width: 320
VWidth: 408
Flags: HW
AnchorPoint: "Extension_mkmk" 0 384 mark 0
LayerCount: 2
Fore
SplineSet
0 384 m 0
 22 384 40 402 40 424 c 1
 40 356 l 1025
EndSplineSet
EndChar

StartChar: ddotbelow.ext.right
Encoding: 304 -1 258
Width: 320
VWidth: 408
Flags: HW
AnchorPoint: "Extension_mkmk" 0 384 mark 0
LayerCount: 2
Fore
SplineSet
0 384 m 0
 -17 384 -30 397 -30 414 c 0
 -30 431 -17 444 0 444 c 1024
EndSplineSet
EndChar

StartChar: tcedilla.ext.right
Encoding: 305 -1 259
Width: 320
VWidth: 408
Flags: HW
AnchorPoint: "Extension_mkmk" 0 384 mark 0
LayerCount: 2
Fore
SplineSet
0 384 m 0
 30 444 -20 444 -30 414 c 1024
EndSplineSet
EndChar

StartChar: ccedilla.ext.right
Encoding: 306 -1 260
Width: 320
VWidth: 408
Flags: HW
AnchorPoint: "Extension_mkmk" 0 384 mark 0
LayerCount: 2
Fore
SplineSet
0 384 m 1
 -40 434 l 1
 -12 454 l 1025
EndSplineSet
EndChar

StartChar: ccaron.ext.right
Encoding: 307 -1 261
Width: 320
VWidth: 408
Flags: HW
AnchorPoint: "Extension_mkmk" 0 384 mark 0
LayerCount: 2
Fore
SplineSet
0 384 m 0
 48 384 36 364 24 354 c 1
 60 354 l 1
 42 322 l 1025
EndSplineSet
EndChar

StartChar: lcedilla.ext.right
Encoding: 308 -1 262
Width: 320
VWidth: 408
Flags: HW
AnchorPoint: "Extension_mkmk" 0 384 mark 0
LayerCount: 2
Fore
SplineSet
0 384 m 0
 17 384 30 397 30 414 c 1
 60 374 l 1025
EndSplineSet
EndChar

StartChar: zdotaccent.ext.right
Encoding: 309 -1 263
Width: 320
VWidth: 408
Flags: HW
AnchorPoint: "Extension_mkmk" 0 384 mark 0
LayerCount: 2
Fore
SplineSet
0 384 m 0
 -40 384 -60 412 -20 424 c 0
 20 436 0 464 -40 464 c 1024
EndSplineSet
EndChar

StartChar: zcaron.ext.right
Encoding: 310 -1 264
Width: 320
VWidth: 408
Flags: HW
AnchorPoint: "Extension_mkmk" 0 384 mark 0
LayerCount: 2
Fore
SplineSet
0 384 m 0
 0 344 30 344 30 384 c 1
 30 344 60 344 60 374 c 0
 60 375 l 0
 60 379 58 382 54 384 c 1024
EndSplineSet
EndChar

StartChar: rcaron.ext.right
Encoding: 311 -1 265
Width: 320
VWidth: 408
Flags: HW
AnchorPoint: "Extension_mkmk" 0 384 mark 0
LayerCount: 2
Fore
SplineSet
0 384 m 1
 -30 354 l 1
 0 364 10 362 30 339 c 1024
EndSplineSet
EndChar

StartChar: b.ext.right
Encoding: 312 -1 266
Width: 320
VWidth: 408
Flags: HW
AnchorPoint: "Extension_mkmk" 0 384 mark 0
LayerCount: 2
Fore
SplineSet
0 384 m 0
 11 384 20 393 20 404 c 0
 20 415 11 424 0 424 c 1
 40 424 l 1025
EndSplineSet
EndChar

StartChar: c.ext.right
Encoding: 313 -1 267
Width: 320
VWidth: 408
Flags: HW
AnchorPoint: "Extension_mkmk" 0 384 mark 0
LayerCount: 2
Fore
SplineSet
0 384 m 0
 0 424 30 424 30 384 c 1
 30 424 60 424 60 394 c 0
 60 393 l 0
 60 389 58 386 54 384 c 1024
EndSplineSet
EndChar

StartChar: equal.ext.right
Encoding: 314 -1 268
Width: 320
VWidth: 408
Flags: HW
AnchorPoint: "Extension_mkmk" 0 384 mark 0
LayerCount: 2
Fore
SplineSet
0 384 m 0
 60 384 15 294 -45 414 c 1024
EndSplineSet
EndChar

StartChar: d.ext.right
Encoding: 315 -1 269
Width: 320
VWidth: 408
Flags: HW
AnchorPoint: "Extension_mkmk" 0 384 mark 0
LayerCount: 2
Fore
SplineSet
0 384 m 0
 0 384 -30 394 -30 424 c 1024
EndSplineSet
EndChar

StartChar: D.ext.right
Encoding: 316 -1 270
Width: 320
VWidth: 408
Flags: HW
AnchorPoint: "Extension_mkmk" 0 384 mark 0
LayerCount: 2
Fore
SplineSet
0 384 m 0
 -22 384 -40 362 -40 334 c 1
 -70 354 -58 378 -58 378 c 1024
EndSplineSet
EndChar

StartChar: glottal.flip.ext.right
Encoding: 317 -1 271
Width: 320
VWidth: 408
Flags: HW
AnchorPoint: "Extension_mkmk" 0 384 mark 0
LayerCount: 2
Fore
SplineSet
0 384 m 0
 -40 464 -64 368 0 344 c 1024
EndSplineSet
EndChar

StartChar: approxequal.ext.right
Encoding: 318 -1 272
Width: 320
VWidth: 408
Flags: HW
AnchorPoint: "Extension_mkmk" 0 384 mark 0
LayerCount: 2
Fore
SplineSet
0 384 m 0
 0 384 -30 374 -30 344 c 1024
EndSplineSet
EndChar

StartChar: f.ext.right
Encoding: 319 -1 273
Width: 320
VWidth: 408
Flags: HW
AnchorPoint: "Extension_mkmk" 0 384 mark 0
LayerCount: 2
Fore
SplineSet
0 384 m 0
 20 464 60 384 20 344 c 1024
EndSplineSet
EndChar

StartChar: g.ext.right
Encoding: 320 -1 274
Width: 320
VWidth: 408
Flags: HW
AnchorPoint: "Extension_mkmk" 0 384 mark 0
LayerCount: 2
Fore
SplineSet
0 384 m 0
 -17 384 -30 371 -30 354 c 0
 -30 337 -17 324 0 324 c 1024
EndSplineSet
EndChar

StartChar: G.ext.right
Encoding: 321 -1 275
Width: 320
VWidth: 408
Flags: HW
AnchorPoint: "Extension_mkmk" 0 384 mark 0
LayerCount: 2
Fore
SplineSet
0 384 m 1
 -40 384 l 1
 0 384 0 354 -40 354 c 1
 0 354 0 324 -40 324 c 1024
EndSplineSet
EndChar

StartChar: h.ext.right
Encoding: 322 -1 276
Width: 320
VWidth: 408
Flags: HW
AnchorPoint: "Extension_mkmk" 0 384 mark 0
LayerCount: 2
Fore
SplineSet
0 384 m 0
 40 384 60 356 20 344 c 0
 -20 332 0 304 40 304 c 1024
EndSplineSet
EndChar

StartChar: j.ext.right
Encoding: 323 -1 277
Width: 320
VWidth: 408
Flags: HW
AnchorPoint: "Extension_mkmk" 0 384 mark 0
LayerCount: 2
Fore
SplineSet
0 384 m 0
 11 384 20 375 20 364 c 0
 20 353 11 344 0 344 c 1
 20 344 l 2
 42 344 60 362 60 384 c 1024
EndSplineSet
EndChar

StartChar: k.ext.right
Encoding: 324 -1 278
Width: 320
VWidth: 408
Flags: HW
AnchorPoint: "Extension_mkmk" 0 384 mark 0
LayerCount: 2
Fore
SplineSet
0 384 m 0
 11 384 20 375 20 364 c 0
 20 353 11 344 0 344 c 1
 40 344 l 1025
EndSplineSet
EndChar

StartChar: l.ext.right
Encoding: 325 -1 279
Width: 320
VWidth: 408
Flags: HW
AnchorPoint: "Extension_mkmk" 0 384 mark 0
LayerCount: 2
Fore
SplineSet
0 384 m 0
 20 384 28 384 40 372 c 1
 0 384 -8 360 -8 364 c 1024
EndSplineSet
EndChar

StartChar: m.ext.right
Encoding: 326 -1 280
Width: 320
VWidth: 408
Flags: HW
AnchorPoint: "Extension_mkmk" 0 384 mark 0
LayerCount: 2
Fore
SplineSet
0 384 m 0
 60 384 15 474 -45 354 c 1024
EndSplineSet
EndChar

StartChar: n.ext.right
Encoding: 327 -1 281
Width: 320
VWidth: 408
Flags: HW
AnchorPoint: "Extension_mkmk" 0 384 mark 0
LayerCount: 2
Fore
SplineSet
0 384 m 0
 15 384 28 375 28 364 c 0
 28 353 15 344 0 344 c 1
 0 312 l 1025
EndSplineSet
EndChar

StartChar: p.ext.right
Encoding: 328 -1 282
Width: 320
VWidth: 408
Flags: HW
AnchorPoint: "Extension_mkmk" 0 384 mark 0
LayerCount: 2
Fore
SplineSet
0 384 m 0
 -20 424 48 424 60 364 c 1024
EndSplineSet
EndChar

StartChar: P.ext.right
Encoding: 329 -1 283
Width: 320
VWidth: 408
Flags: HW
AnchorPoint: "Extension_mkmk" 0 384 mark 0
LayerCount: 2
Fore
SplineSet
0 384 m 0
 40 384 40 354 0 354 c 1
 40 354 40 324 0 324 c 1024
EndSplineSet
EndChar

StartChar: r.upsidedown.ext.right
Encoding: 330 -1 284
Width: 320
VWidth: 408
Flags: HW
AnchorPoint: "Extension_mkmk" 0 384 mark 0
LayerCount: 2
Fore
SplineSet
0 384 m 0
 22 384 40 371 40 354 c 1
 36 358 30 360 24 360 c 0
 11 360 0 349 0 336 c 0
 0 335 0 335 0 334 c 1024
EndSplineSet
EndChar

StartChar: r.ext.right
Encoding: 331 -1 285
Width: 320
VWidth: 408
Flags: HW
AnchorPoint: "Extension_mkmk" 0 384 mark 0
LayerCount: 2
Fore
SplineSet
0 384 m 0
 20 384 32 374 40 364 c 1
 -8 412 l 1025
EndSplineSet
EndChar

StartChar: s.ext.right
Encoding: 332 -1 286
Width: 320
VWidth: 408
Flags: HW
AnchorPoint: "Extension_mkmk" 0 384 mark 0
LayerCount: 2
Fore
SplineSet
0 384 m 0
 40 384 48 412 20 424 c 1024
EndSplineSet
EndChar

StartChar: t.ext.right
Encoding: 333 -1 287
Width: 320
VWidth: 408
Flags: HW
AnchorPoint: "Extension_mkmk" 0 384 mark 0
LayerCount: 2
Fore
SplineSet
0 384 m 0
 22 384 40 366 40 344 c 1
 40 404 l 1025
EndSplineSet
EndChar

StartChar: v.ext.right
Encoding: 334 -1 288
Width: 320
VWidth: 408
Flags: HW
AnchorPoint: "Extension_mkmk" 0 384 mark 0
LayerCount: 2
Fore
SplineSet
0 384 m 0
 0 401 13 414 30 414 c 1
 20 384 22 374 45 354 c 1024
EndSplineSet
EndChar

StartChar: velar.ext.right
Encoding: 335 -1 289
Width: 320
VWidth: 408
Flags: HW
AnchorPoint: "Extension_mkmk" 0 384 mark 0
LayerCount: 2
Fore
SplineSet
0 384 m 0
 -40 304 -64 400 0 424 c 1024
EndSplineSet
EndChar

StartChar: w.ext.right
Encoding: 336 -1 290
Width: 320
VWidth: 408
Flags: HW
AnchorPoint: "Extension_mkmk" 0 384 mark 0
LayerCount: 2
Fore
SplineSet
0 384 m 0
 20 384 36 398 36 416 c 1
 56 376 26 348 14 352 c 1024
EndSplineSet
EndChar

StartChar: x.ext.right
Encoding: 337 -1 291
Width: 320
VWidth: 408
Flags: HW
AnchorPoint: "Extension_mkmk" 0 384 mark 0
LayerCount: 2
Fore
SplineSet
0 384 m 0
 -20 344 40 344 48 384 c 1024
EndSplineSet
EndChar

StartChar: y.ext.right
Encoding: 338 -1 292
Width: 320
VWidth: 408
Flags: HW
AnchorPoint: "Extension_mkmk" 0 384 mark 0
LayerCount: 2
Fore
SplineSet
0 384 m 0
 11 384 20 375 20 364 c 1
 30 384 48 364 44 348 c 1024
EndSplineSet
EndChar

StartChar: z.ext.right
Encoding: 339 -1 293
Width: 320
VWidth: 408
Flags: HW
AnchorPoint: "Extension_mkmk" 0 384 mark 0
LayerCount: 2
Fore
SplineSet
0 384 m 0
 17 384 30 371 30 354 c 1024
EndSplineSet
EndChar

StartChar: glottal.ext.down
Encoding: 340 -1 294
Width: 320
VWidth: 408
Flags: HW
AnchorPoint: "Extension_mkmk" 0 384 mark 0
LayerCount: 2
Fore
SplineSet
0 384 m 0
 0 384 l 0
 0 367 13 354 30 354 c 0
 47 354 60 367 60 384 c 0
 60 392 56 400 51 405 c 0
 30 426 26 364 30 324 c 1024
EndSplineSet
Substitution2: "Single Substitution lookup 28 subtable" glottal.ext.left
Substitution2: "Single Substitution lookup 27 subtable" glottal.ext.right
Substitution2: "Single Substitution lookup 24 subtable" glottal.ext.left
Substitution2: "Single Substitution lookup 23 subtable" glottal.ext.right
EndChar

StartChar: ncaron.ext.down
Encoding: 341 -1 295
Width: 320
VWidth: 408
Flags: HW
AnchorPoint: "Extension_mkmk" 0 384 mark 0
LayerCount: 2
Fore
SplineSet
0 384 m 0
 0 369 9 356 20 356 c 0
 31 356 40 369 40 384 c 1
 68 384 l 1025
EndSplineSet
Substitution2: "Single Substitution lookup 28 subtable" ncaron.ext.left
Substitution2: "Single Substitution lookup 27 subtable" ncaron.ext.right
Substitution2: "Single Substitution lookup 24 subtable" ncaron.ext.left
Substitution2: "Single Substitution lookup 23 subtable" ncaron.ext.right
EndChar

StartChar: scaron.ext.down
Encoding: 342 -1 296
Width: 320
VWidth: 408
Flags: HW
AnchorPoint: "Extension_mkmk" 0 384 mark 0
LayerCount: 2
Fore
SplineSet
0 384 m 0
 0 364 -10 352 -20 344 c 1
 28 392 l 1
 28 324 l 1025
EndSplineSet
Substitution2: "Single Substitution lookup 28 subtable" scaron.ext.left
Substitution2: "Single Substitution lookup 27 subtable" scaron.ext.right
Substitution2: "Single Substitution lookup 24 subtable" scaron.ext.left
Substitution2: "Single Substitution lookup 23 subtable" scaron.ext.right
EndChar

StartChar: ddotbelow.ext.down
Encoding: 343 -1 297
Width: 320
VWidth: 408
Flags: HW
AnchorPoint: "Extension_mkmk" 0 384 mark 0
LayerCount: 2
Fore
SplineSet
0 384 m 0
 0 413 -18 436 -40 436 c 0
 -62 436 -80 413 -80 384 c 1024
EndSplineSet
Substitution2: "Single Substitution lookup 28 subtable" ddotbelow.ext.left
Substitution2: "Single Substitution lookup 27 subtable" ddotbelow.ext.right
Substitution2: "Single Substitution lookup 24 subtable" ddotbelow.ext.left
Substitution2: "Single Substitution lookup 23 subtable" ddotbelow.ext.right
EndChar

StartChar: tcedilla.ext.down
Encoding: 344 -1 298
Width: 320
VWidth: 408
Flags: HW
AnchorPoint: "Extension_mkmk" 0 384 mark 0
LayerCount: 2
Fore
SplineSet
0 384 m 0
 -60 344 -60 404 -24 414 c 1024
EndSplineSet
Substitution2: "Single Substitution lookup 28 subtable" tcedilla.ext.left
Substitution2: "Single Substitution lookup 27 subtable" tcedilla.ext.right
Substitution2: "Single Substitution lookup 24 subtable" tcedilla.ext.left
Substitution2: "Single Substitution lookup 23 subtable" tcedilla.ext.right
EndChar

StartChar: ccedilla.ext.down
Encoding: 345 -1 299
Width: 320
VWidth: 408
Flags: HW
AnchorPoint: "Extension_mkmk" 0 384 mark 0
LayerCount: 2
Fore
SplineSet
0 384 m 1
 -50 424 l 1
 -70 396 l 1025
EndSplineSet
Substitution2: "Single Substitution lookup 28 subtable" ccedilla.ext.left
Substitution2: "Single Substitution lookup 27 subtable" ccedilla.ext.right
Substitution2: "Single Substitution lookup 24 subtable" ccedilla.ext.left
Substitution2: "Single Substitution lookup 23 subtable" ccedilla.ext.right
EndChar

StartChar: ccaron.ext.down
Encoding: 346 -1 300
Width: 320
VWidth: 408
Flags: HW
AnchorPoint: "Extension_mkmk" 0 384 mark 0
LayerCount: 2
Fore
SplineSet
0 384 m 0
 0 367 -13 354 -30 354 c 1
 -10 354 50 362 6 334 c 1024
EndSplineSet
Substitution2: "Single Substitution lookup 28 subtable" ccaron.ext.left
Substitution2: "Single Substitution lookup 27 subtable" ccaron.ext.right
Substitution2: "Single Substitution lookup 24 subtable" ccaron.ext.left
Substitution2: "Single Substitution lookup 23 subtable" ccaron.ext.right
EndChar

StartChar: lcedilla.ext.down
Encoding: 347 -1 301
Width: 320
VWidth: 408
Flags: HW
AnchorPoint: "Extension_mkmk" 0 384 mark 0
LayerCount: 2
Fore
SplineSet
0 384 m 1
 -40 384 l 1025
EndSplineSet
Substitution2: "Single Substitution lookup 28 subtable" lcedilla.ext.left
Substitution2: "Single Substitution lookup 27 subtable" lcedilla.ext.right
Substitution2: "Single Substitution lookup 24 subtable" lcedilla.ext.left
Substitution2: "Single Substitution lookup 23 subtable" lcedilla.ext.right
EndChar

StartChar: zdotaccent.ext.down
Encoding: 348 -1 302
Width: 320
VWidth: 408
Flags: HW
AnchorPoint: "Extension_mkmk" 0 384 mark 0
LayerCount: 2
Fore
SplineSet
0 384 m 0
 0 424 28 444 40 404 c 0
 52 364 80 384 80 424 c 1024
EndSplineSet
Substitution2: "Single Substitution lookup 28 subtable" zdotaccent.ext.left
Substitution2: "Single Substitution lookup 27 subtable" zdotaccent.ext.right
Substitution2: "Single Substitution lookup 24 subtable" zdotaccent.ext.left
Substitution2: "Single Substitution lookup 23 subtable" zdotaccent.ext.right
EndChar

StartChar: zcaron.ext.down
Encoding: 349 -1 303
Width: 320
VWidth: 408
Flags: HW
AnchorPoint: "Extension_mkmk" 0 384 mark 0
LayerCount: 2
Fore
SplineSet
0 384 m 0
 0 344 30 344 30 384 c 1
 30 344 60 344 60 384 c 1024
EndSplineSet
Substitution2: "Single Substitution lookup 28 subtable" zcaron.ext.left
Substitution2: "Single Substitution lookup 27 subtable" zcaron.ext.right
Substitution2: "Single Substitution lookup 24 subtable" zcaron.ext.left
Substitution2: "Single Substitution lookup 23 subtable" zcaron.ext.right
EndChar

StartChar: rcaron.ext.down
Encoding: 350 -1 304
Width: 320
VWidth: 408
Flags: HW
AnchorPoint: "Extension_mkmk" 0 384 mark 0
LayerCount: 2
Fore
SplineSet
0 384 m 0
 -17 384 -30 371 -30 354 c 1
 0 364 10 362 30 339 c 1024
EndSplineSet
Substitution2: "Single Substitution lookup 28 subtable" rcaron.ext.left
Substitution2: "Single Substitution lookup 27 subtable" rcaron.ext.right
Substitution2: "Single Substitution lookup 24 subtable" rcaron.ext.left
Substitution2: "Single Substitution lookup 23 subtable" rcaron.ext.right
EndChar

StartChar: b.ext.down
Encoding: 351 -1 305
Width: 320
VWidth: 408
Flags: HW
AnchorPoint: "Extension_mkmk" 0 384 mark 0
LayerCount: 2
Fore
SplineSet
0 384 m 0
 0 367 13 354 30 354 c 0
 47 354 60 367 60 384 c 1
 60 324 l 1025
EndSplineSet
Substitution2: "Single Substitution lookup 28 subtable" b.ext.left
Substitution2: "Single Substitution lookup 27 subtable" b.ext.right
Substitution2: "Single Substitution lookup 24 subtable" b.ext.left
Substitution2: "Single Substitution lookup 23 subtable" b.ext.right
EndChar

StartChar: c.ext.down
Encoding: 352 -1 306
Width: 320
VWidth: 408
Flags: HW
AnchorPoint: "Extension_mkmk" 0 384 mark 0
LayerCount: 2
Fore
SplineSet
0 384 m 0
 0 424 30 424 30 384 c 1
 30 424 60 424 60 394 c 0
 60 393 l 0
 60 389 58 386 54 384 c 1024
EndSplineSet
Substitution2: "Single Substitution lookup 28 subtable" c.ext.left
Substitution2: "Single Substitution lookup 27 subtable" c.ext.right
Substitution2: "Single Substitution lookup 24 subtable" c.ext.left
Substitution2: "Single Substitution lookup 23 subtable" c.ext.right
EndChar

StartChar: equal.ext.down
Encoding: 353 -1 307
Width: 320
VWidth: 408
Flags: HW
AnchorPoint: "Extension_mkmk" 0 384 mark 0
LayerCount: 2
Fore
SplineSet
0 384 m 1
 40 384 l 1
 40 354 l 1025
EndSplineSet
Substitution2: "Single Substitution lookup 28 subtable" equal.ext.left
Substitution2: "Single Substitution lookup 27 subtable" equal.ext.right
Substitution2: "Single Substitution lookup 24 subtable" equal.ext.left
Substitution2: "Single Substitution lookup 23 subtable" equal.ext.right
EndChar

StartChar: d.ext.down
Encoding: 354 -1 308
Width: 320
VWidth: 408
Flags: HW
AnchorPoint: "Extension_mkmk" 0 384 mark 0
LayerCount: 2
Fore
SplineSet
0 384 m 0
 0 362 18 344 40 344 c 1
 -20 344 l 1025
EndSplineSet
Substitution2: "Single Substitution lookup 28 subtable" d.ext.left
Substitution2: "Single Substitution lookup 27 subtable" d.ext.right
Substitution2: "Single Substitution lookup 24 subtable" d.ext.left
Substitution2: "Single Substitution lookup 23 subtable" d.ext.right
EndChar

StartChar: D.ext.down
Encoding: 355 -1 309
Width: 320
VWidth: 408
Flags: HW
AnchorPoint: "Extension_mkmk" 0 384 mark 0
LayerCount: 2
Fore
SplineSet
0 384 m 0
 -7 392 -18 398 -30 398 c 0
 -42 398 -53 392 -60 384 c 1
 -70 404 -48 424 -40 424 c 1024
EndSplineSet
Substitution2: "Single Substitution lookup 28 subtable" D.ext.left
Substitution2: "Single Substitution lookup 27 subtable" D.ext.right
Substitution2: "Single Substitution lookup 24 subtable" D.ext.left
Substitution2: "Single Substitution lookup 23 subtable" D.ext.right
EndChar

StartChar: glottal.flip.ext.down
Encoding: 356 -1 310
Width: 320
VWidth: 408
Flags: HW
AnchorPoint: "Extension_mkmk" 0 384 mark 0
LayerCount: 2
Fore
SplineSet
0 384 m 0
 80 424 -16 448 -40 384 c 1024
EndSplineSet
Substitution2: "Single Substitution lookup 28 subtable" glottal.flip.ext.left
Substitution2: "Single Substitution lookup 27 subtable" glottal.flip.ext.right
Substitution2: "Single Substitution lookup 24 subtable" glottal.flip.ext.left
Substitution2: "Single Substitution lookup 23 subtable" glottal.flip.ext.right
EndChar

StartChar: approxequal.ext.down
Encoding: 357 -1 311
Width: 320
VWidth: 408
Flags: HW
AnchorPoint: "Extension_mkmk" 0 384 mark 0
LayerCount: 2
Fore
SplineSet
0 384 m 0
 0 367 -9 354 -20 354 c 0
 -31 354 -40 367 -40 384 c 1
 -40 324 l 1025
EndSplineSet
Substitution2: "Single Substitution lookup 28 subtable" approxequal.ext.left
Substitution2: "Single Substitution lookup 27 subtable" approxequal.ext.right
Substitution2: "Single Substitution lookup 24 subtable" approxequal.ext.left
Substitution2: "Single Substitution lookup 23 subtable" approxequal.ext.right
EndChar

StartChar: f.ext.down
Encoding: 358 -1 312
Width: 320
VWidth: 408
Flags: HW
AnchorPoint: "Extension_mkmk" 0 384 mark 0
LayerCount: 2
Fore
SplineSet
0 384 m 0
 40 404 40 344 0 336 c 1024
EndSplineSet
Substitution2: "Single Substitution lookup 28 subtable" f.ext.left
Substitution2: "Single Substitution lookup 27 subtable" f.ext.right
Substitution2: "Single Substitution lookup 24 subtable" f.ext.left
Substitution2: "Single Substitution lookup 23 subtable" f.ext.right
EndChar

StartChar: g.ext.down
Encoding: 359 -1 313
Width: 320
VWidth: 408
Flags: HW
AnchorPoint: "Extension_mkmk" 0 384 mark 0
LayerCount: 2
Fore
SplineSet
0 384 m 0
 0 360 -16 344 -40 344 c 1
 12 308 l 1025
EndSplineSet
Substitution2: "Single Substitution lookup 28 subtable" g.ext.left
Substitution2: "Single Substitution lookup 27 subtable" g.ext.right
Substitution2: "Single Substitution lookup 24 subtable" g.ext.left
Substitution2: "Single Substitution lookup 23 subtable" g.ext.right
EndChar

StartChar: G.ext.down
Encoding: 360 -1 314
Width: 320
VWidth: 408
Flags: HW
AnchorPoint: "Extension_mkmk" 0 384 mark 0
LayerCount: 2
Fore
SplineSet
0 384 m 1
 -40 384 l 1
 0 384 0 354 -40 354 c 1
 0 354 0 324 -40 324 c 1024
EndSplineSet
Substitution2: "Single Substitution lookup 28 subtable" G.ext.left
Substitution2: "Single Substitution lookup 27 subtable" G.ext.right
Substitution2: "Single Substitution lookup 24 subtable" G.ext.left
Substitution2: "Single Substitution lookup 23 subtable" G.ext.right
EndChar

StartChar: h.ext.down
Encoding: 361 -1 315
Width: 320
VWidth: 408
Flags: HW
AnchorPoint: "Extension_mkmk" 0 384 mark 0
LayerCount: 2
Fore
SplineSet
0 384 m 0
 0 344 -28 324 -40 364 c 0
 -52 404 -80 384 -80 344 c 1024
EndSplineSet
Substitution2: "Single Substitution lookup 28 subtable" h.ext.left
Substitution2: "Single Substitution lookup 27 subtable" h.ext.right
Substitution2: "Single Substitution lookup 24 subtable" h.ext.left
Substitution2: "Single Substitution lookup 23 subtable" h.ext.right
EndChar

StartChar: j.ext.down
Encoding: 362 -1 316
Width: 320
VWidth: 408
Flags: HW
AnchorPoint: "Extension_mkmk" 0 384 mark 0
LayerCount: 2
Fore
SplineSet
0 384 m 0
 0 364 -13 348 -30 348 c 1
 10 328 38 358 34 370 c 1024
EndSplineSet
Substitution2: "Single Substitution lookup 28 subtable" j.ext.left
Substitution2: "Single Substitution lookup 27 subtable" j.ext.right
Substitution2: "Single Substitution lookup 24 subtable" j.ext.left
Substitution2: "Single Substitution lookup 23 subtable" j.ext.right
EndChar

StartChar: k.ext.down
Encoding: 363 -1 317
Width: 320
VWidth: 408
Flags: HW
AnchorPoint: "Extension_mkmk" 0 384 mark 0
LayerCount: 2
Fore
SplineSet
0 384 m 0
 0 362 -18 344 -40 344 c 1
 20 344 l 1025
EndSplineSet
Substitution2: "Single Substitution lookup 28 subtable" k.ext.left
Substitution2: "Single Substitution lookup 27 subtable" k.ext.right
Substitution2: "Single Substitution lookup 24 subtable" k.ext.left
Substitution2: "Single Substitution lookup 23 subtable" k.ext.right
EndChar

StartChar: l.ext.down
Encoding: 364 -1 318
Width: 320
VWidth: 408
Flags: HW
AnchorPoint: "Extension_mkmk" 0 384 mark 0
LayerCount: 2
Fore
SplineSet
0 384 m 0
 0 364 0 356 12 344 c 1
 0 384 24 392 20 392 c 1024
EndSplineSet
Substitution2: "Single Substitution lookup 28 subtable" l.ext.left
Substitution2: "Single Substitution lookup 27 subtable" l.ext.right
Substitution2: "Single Substitution lookup 24 subtable" l.ext.left
Substitution2: "Single Substitution lookup 23 subtable" l.ext.right
EndChar

StartChar: m.ext.down
Encoding: 365 -1 319
Width: 320
VWidth: 408
Flags: HW
AnchorPoint: "Extension_mkmk" 0 384 mark 0
LayerCount: 2
Fore
SplineSet
0 384 m 1
 40 384 l 1025
EndSplineSet
Substitution2: "Single Substitution lookup 28 subtable" m.ext.left
Substitution2: "Single Substitution lookup 27 subtable" m.ext.right
Substitution2: "Single Substitution lookup 24 subtable" m.ext.left
Substitution2: "Single Substitution lookup 23 subtable" m.ext.right
EndChar

StartChar: n.ext.down
Encoding: 366 -1 320
Width: 320
VWidth: 408
Flags: HW
AnchorPoint: "Extension_mkmk" 0 384 mark 0
LayerCount: 2
Fore
SplineSet
0 384 m 1
 40 384 l 1
 16 348 l 1025
EndSplineSet
Substitution2: "Single Substitution lookup 28 subtable" n.ext.left
Substitution2: "Single Substitution lookup 27 subtable" n.ext.right
Substitution2: "Single Substitution lookup 24 subtable" n.ext.left
Substitution2: "Single Substitution lookup 23 subtable" n.ext.right
EndChar

StartChar: p.ext.down
Encoding: 367 -1 321
Width: 320
VWidth: 408
Flags: HW
AnchorPoint: "Extension_mkmk" 0 384 mark 0
LayerCount: 2
Fore
SplineSet
0 384 m 0
 0 413 18 436 40 436 c 0
 62 436 80 413 80 384 c 1024
EndSplineSet
Substitution2: "Single Substitution lookup 28 subtable" p.ext.left
Substitution2: "Single Substitution lookup 27 subtable" p.ext.right
Substitution2: "Single Substitution lookup 24 subtable" p.ext.left
Substitution2: "Single Substitution lookup 23 subtable" p.ext.right
EndChar

StartChar: P.ext.down
Encoding: 368 -1 322
Width: 320
VWidth: 408
Flags: HW
AnchorPoint: "Extension_mkmk" 0 384 mark 0
LayerCount: 2
Fore
SplineSet
0 384 m 0
 40 384 40 354 0 354 c 1
 40 354 40 324 0 324 c 1024
EndSplineSet
Substitution2: "Single Substitution lookup 28 subtable" P.ext.left
Substitution2: "Single Substitution lookup 27 subtable" P.ext.right
Substitution2: "Single Substitution lookup 24 subtable" P.ext.left
Substitution2: "Single Substitution lookup 23 subtable" P.ext.right
EndChar

StartChar: r.upsidedown.ext.down
Encoding: 369 -1 323
Width: 320
VWidth: 408
Flags: HW
AnchorPoint: "Extension_mkmk" 0 384 mark 0
LayerCount: 2
Fore
SplineSet
0 384 m 0
 0 364 40 354 40 354 c 1
 0 354 -20 334 -30 314 c 1024
EndSplineSet
Substitution2: "Single Substitution lookup 28 subtable" r.upsidedown.ext.left
Substitution2: "Single Substitution lookup 27 subtable" r.upsidedown.ext.right
Substitution2: "Single Substitution lookup 24 subtable" r.upsidedown.ext.left
Substitution2: "Single Substitution lookup 23 subtable" r.upsidedown.ext.right
EndChar

StartChar: r.ext.down
Encoding: 370 -1 324
Width: 320
VWidth: 408
Flags: HW
AnchorPoint: "Extension_mkmk" 0 384 mark 0
LayerCount: 2
Fore
SplineSet
0 384 m 0
 0 364 -10 352 -20 344 c 1
 28 392 l 1025
EndSplineSet
Substitution2: "Single Substitution lookup 28 subtable" r.ext.left
Substitution2: "Single Substitution lookup 27 subtable" r.ext.right
Substitution2: "Single Substitution lookup 24 subtable" r.ext.left
Substitution2: "Single Substitution lookup 23 subtable" r.ext.right
EndChar

StartChar: s.ext.down
Encoding: 371 -1 325
Width: 320
VWidth: 408
Flags: HW
AnchorPoint: "Extension_mkmk" 0 384 mark 0
LayerCount: 2
Fore
SplineSet
0 384 m 0
 0 344 28 336 40 364 c 1024
EndSplineSet
Substitution2: "Single Substitution lookup 28 subtable" s.ext.left
Substitution2: "Single Substitution lookup 27 subtable" s.ext.right
Substitution2: "Single Substitution lookup 24 subtable" s.ext.left
Substitution2: "Single Substitution lookup 23 subtable" s.ext.right
EndChar

StartChar: t.ext.down
Encoding: 372 -1 326
Width: 320
VWidth: 408
Flags: HW
AnchorPoint: "Extension_mkmk" 0 384 mark 0
LayerCount: 2
Fore
SplineSet
0 384 m 0
 0 414 -15 424 -60 424 c 1024
EndSplineSet
Substitution2: "Single Substitution lookup 28 subtable" t.ext.left
Substitution2: "Single Substitution lookup 27 subtable" t.ext.right
Substitution2: "Single Substitution lookup 24 subtable" t.ext.left
Substitution2: "Single Substitution lookup 23 subtable" t.ext.right
EndChar

StartChar: v.ext.down
Encoding: 373 -1 327
Width: 320
VWidth: 408
Flags: HW
AnchorPoint: "Extension_mkmk" 0 384 mark 0
LayerCount: 2
Fore
SplineSet
0 384 m 1
 30 414 l 1
 10 374 30 354 50 374 c 1024
EndSplineSet
Substitution2: "Single Substitution lookup 28 subtable" v.ext.left
Substitution2: "Single Substitution lookup 27 subtable" v.ext.right
Substitution2: "Single Substitution lookup 24 subtable" v.ext.left
Substitution2: "Single Substitution lookup 23 subtable" v.ext.right
EndChar

StartChar: velar.ext.down
Encoding: 374 -1 328
Width: 320
VWidth: 408
Flags: HW
AnchorPoint: "Extension_mkmk" 0 384 mark 0
LayerCount: 2
Fore
SplineSet
0 384 m 0
 -80 424 16 448 40 384 c 1024
EndSplineSet
Substitution2: "Single Substitution lookup 28 subtable" velar.ext.left
Substitution2: "Single Substitution lookup 27 subtable" velar.ext.right
Substitution2: "Single Substitution lookup 24 subtable" velar.ext.left
Substitution2: "Single Substitution lookup 23 subtable" velar.ext.right
EndChar

StartChar: w.ext.down
Encoding: 375 -1 329
Width: 320
VWidth: 408
Flags: HW
AnchorPoint: "Extension_mkmk" 0 384 mark 0
LayerCount: 2
Fore
SplineSet
0 384 m 0
 0 371 9 360 20 360 c 0
 31 360 40 371 40 384 c 1
 40 360 l 2
 40 338 22 320 0 320 c 1024
EndSplineSet
Substitution2: "Single Substitution lookup 28 subtable" w.ext.left
Substitution2: "Single Substitution lookup 27 subtable" w.ext.right
Substitution2: "Single Substitution lookup 24 subtable" w.ext.left
Substitution2: "Single Substitution lookup 23 subtable" w.ext.right
EndChar

StartChar: x.ext.down
Encoding: 376 -1 330
Width: 320
VWidth: 408
Flags: HW
AnchorPoint: "Extension_mkmk" 0 384 mark 0
LayerCount: 2
Fore
SplineSet
0 384 m 0
 -80 374 0 324 36 364 c 1024
EndSplineSet
Substitution2: "Single Substitution lookup 28 subtable" x.ext.left
Substitution2: "Single Substitution lookup 27 subtable" x.ext.right
Substitution2: "Single Substitution lookup 24 subtable" x.ext.left
Substitution2: "Single Substitution lookup 23 subtable" x.ext.right
EndChar

StartChar: y.ext.down
Encoding: 377 -1 331
Width: 320
VWidth: 408
Flags: HW
AnchorPoint: "Extension_mkmk" 0 384 mark 0
LayerCount: 2
Fore
SplineSet
0 384 m 0
 0 373 9 364 20 364 c 1
 0 354 20 336 36 340 c 1024
EndSplineSet
Substitution2: "Single Substitution lookup 28 subtable" y.ext.left
Substitution2: "Single Substitution lookup 27 subtable" y.ext.right
Substitution2: "Single Substitution lookup 24 subtable" y.ext.left
Substitution2: "Single Substitution lookup 23 subtable" y.ext.right
EndChar

StartChar: z.ext.down
Encoding: 378 -1 332
Width: 320
VWidth: 408
Flags: HW
AnchorPoint: "Extension_mkmk" 0 384 mark 0
LayerCount: 2
Fore
SplineSet
0 384 m 0
 0 362 -13 344 -30 344 c 1024
EndSplineSet
Substitution2: "Single Substitution lookup 28 subtable" z.ext.left
Substitution2: "Single Substitution lookup 27 subtable" z.ext.right
Substitution2: "Single Substitution lookup 24 subtable" z.ext.left
Substitution2: "Single Substitution lookup 23 subtable" z.ext.right
EndChar

StartChar: glottal.ext.left
Encoding: 419 -1 334
Width: 320
VWidth: 408
Flags: HW
AnchorPoint: "Extension_mkmk" 0 384 mark 0
LayerCount: 2
Fore
SplineSet
0 384 m 0
 0 384 l 0
 -17 384 -30 371 -30 354 c 0
 -30 337 -17 324 0 324 c 0
 8 324 16 328 21 333 c 0
 42 354 -20 358 -60 354 c 1024
EndSplineSet
EndChar

StartChar: ncaron.ext.left
Encoding: 420 -1 335
Width: 320
VWidth: 408
Flags: HW
AnchorPoint: "Extension_mkmk" 0 384 mark 0
LayerCount: 2
Fore
SplineSet
0 384 m 1
 0 424 l 1
 -36 400 l 1025
EndSplineSet
EndChar

StartChar: scaron.ext.left
Encoding: 421 -1 336
Width: 320
VWidth: 408
Flags: HW
AnchorPoint: "Extension_mkmk" 0 384 mark 0
LayerCount: 2
Fore
SplineSet
0 384 m 0
 -22 384 -40 366 -40 344 c 1
 -40 412 l 1025
EndSplineSet
EndChar

StartChar: ddotbelow.ext.left
Encoding: 422 -1 337
Width: 320
VWidth: 408
Flags: HW
AnchorPoint: "Extension_mkmk" 0 384 mark 0
LayerCount: 2
Fore
SplineSet
0 384 m 0
 17 384 30 371 30 354 c 0
 30 337 17 324 0 324 c 1024
EndSplineSet
EndChar

StartChar: tcedilla.ext.left
Encoding: 423 -1 338
Width: 320
VWidth: 408
Flags: HW
AnchorPoint: "Extension_mkmk" 0 384 mark 0
LayerCount: 2
Fore
SplineSet
0 384 m 0
 -30 324 20 324 30 354 c 1024
EndSplineSet
EndChar

StartChar: ccedilla.ext.left
Encoding: 424 -1 339
Width: 320
VWidth: 408
Flags: HW
AnchorPoint: "Extension_mkmk" 0 384 mark 0
LayerCount: 2
Fore
SplineSet
0 384 m 1
 40 334 l 1
 12 314 l 1025
EndSplineSet
EndChar

StartChar: ccaron.ext.left
Encoding: 425 -1 340
Width: 320
VWidth: 408
Flags: HW
AnchorPoint: "Extension_mkmk" 0 384 mark 0
LayerCount: 2
Fore
SplineSet
0 384 m 0
 -48 384 -36 404 -24 414 c 1
 -60 414 l 1
 -42 446 l 1025
EndSplineSet
EndChar

StartChar: lcedilla.ext.left
Encoding: 426 -1 341
Width: 320
VWidth: 408
Flags: HW
AnchorPoint: "Extension_mkmk" 0 384 mark 0
LayerCount: 2
Fore
SplineSet
0 384 m 0
 -17 384 -30 371 -30 354 c 1
 -60 394 l 1025
EndSplineSet
EndChar

StartChar: zdotaccent.ext.left
Encoding: 427 -1 342
Width: 320
VWidth: 408
Flags: HW
AnchorPoint: "Extension_mkmk" 0 384 mark 0
LayerCount: 2
Fore
SplineSet
0 384 m 0
 40 384 60 356 20 344 c 0
 -20 332 0 304 40 304 c 1024
EndSplineSet
EndChar

StartChar: zcaron.ext.left
Encoding: 428 -1 343
Width: 320
VWidth: 408
Flags: HW
AnchorPoint: "Extension_mkmk" 0 384 mark 0
LayerCount: 2
Fore
SplineSet
0 384 m 0
 0 424 -30 424 -30 384 c 1
 -30 424 -60 424 -60 394 c 0
 -60 393 l 0
 -60 389 -58 386 -54 384 c 1024
EndSplineSet
EndChar

StartChar: rcaron.ext.left
Encoding: 429 -1 344
Width: 320
VWidth: 408
Flags: HW
AnchorPoint: "Extension_mkmk" 0 384 mark 0
LayerCount: 2
Fore
SplineSet
0 384 m 1
 30 414 l 1
 0 404 -10 406 -30 429 c 1024
EndSplineSet
EndChar

StartChar: b.ext.left
Encoding: 430 -1 345
Width: 320
VWidth: 408
Flags: HW
AnchorPoint: "Extension_mkmk" 0 384 mark 0
LayerCount: 2
Fore
SplineSet
0 384 m 0
 -11 384 -20 375 -20 364 c 0
 -20 353 -11 344 0 344 c 1
 -40 344 l 1025
EndSplineSet
EndChar

StartChar: c.ext.left
Encoding: 431 -1 346
Width: 320
VWidth: 408
Flags: HW
AnchorPoint: "Extension_mkmk" 0 384 mark 0
LayerCount: 2
Fore
SplineSet
0 384 m 0
 0 344 -30 344 -30 384 c 1
 -30 344 -60 344 -60 374 c 0
 -60 375 l 0
 -60 379 -58 382 -54 384 c 1024
EndSplineSet
EndChar

StartChar: equal.ext.left
Encoding: 432 -1 347
Width: 320
VWidth: 408
Flags: HW
AnchorPoint: "Extension_mkmk" 0 384 mark 0
LayerCount: 2
Fore
SplineSet
0 384 m 0
 -60 384 -15 474 45 354 c 1024
EndSplineSet
EndChar

StartChar: d.ext.left
Encoding: 433 -1 348
Width: 320
VWidth: 408
Flags: HW
AnchorPoint: "Extension_mkmk" 0 384 mark 0
LayerCount: 2
Fore
SplineSet
0 384 m 0
 0 384 30 374 30 344 c 1024
EndSplineSet
EndChar

StartChar: D.ext.left
Encoding: 434 -1 349
Width: 320
VWidth: 408
Flags: HW
AnchorPoint: "Extension_mkmk" 0 384 mark 0
LayerCount: 2
Fore
SplineSet
0 384 m 0
 22 384 40 406 40 434 c 1
 70 414 58 390 58 390 c 1024
EndSplineSet
EndChar

StartChar: glottal.flip.ext.left
Encoding: 435 -1 350
Width: 320
VWidth: 408
Flags: HW
AnchorPoint: "Extension_mkmk" 0 384 mark 0
LayerCount: 2
Fore
SplineSet
0 384 m 0
 40 304 64 400 0 424 c 1024
EndSplineSet
EndChar

StartChar: approxequal.ext.left
Encoding: 436 -1 351
Width: 320
VWidth: 408
Flags: HW
AnchorPoint: "Extension_mkmk" 0 384 mark 0
LayerCount: 2
Fore
SplineSet
0 384 m 0
 0 384 30 394 30 424 c 1024
EndSplineSet
EndChar

StartChar: f.ext.left
Encoding: 437 -1 352
Width: 320
VWidth: 408
Flags: HW
AnchorPoint: "Extension_mkmk" 0 384 mark 0
LayerCount: 2
Fore
SplineSet
0 384 m 0
 -20 304 -60 384 -20 424 c 1024
EndSplineSet
EndChar

StartChar: g.ext.left
Encoding: 438 -1 353
Width: 320
VWidth: 408
Flags: HW
AnchorPoint: "Extension_mkmk" 0 384 mark 0
LayerCount: 2
Fore
SplineSet
0 384 m 0
 17 384 30 397 30 414 c 0
 30 431 17 444 0 444 c 1024
EndSplineSet
EndChar

StartChar: G.ext.left
Encoding: 439 -1 354
Width: 320
VWidth: 408
Flags: HW
AnchorPoint: "Extension_mkmk" 0 384 mark 0
LayerCount: 2
Fore
SplineSet
0 384 m 1
 40 384 l 1
 0 384 0 414 40 414 c 1
 0 414 0 444 40 444 c 1024
EndSplineSet
EndChar

StartChar: h.ext.left
Encoding: 440 -1 355
Width: 320
VWidth: 408
Flags: HW
AnchorPoint: "Extension_mkmk" 0 384 mark 0
LayerCount: 2
Fore
SplineSet
0 384 m 0
 -40 384 -60 412 -20 424 c 0
 20 436 0 464 -40 464 c 1024
EndSplineSet
EndChar

StartChar: j.ext.left
Encoding: 441 -1 356
Width: 320
VWidth: 408
Flags: HW
AnchorPoint: "Extension_mkmk" 0 384 mark 0
LayerCount: 2
Fore
SplineSet
0 384 m 0
 -11 384 -20 393 -20 404 c 0
 -20 415 -11 424 0 424 c 1
 -20 424 l 2
 -42 424 -60 406 -60 384 c 1024
EndSplineSet
EndChar

StartChar: k.ext.left
Encoding: 442 -1 357
Width: 320
VWidth: 408
Flags: HW
AnchorPoint: "Extension_mkmk" 0 384 mark 0
LayerCount: 2
Fore
SplineSet
0 384 m 0
 -11 384 -20 393 -20 404 c 0
 -20 415 -11 424 0 424 c 1
 -40 424 l 1025
EndSplineSet
EndChar

StartChar: l.ext.left
Encoding: 443 -1 358
Width: 320
VWidth: 408
Flags: HW
AnchorPoint: "Extension_mkmk" 0 384 mark 0
LayerCount: 2
Fore
SplineSet
0 384 m 0
 -20 384 -28 384 -40 396 c 1
 0 384 8 408 8 404 c 1024
EndSplineSet
EndChar

StartChar: m.ext.left
Encoding: 444 -1 359
Width: 320
VWidth: 408
Flags: HW
AnchorPoint: "Extension_mkmk" 0 384 mark 0
LayerCount: 2
Fore
SplineSet
0 384 m 0
 -60 384 -15 294 45 414 c 1024
EndSplineSet
EndChar

StartChar: n.ext.left
Encoding: 445 -1 360
Width: 320
VWidth: 408
Flags: HW
AnchorPoint: "Extension_mkmk" 0 384 mark 0
LayerCount: 2
Fore
SplineSet
0 384 m 0
 -15 384 -28 393 -28 404 c 0
 -28 415 -15 424 0 424 c 1
 0 456 l 1025
EndSplineSet
EndChar

StartChar: p.ext.left
Encoding: 446 -1 361
Width: 320
VWidth: 408
Flags: HW
AnchorPoint: "Extension_mkmk" 0 384 mark 0
LayerCount: 2
Fore
SplineSet
0 384 m 0
 20 344 -48 344 -60 404 c 1024
EndSplineSet
EndChar

StartChar: P.ext.left
Encoding: 447 -1 362
Width: 320
VWidth: 408
Flags: HW
AnchorPoint: "Extension_mkmk" 0 384 mark 0
LayerCount: 2
Fore
SplineSet
0 384 m 0
 -40 384 -40 414 0 414 c 1
 -40 414 -40 444 0 444 c 1024
EndSplineSet
EndChar

StartChar: r.upsidedown.ext.left
Encoding: 448 -1 363
Width: 320
VWidth: 408
Flags: HW
AnchorPoint: "Extension_mkmk" 0 384 mark 0
LayerCount: 2
Fore
SplineSet
0 384 m 0
 -22 384 -40 397 -40 414 c 1
 -36 410 -30 408 -24 408 c 0
 -11 408 0 419 0 432 c 0
 0 433 0 433 0 434 c 1024
EndSplineSet
EndChar

StartChar: r.ext.left
Encoding: 449 -1 364
Width: 320
VWidth: 408
Flags: HW
AnchorPoint: "Extension_mkmk" 0 384 mark 0
LayerCount: 2
Fore
SplineSet
0 384 m 0
 -20 384 -32 394 -40 404 c 1
 8 356 l 1025
EndSplineSet
EndChar

StartChar: s.ext.left
Encoding: 450 -1 365
Width: 320
VWidth: 408
Flags: HW
AnchorPoint: "Extension_mkmk" 0 384 mark 0
LayerCount: 2
Fore
SplineSet
0 384 m 0
 -40 384 -48 356 -20 344 c 1024
EndSplineSet
EndChar

StartChar: t.ext.left
Encoding: 451 -1 366
Width: 320
VWidth: 408
Flags: HW
AnchorPoint: "Extension_mkmk" 0 384 mark 0
LayerCount: 2
Fore
SplineSet
0 384 m 0
 -22 384 -40 402 -40 424 c 1
 -40 364 l 1025
EndSplineSet
EndChar

StartChar: v.ext.left
Encoding: 452 -1 367
Width: 320
VWidth: 408
Flags: HW
AnchorPoint: "Extension_mkmk" 0 384 mark 0
LayerCount: 2
Fore
SplineSet
0 384 m 0
 0 367 -13 354 -30 354 c 1
 -20 384 -22 394 -45 414 c 1024
EndSplineSet
EndChar

StartChar: velar.ext.left
Encoding: 453 -1 368
Width: 320
VWidth: 408
Flags: HW
AnchorPoint: "Extension_mkmk" 0 384 mark 0
LayerCount: 2
Fore
SplineSet
0 384 m 0
 40 464 64 368 0 344 c 1024
EndSplineSet
EndChar

StartChar: w.ext.left
Encoding: 454 -1 369
Width: 320
VWidth: 408
Flags: HW
AnchorPoint: "Extension_mkmk" 0 384 mark 0
LayerCount: 2
Fore
SplineSet
0 384 m 0
 -20 384 -36 370 -36 352 c 1
 -56 392 -26 420 -14 416 c 1024
EndSplineSet
EndChar

StartChar: x.ext.left
Encoding: 455 -1 370
Width: 320
VWidth: 408
Flags: HW
AnchorPoint: "Extension_mkmk" 0 384 mark 0
LayerCount: 2
Fore
SplineSet
0 384 m 0
 20 424 -40 424 -48 384 c 1024
EndSplineSet
EndChar

StartChar: y.ext.left
Encoding: 456 -1 371
Width: 320
VWidth: 408
Flags: HW
AnchorPoint: "Extension_mkmk" 0 384 mark 0
LayerCount: 2
Fore
SplineSet
0 384 m 0
 -11 384 -20 393 -20 404 c 1
 -30 384 -48 404 -44 420 c 1024
EndSplineSet
EndChar

StartChar: z.ext.left
Encoding: 457 -1 372
Width: 320
VWidth: 408
Flags: HW
AnchorPoint: "Extension_mkmk" 0 384 mark 0
LayerCount: 2
Fore
SplineSet
0 384 m 0
 -17 384 -30 397 -30 414 c 1024
EndSplineSet
EndChar

StartChar: register.standard.CGT
Encoding: 460 -1 375
Width: 160
Flags: HW
LayerCount: 2
Fore
SplineSet
60 100 m 0
 134 120 80 140 80 140 c 1
 26 160 100 180 100 180 c 1024
EndSplineSet
Ligature2: "RegisterLigature subtable" periodcentered zero three
LCarets2: 2 80 80
EndChar

StartChar: register.standard.DSV
Encoding: 461 -1 376
Width: 160
Flags: HW
LayerCount: 2
Fore
SplineSet
83 140 m 4
 83 142 82 143 80 143 c 4
 78 143 77 142 77 140 c 4
 77 138 78 137 80 137 c 4
 82 137 83 138 83 140 c 1028
EndSplineSet
Ligature2: "RegisterLigature subtable" periodcentered zero one
LCarets2: 2 80 80
EndChar

StartChar: register.standard.EXM
Encoding: 462 -1 377
Width: 160
Flags: HW
LayerCount: 2
Fore
SplineSet
120 160 m 0
 100 86 80 140 80 140 c 1
 60 194 40 120 40 120 c 1024
EndSplineSet
Ligature2: "RegisterLigature subtable" periodcentered zero four
LCarets2: 2 80 80
EndChar

StartChar: register.standard.PNT
Encoding: 464 -1 379
Width: 160
Flags: HW
LayerCount: 2
Fore
SplineSet
40 140 m 1
 40 100 l 1
 120 180 l 1
 120 140 l 1025
EndSplineSet
Ligature2: "RegisterLigature subtable" periodcentered zero two
LCarets2: 2 80 80
EndChar

StartChar: register.standard.SPF
Encoding: 465 -1 380
Width: 160
Flags: HW
LayerCount: 2
Fore
SplineSet
146 160 m 0
 126 86 106 140 106 140 c 1
 86 194 66 120 66 120 c 1
 66 172 26 172 14 120 c 1024
EndSplineSet
Ligature2: "RegisterLigature subtable" periodcentered zero five
LCarets2: 2 80 80
EndChar

StartChar: register.alphabet.CGT
Encoding: 466 -1 381
Width: 160
Flags: HW
LayerCount: 2
Fore
SplineSet
95 180 m 4
 75 168 47 140 95 140 c 1028
83 104 m 4
 83 106 82 106 80 106 c 4
 78 106 77 106 77 104 c 4
 77 102 78 100 80 100 c 4
 82 100 83 102 83 104 c 1028
EndSplineSet
Ligature2: "RegisterLigature subtable" periodcentered one three
LCarets2: 2 80 80
EndChar

StartChar: register.alphabet.DSV
Encoding: 467 -1 382
Width: 160
Flags: HW
LayerCount: 2
Fore
SplineSet
65 140 m 4
 65 142 64 143 62 143 c 4
 60 143 59 142 59 140 c 4
 59 138 60 137 62 137 c 4
 64 137 65 138 65 140 c 4
101 140 m 4
 101 142 100 143 98 143 c 4
 96 143 95 142 95 140 c 4
 95 138 96 137 98 137 c 4
 100 137 101 138 101 140 c 1028
EndSplineSet
Ligature2: "RegisterLigature subtable" periodcentered one one
LCarets2: 2 80 80
EndChar

StartChar: register.alphabet.EXM
Encoding: 468 -1 383
Width: 160
Flags: HW
LayerCount: 2
Fore
SplineSet
65 100 m 4
 85 112 113 140 65 140 c 1028
77 176 m 4
 77 174 78 174 80 174 c 4
 82 174 83 174 83 176 c 4
 83 178 82 180 80 180 c 4
 78 180 77 178 77 176 c 1028
EndSplineSet
Ligature2: "RegisterLigature subtable" periodcentered one four
LCarets2: 2 80 80
EndChar

StartChar: register.alphabet.NRR
Encoding: 469 -1 384
Width: 160
Flags: HW
LayerCount: 2
Fore
SplineSet
83 158 m 4
 83 160 82 161 80 161 c 4
 78 161 77 160 77 158 c 4
 77 156 78 155 80 155 c 4
 82 155 83 156 83 158 c 4
83 122 m 4
 83 124 82 125 80 125 c 4
 78 125 77 124 77 122 c 4
 77 120 78 119 80 119 c 4
 82 119 83 120 83 122 c 1028
EndSplineSet
Ligature2: "RegisterLigature subtable" periodcentered one zero
LCarets2: 2 80 80
EndChar

StartChar: register.alphabet.PNT
Encoding: 470 -1 385
Width: 160
Flags: HW
LayerCount: 2
Fore
SplineSet
80 180 m 4
 140 120 20 160 80 100 c 1028
EndSplineSet
Ligature2: "RegisterLigature subtable" periodcentered one two
LCarets2: 2 80 80
EndChar

StartChar: register.alphabet.SPF
Encoding: 471 -1 386
Width: 160
Flags: HW
LayerCount: 2
Fore
SplineSet
146 160 m 0
 126 86 106 140 106 140 c 1
 86 194 66 120 66 120 c 1
 66 172 26 172 14 120 c 1024
EndSplineSet
Ligature2: "RegisterLigature subtable" periodcentered one five
LCarets2: 2 80 80
EndChar

StartChar: register.transcript.CGT
Encoding: 472 -1 387
Width: 160
Flags: HW
LayerCount: 2
Fore
SplineSet
60 100 m 0
 134 120 80 140 80 140 c 1
 26 160 100 180 100 180 c 1024
110 155 m 0
 110 157 109 158 107 158 c 0
 105 158 104 157 104 155 c 0
 104 153 105 152 107 152 c 0
 109 152 110 153 110 155 c 1024
EndSplineSet
Ligature2: "RegisterLigature subtable" periodcentered two three
LCarets2: 2 80 80
EndChar

StartChar: register.transcript.DSV
Encoding: 473 -1 388
Width: 160
Flags: HW
LayerCount: 2
Fore
SplineSet
47 140 m 4
 47 142 46 143 44 143 c 4
 42 143 41 142 41 140 c 4
 41 138 42 137 44 137 c 4
 46 137 47 138 47 140 c 4
83 140 m 4
 83 142 82 143 80 143 c 4
 78 143 77 142 77 140 c 4
 77 138 78 137 80 137 c 4
 82 137 83 138 83 140 c 4
119 140 m 4
 119 142 118 143 116 143 c 4
 114 143 113 142 113 140 c 4
 113 138 114 137 116 137 c 4
 118 137 119 138 119 140 c 1028
EndSplineSet
Ligature2: "RegisterLigature subtable" periodcentered two one
LCarets2: 2 80 80
EndChar

StartChar: register.transcript.EXM
Encoding: 474 -1 389
Width: 160
Flags: HW
LayerCount: 2
Fore
SplineSet
40 120 m 4
 60 194 80 140 80 140 c 5
 100 86 120 160 120 160 c 1028
92 170 m 4
 92 168 93 167 95 167 c 4
 97 167 98 168 98 170 c 4
 98 172 97 173 95 173 c 4
 93 173 92 172 92 170 c 1028
EndSplineSet
Ligature2: "RegisterLigature subtable" periodcentered two four
LCarets2: 2 80 80
EndChar

StartChar: register.transcript.NRR
Encoding: 475 -1 390
Width: 160
Flags: HW
LayerCount: 2
Fore
SplineSet
83 176 m 4
 83 178 82 179 80 179 c 4
 78 179 77 178 77 176 c 4
 77 174 78 173 80 173 c 4
 82 173 83 174 83 176 c 4
83 140 m 4
 83 142 82 143 80 143 c 4
 78 143 77 142 77 140 c 4
 77 138 78 137 80 137 c 4
 82 137 83 138 83 140 c 4
83 104 m 4
 83 106 82 107 80 107 c 4
 78 107 77 106 77 104 c 4
 77 102 78 101 80 101 c 4
 82 101 83 102 83 104 c 1028
EndSplineSet
Ligature2: "RegisterLigature subtable" periodcentered two zero
LCarets2: 2 80 80
EndChar

StartChar: register.transcript.PNT
Encoding: 476 -1 391
Width: 160
Flags: HW
LayerCount: 2
Fore
SplineSet
60 120 m 1
 80 160 l 1
 100 120 l 1025
EndSplineSet
Ligature2: "RegisterLigature subtable" periodcentered two two
LCarets2: 2 80 80
EndChar

StartChar: register.transcript.SPF
Encoding: 477 -1 392
Width: 160
Flags: HW
LayerCount: 2
Fore
SplineSet
146 160 m 4
 126 86 106 140 106 140 c 5
 86 194 66 120 66 120 c 5
 66 172 26 172 14 120 c 1028
71 180 m 4
 71 182 70 183 68 183 c 4
 66 183 65 182 65 180 c 4
 65 178 66 177 68 177 c 4
 70 177 71 178 71 180 c 1028
EndSplineSet
Ligature2: "RegisterLigature subtable" periodcentered two five
LCarets2: 2 80 80
EndChar

StartChar: register.translit.CGT
Encoding: 478 -1 393
Width: 160
Flags: HW
LayerCount: 2
Fore
SplineSet
100 180 m 0
 26 160 80 140 80 140 c 1
 134 120 60 100 60 100 c 1024
50 125 m 0
 50 123 51 122 53 122 c 0
 55 122 56 123 56 125 c 0
 56 127 55 128 53 128 c 0
 51 128 50 127 50 125 c 1024
EndSplineSet
Ligature2: "RegisterLigature subtable" periodcentered three three
LCarets2: 2 80 80
EndChar

StartChar: register.translit.DSV
Encoding: 479 -1 394
Width: 160
Flags: HW
LayerCount: 2
Fore
SplineSet
100 160 m 1
 60 140 l 1
 100 120 l 1025
EndSplineSet
Ligature2: "RegisterLigature subtable" periodcentered three one
LCarets2: 2 80 80
EndChar

StartChar: register.translit.EXM
Encoding: 480 -1 395
Width: 160
Flags: HW
LayerCount: 2
Fore
SplineSet
120 160 m 0
 100 86 80 140 80 140 c 1
 60 194 40 120 40 120 c 1024
68 110 m 0
 68 112 67 113 65 113 c 0
 63 113 62 112 62 110 c 0
 62 108 63 107 65 107 c 0
 67 107 68 108 68 110 c 1024
EndSplineSet
Ligature2: "RegisterLigature subtable" periodcentered three four
LCarets2: 2 80 80
EndChar

StartChar: register.translit.NRR
Encoding: 481 -1 396
Width: 160
Flags: HW
LayerCount: 2
Fore
SplineSet
60 120 m 1
 100 140 l 1
 60 160 l 1025
EndSplineSet
Ligature2: "RegisterLigature subtable" periodcentered three zero
LCarets2: 2 80 80
EndChar

StartChar: register.translit.PNT
Encoding: 482 -1 397
Width: 160
Flags: HW
LayerCount: 2
Fore
SplineSet
100 160 m 1
 80 120 l 1
 60 160 l 1025
EndSplineSet
Ligature2: "RegisterLigature subtable" periodcentered three two
LCarets2: 2 80 80
EndChar

StartChar: register.translit.SPF
Encoding: 483 -1 398
Width: 160
Flags: HW
LayerCount: 2
Fore
SplineSet
146 160 m 0
 126 86 106 140 106 140 c 1
 86 194 66 120 66 120 c 1
 66 172 26 172 14 120 c 1024
93 110 m 0
 93 112 92 113 90 113 c 0
 88 113 87 112 87 110 c 0
 87 108 88 107 90 107 c 0
 92 107 93 108 93 110 c 1024
EndSplineSet
Ligature2: "RegisterLigature subtable" periodcentered three five
LCarets2: 2 80 80
EndChar

StartChar: periodcentered
Encoding: 55 183 400
Width: 160
Flags: HW
LayerCount: 2
Fore
SplineSet
83 140 m 4
 83 142 82 143 80 143 c 4
 78 143 77 142 77 140 c 4
 77 138 78 137 80 137 c 4
 82 137 83 138 83 140 c 1028
EndSplineSet
EndChar

StartChar: colon.flip
Encoding: 485 -1 401
Width: 320
Flags: HW
AnchorPoint: "Diacritic_right" 260 240 basechar 0
AnchorPoint: "Diacritic_left" 60 80 basechar 0
AnchorPoint: "Extension_down" 260 0 basechar 0
AnchorPoint: "Extension_up" 60 280 basechar 0
AnchorPoint: "Diacritic_up" 160 360 basechar 0
AnchorPoint: "Diacritic_down" 160 -60 basechar 0
LayerCount: 2
Fore
SplineSet
140 160 m 0
 209 160 260 91 260 0 c 1024
180 120 m 0
 111 120 60 189 60 280 c 1024
EndSplineSet
Ligature2: "FlipCores subtable" colon quotesingle
LCarets2: 1 320
EndChar

StartChar: one.ten_coll
Encoding: 487 -1 403
Width: 0
Flags: HW
AnchorPoint: "Extension_mkmk" 0 384 mark 0
LayerCount: 2
Fore
SplineSet
0 384 m 1
 0 364 l 1
 120 364 160 304 160 304 c 1024
EndSplineSet
EndChar

StartChar: two.ten_coll
Encoding: 488 -1 404
Width: 0
Flags: HW
AnchorPoint: "Extension_mkmk" 0 384 mark 0
LayerCount: 2
Fore
SplineSet
0 384 m 0
 0 264 200 264 140 324 c 1024
EndSplineSet
EndChar

StartChar: three.ten_coll
Encoding: 489 -1 405
Width: 0
Flags: HW
AnchorPoint: "Extension_mkmk" 0 384 mark 0
LayerCount: 2
Fore
SplineSet
0 384 m 0
 0 362 -18 344 -40 344 c 1
 20 324 20 284 20 284 c 1024
EndSplineSet
EndChar

StartChar: four.ten_coll
Encoding: 490 -1 406
Width: 0
Flags: HW
AnchorPoint: "Extension_mkmk" 0 384 mark 0
LayerCount: 2
Fore
SplineSet
0 384 m 0
 0 362 18 344 40 344 c 1
 -20 324 -20 284 -20 284 c 1024
EndSplineSet
EndChar

StartChar: five.ten_coll
Encoding: 491 -1 407
Width: 0
Flags: HW
AnchorPoint: "Extension_mkmk" 0 384 mark 0
LayerCount: 2
Fore
SplineSet
0 384 m 1
 -120 384 l 1
 -30 384 0 324 0 324 c 1024
EndSplineSet
EndChar

StartChar: six.ten_coll
Encoding: 492 -1 408
Width: 0
Flags: HW
AnchorPoint: "Extension_mkmk" 0 384 mark 0
LayerCount: 2
Fore
SplineSet
0 384 m 1
 0 344 l 1
 120 344 l 1
 30 344 0 284 0 284 c 1024
EndSplineSet
EndChar

StartChar: seven.ten_coll
Encoding: 493 -1 409
Width: 0
Flags: HW
AnchorPoint: "Extension_mkmk" 0 384 mark 0
LayerCount: 2
Fore
SplineSet
0 384 m 1
 0 364 l 1
 8 365 17 366 26 366 c 0
 70 366 106 348 106 326 c 0
 106 304 70 286 26 286 c 0
 -2 286 -26 293 -40 304 c 1024
EndSplineSet
Substitution2: "Single Substitution lookup 36 subtable" seven.ten_deep
Substitution2: "Single Substitution lookup 35 subtable" seven.ten_deep
Substitution2: "Single Substitution lookup 33 subtable" seven.ten_deep
Substitution2: "Single Substitution lookup 32 subtable" seven.ten_deep
EndChar

StartChar: eight.ten_coll
Encoding: 494 -1 410
Width: 0
Flags: HW
AnchorPoint: "Extension_mkmk" 0 384 mark 0
LayerCount: 2
Fore
SplineSet
0 384 m 0
 -8 385 -17 386 -26 386 c 0
 -70 386 -106 368 -106 346 c 0
 -106 324 -70 306 -26 306 c 0
 2 306 26 313 40 324 c 1024
EndSplineSet
EndChar

StartChar: nine.ten_coll
Encoding: 495 -1 411
Width: 0
Flags: HW
AnchorPoint: "Extension_mkmk" 0 384 mark 0
LayerCount: 2
Fore
SplineSet
0 384 m 5
 0 364 l 1
 40 404 80 344 40 304 c 1024
EndSplineSet
Substitution2: "Single Substitution lookup 37 subtable" nine.ten_deep
Substitution2: "Single Substitution lookup 34 subtable" nine.ten_deep
EndChar

StartChar: seven.ten_deep
Encoding: 496 -1 412
Width: 0
VWidth: 2048
Flags: HW
AnchorPoint: "Extension_mkmk" 0 384 mark 0
LayerCount: 2
Fore
SplineSet
0 384 m 5
 0 344 l 5
 8 345 17 346 26 346 c 4
 70 346 106 328 106 306 c 4
 106 284 70 266 26 266 c 4
 -2 266 -26 273 -40 284 c 1028
EndSplineSet
EndChar

StartChar: nine.ten_deep
Encoding: 497 -1 413
Width: 0
VWidth: 2048
Flags: HW
AnchorPoint: "Extension_mkmk" 0 384 mark 0
LayerCount: 2
Fore
SplineSet
0 384 m 5
 0 344 l 5
 40 384 80 324 40 284 c 1028
EndSplineSet
EndChar

StartChar: Z.flip
Encoding: 498 -1 414
Width: 320
Flags: HW
AnchorPoint: "Diacritic_left" 0 140 basechar 0
AnchorPoint: "Diacritic_right" 220 140 basechar 0
AnchorPoint: "Diacritic_down" 160 -60 basechar 0
AnchorPoint: "Diacritic_up" 160 360 basechar 0
AnchorPoint: "Extension_up" 80 280 basechar 0
AnchorPoint: "Extension_down" 240 0 basechar 0
LayerCount: 2
Fore
SplineSet
240 0 m 1
 10 0 l 1
 10 120 220 260 300 280 c 1
 80 280 l 1025
EndSplineSet
LCarets2: 1 0
Ligature2: "FlipCores subtable" Z quotesingle
EndChar
